<svg id="add_provider" xmlns="http://www.w3.org/2000/svg" width="82" height="82" viewBox="0 0 82 82">
  <g id="Group_956" data-name="Group 956">
    <g id="Group_955" data-name="Group 955">
      <path id="Path_29523" data-name="Path 29523" d="M29.818,0H7.455A7.462,7.462,0,0,0,0,7.455V29.818a7.462,7.462,0,0,0,7.455,7.455H29.818a7.462,7.462,0,0,0,7.455-7.455V7.455A7.462,7.462,0,0,0,29.818,0Zm3.727,29.818a3.732,3.732,0,0,1-3.727,3.727H7.455a3.732,3.732,0,0,1-3.727-3.727V7.455A3.732,3.732,0,0,1,7.455,3.727H29.818a3.732,3.732,0,0,1,3.727,3.727Z" fill="#34b4b3"/>
      <path id="Path_29524" data-name="Path 29524" d="M285.818,0H263.455A7.462,7.462,0,0,0,256,7.455V29.818a7.462,7.462,0,0,0,7.455,7.455h22.364a7.462,7.462,0,0,0,7.455-7.455V7.455A7.462,7.462,0,0,0,285.818,0Zm3.727,29.818a3.732,3.732,0,0,1-3.727,3.727H263.455a3.732,3.732,0,0,1-3.727-3.727V7.455a3.732,3.732,0,0,1,3.727-3.727h22.364a3.732,3.732,0,0,1,3.727,3.727Z" transform="translate(-211.273)" fill="#34b4b3"/>
      <path id="Path_29525" data-name="Path 29525" d="M29.818,256H7.455A7.462,7.462,0,0,0,0,263.455v22.364a7.462,7.462,0,0,0,7.455,7.455H29.818a7.462,7.462,0,0,0,7.455-7.455V263.455A7.462,7.462,0,0,0,29.818,256Zm3.727,29.818a3.732,3.732,0,0,1-3.727,3.727H7.455a3.732,3.732,0,0,1-3.727-3.727V263.455a3.732,3.732,0,0,1,3.727-3.727H29.818a3.732,3.732,0,0,1,3.727,3.727Z" transform="translate(0 -211.273)" fill="#34b4b3"/>
      <path id="Path_29526" data-name="Path 29526" d="M319.165,307.984h-7.455V300.53a1.864,1.864,0,1,0-3.727,0v7.455h-7.455a1.864,1.864,0,1,0,0,3.727h7.455v7.454a1.864,1.864,0,0,0,3.727,0v-7.455h7.454a1.864,1.864,0,1,0,0-3.727Z" transform="translate(-246.484 -246.484)" fill="#34b4b3"/>
    </g>
  </g>
</svg>
