<svg xmlns="http://www.w3.org/2000/svg" width="22" height="30.564" viewBox="0 0 22 30.564">
  <g id="award" transform="translate(-11.806 -2)">
    <path id="Path_29843" data-name="Path 29843" d="M56.384,13.474A.437.437,0,0,1,56,13.256a9.092,9.092,0,0,0-.712-1.065.437.437,0,1,1,.689-.536,10.016,10.016,0,0,1,.781,1.165.437.437,0,0,1-.379.655Z" transform="translate(-24.447 -5.344)"/>
    <path id="Path_29844" data-name="Path 29844" d="M22.806,24a10.883,10.883,0,0,1-4-.755A11,11,0,0,1,24.926,2.2a.437.437,0,1,1-.17.857,10.02,10.02,0,0,0-1.95-.188,10.123,10.123,0,1,0,9.933,8.158.437.437,0,1,1,.857-.169A11,11,0,0,1,26.8,23.247a10.883,10.883,0,0,1-4,.754Z" transform="translate(0)"/>
    <path id="Path_29845" data-name="Path 29845" d="M49.219,6.583a.437.437,0,0,1-.258-.085,9.824,9.824,0,0,0-1.037-.661.437.437,0,1,1,.426-.762,10.694,10.694,0,0,1,1.128.719.437.437,0,0,1-.259.789Z" transform="translate(-20.222 -1.701)"/>
    <path id="Path_29846" data-name="Path 29846" d="M26.5,24.83a8.137,8.137,0,1,1,8.136-8.137A8.137,8.137,0,0,1,26.5,24.83Zm0-15.4a7.264,7.264,0,1,0,7.263,7.264A7.264,7.264,0,0,0,26.5,9.43Z" transform="translate(-3.694 -3.694)"/>
    <path id="Path_29847" data-name="Path 29847" d="M35.323,58.889a.437.437,0,0,1-.269-.093l-3.568-2.787L27.918,58.8a.437.437,0,0,1-.706-.344V49.164a.437.437,0,1,1,.873,0v8.393l3.131-2.445a.437.437,0,0,1,.538,0l3.131,2.445V49.164a.437.437,0,0,1,.873,0v9.288A.437.437,0,0,1,35.323,58.889Z" transform="translate(-8.679 -26.325)"/>
    <path id="Path_29848" data-name="Path 29848" d="M30.739,26.375a.437.437,0,0,1-.309-.128l-1.722-1.723a.437.437,0,1,1,.617-.617l1.413,1.413,4.448-4.447a.437.437,0,1,1,.617.617L31.048,26.25a.437.437,0,0,1-.309.126Z" transform="translate(-9.451 -10.561)"/>
  </g>
</svg>
