<svg xmlns="http://www.w3.org/2000/svg" width="22" height="20.361" viewBox="0 0 22 20.361">
  <g id="box_order" transform="translate(-23 -40.717)">
    <path id="Path_29813" data-name="Path 29813" d="M125.842,100.777l8.2-4.733-3.856-2.226-8.2,4.733Z" transform="translate(-94.313 -50.594)"/>
    <path id="Path_29814" data-name="Path 29814" d="M31.215,157.818,23,153.085v9.467l8.215,4.733Z" transform="translate(0 -107.063)"/>
    <rect id="Rectangle_1296" data-name="Rectangle 1296" width="0.897" height="0.897" transform="translate(38.485 55.602)"/>
    <path id="Path_29815" data-name="Path 29815" d="M211,157.818v9.467l4.485-2.594v-6.834a1.418,1.418,0,0,1,1.411-1.425h1.176a1.158,1.158,0,0,1,1.106-.85h-.01v-2.5Z" transform="translate(-179.124 -107.063)"/>
    <rect id="Rectangle_1297" data-name="Rectangle 1297" width="2.88" height="0.991" rx="0.496" transform="translate(39.571 49.181)"/>
    <path id="Path_29816" data-name="Path 29816" d="M41.892,42.842l-3.681-2.125-8.2,4.733,3.681,2.125Z" transform="translate(-6.682 0)"/>
    <path id="Path_29817" data-name="Path 29817" d="M327.219,238H326.03a1.13,1.13,0,0,1-1.093.8h-1.906a1.13,1.13,0,0,1-1.093-.8H320.75a.756.756,0,0,0-.75.764v9.541a.738.738,0,0,0,.75.742h6.469a.746.746,0,0,0,.759-.742v-9.541a.764.764,0,0,0-.759-.764Zm-6.417,2.22a.33.33,0,0,1,.328-.332h1.557a.335.335,0,0,1,.334.332v.222a.331.331,0,0,1-.332.33.318.318,0,0,1-.314-.223h-.912v.9h.013a.33.33,0,1,1,0,.661h-.346a.328.328,0,0,1-.328-.33Zm0,3.02a.33.33,0,0,1,.331-.33h1.558a.33.33,0,0,1,.33.33V244.8a.33.33,0,0,1-.33.33h-1.558a.33.33,0,0,1-.331-.33Zm.674,4.91h-.346a.319.319,0,0,1-.328-.319v-1.557a.34.34,0,0,1,.328-.343h1.557a.345.345,0,0,1,.334.343v.318a.332.332,0,1,1-.664,0h-.894v.9h.013a.33.33,0,0,1,0,.661Zm2.439-1.287-1.2,1.2a.33.33,0,0,1-.467,0l-.528-.528a.33.33,0,1,1,.467-.467l.294.294.968-.968a.33.33,0,0,1,.467.467Zm0-6.1-1.2,1.2a.33.33,0,0,1-.467,0l-.528-.528a.33.33,0,0,1,.467-.467l.294.294.968-.968a.331.331,0,0,1,.467.467Zm2.923,6.633h-2.076a.33.33,0,1,1,0-.661h2.076a.33.33,0,1,1,0,.661Zm0-3.021h-2.076a.33.33,0,1,1,0-.661h2.076a.33.33,0,1,1,0,.661Zm0-3.021h-2.076a.33.33,0,1,1,0-.661h2.076a.33.33,0,1,1,0,.661Z" transform="translate(-282.978 -187.969)"/>
  </g>
</svg>
