<svg xmlns="http://www.w3.org/2000/svg" width="23.142" height="22" viewBox="0 0 23.142 22">
  <g id="business_order_dashbored" transform="translate(0 0)">
    <path id="Path_30693" data-name="Path 30693" d="M23.1,105.34a1.97,1.97,0,0,0-2.369-1.52l-2.412.552v-.986a9.528,9.528,0,0,0,1.346-1.594,9.348,9.348,0,0,0,1.321-3.112A9.535,9.535,0,0,0,21,94.633a.452.452,0,0,0-.884.189,8.62,8.62,0,0,1-.016,3.661,8.447,8.447,0,0,1-1.194,2.812,8.046,8.046,0,0,1-.591.779v-5.01a.452.452,0,0,0-.452-.452H14.291V91.786a.452.452,0,0,0-.45-.452L9.813,91.32h0a.452.452,0,0,0-.452.452v2.511H5.784a.452.452,0,0,0-.452.452v4.476H4.325V98.6a.452.452,0,0,0-.452-.452H3.409a8.555,8.555,0,0,1,.369-4.433c.084-.232.18-.464.284-.688a.452.452,0,1,0-.819-.382c-.116.248-.222.5-.315.762a9.445,9.445,0,0,0-.436,4.741H.452A.452.452,0,0,0,0,98.6v7.945a.452.452,0,0,0,.452.452H3.873a.452.452,0,0,0,.452-.452v-.43h1.7l6.887,2.7a5.44,5.44,0,0,0,3.345.209l5.4-1.372a1.966,1.966,0,0,0,1.444-2.31Zm-5.685-7.824v7.063l-1.208.277c-.13.03-.261.053-.393.072a4.588,4.588,0,0,1-1.516-.044h-.006V104.2a2.093,2.093,0,0,0,.278-1.761,2.03,2.03,0,0,0-.213-.474q-.031-.05-.065-.1h0V97.516h3.124Zm-7.151-5.291,3.123.01v8.908l-1.746-.722-1.378-.57ZM6.236,95.187H9.36v4.29L8.8,99.245a.451.451,0,0,0-.173-.034H6.236Zm-2.815,10.9H.9V99.049H3.421Zm18.012.685-5.4,1.372a4.543,4.543,0,0,1-2.792-.175L6.276,105.24a.451.451,0,0,0-.165-.031H4.325v-5.093H8.536l2.924,1.21,1.6.662a1.131,1.131,0,0,1,.605,1.465,1.292,1.292,0,0,1-.181.318,1.165,1.165,0,0,1-1.185.409l-.011,0c-.026-.007-.052-.014-.078-.023l-3.041-1.169-.038-.014a.452.452,0,0,0-.324.844l3.022,1.164.079.029,1,.386a8.3,8.3,0,0,0,.921.314,5.484,5.484,0,0,0,2.573.032l1.559-.357h0l2.96-.678a1.066,1.066,0,0,1,.5,2.073Zm0,0" transform="translate(0 -87.193)"/>
    <path id="Path_30694" data-name="Path 30694" d="M118.329,3.215a.45.45,0,0,0,.3-.117A8.493,8.493,0,0,1,124.907.922a8.477,8.477,0,0,1,2.464.537.452.452,0,0,0,.322-.845A9.379,9.379,0,0,0,124.967.02a9.4,9.4,0,0,0-6.941,2.407.452.452,0,0,0,.3.787Zm0,0" transform="translate(-112.549 0)"/>
    <path id="Path_30695" data-name="Path 30695" d="M351.6,35.314a.452.452,0,0,0,.638-.045l3.719-4.281a.452.452,0,0,0-.682-.593l-3.719,4.281A.452.452,0,0,0,351.6,35.314Zm0,0" transform="translate(-335.561 -28.873)"/>
    <path id="Path_30696" data-name="Path 30696" d="M404.646,99.738a1.135,1.135,0,1,0,1.135,1.135A1.136,1.136,0,0,0,404.646,99.738Zm0,1.365a.231.231,0,1,1,.231-.231A.231.231,0,0,1,404.646,101.1Zm0,0" transform="translate(-385.274 -95.23)"/>
    <path id="Path_30697" data-name="Path 30697" d="M349.115,29.535a1.135,1.135,0,1,0-1.135-1.135A1.136,1.136,0,0,0,349.115,29.535Zm0-1.366a.231.231,0,1,1-.231.231A.231.231,0,0,1,349.115,28.169Zm0,0" transform="translate(-332.253 -26.033)"/>
    <path id="Path_30698" data-name="Path 30698" d="M91.615,81.45a.452.452,0,1,0,.166-.549A.456.456,0,0,0,91.615,81.45Zm0,0" transform="translate(-87.442 -77.173)"/>
  </g>
</svg>
