<svg xmlns="http://www.w3.org/2000/svg" width="22" height="22" viewBox="0 0 22 22">
  <g id="Calendar" transform="translate(-2 -2)">
    <path id="Path_30333" data-name="Path 30333" d="M22.167,4.2H20.333V3.467a1.467,1.467,0,0,0-2.933,0V4.2H14.467V3.467a1.467,1.467,0,1,0-2.933,0V4.2H8.6V3.467a1.467,1.467,0,1,0-2.933,0V4.2H3.833A1.833,1.833,0,0,0,2,6.033V20.7a1.833,1.833,0,0,0,1.833,1.833H14.1a.367.367,0,0,0,0-.733H3.833a1.1,1.1,0,0,1-1.1-1.1V9.333H23.267v6.233a.367.367,0,1,0,.733,0V6.033A1.833,1.833,0,0,0,22.167,4.2Zm-4.033-.733a.733.733,0,1,1,1.467,0v2.2a.733.733,0,1,1-1.467,0Zm-5.867,0a.733.733,0,0,1,1.467,0v2.2a.733.733,0,1,1-1.467,0Zm-5.867,0a.733.733,0,0,1,1.467,0v2.2a.733.733,0,1,1-1.467,0ZM23.267,8.6H2.733V6.033a1.1,1.1,0,0,1,1.1-1.1H5.667v.733a1.467,1.467,0,0,0,2.933,0V4.933h2.933v.733a1.467,1.467,0,0,0,2.933,0V4.933H17.4v.733a1.467,1.467,0,0,0,2.933,0V4.933h1.833a1.1,1.1,0,0,1,1.1,1.1Z" transform="translate(0 0)"/>
    <path id="Path_30334" data-name="Path 30334" d="M24.933,27.733A.733.733,0,0,0,24.2,27H22.733a.733.733,0,0,0-.733.733v1.1a.733.733,0,0,0,.733.733H24.2a.733.733,0,0,0,.733-.733Zm-2.2,1.1v-1.1H24.2v1.1Z" transform="translate(-12.667 -15.833)"/>
    <path id="Path_30335" data-name="Path 30335" d="M12.933,27.733A.733.733,0,0,0,12.2,27H10.733a.733.733,0,0,0-.733.733v1.1a.733.733,0,0,0,.733.733H12.2a.733.733,0,0,0,.733-.733Zm-2.2,1.1v-1.1H12.2v1.1Z" transform="translate(-5.067 -15.833)"/>
    <path id="Path_30336" data-name="Path 30336" d="M48.2,29.567a.733.733,0,0,0,.733-.733v-1.1A.733.733,0,0,0,48.2,27H46.733a.733.733,0,0,0-.733.733v1.1a.733.733,0,0,0,.733.733Zm-1.467-1.833H48.2v1.1H46.733Z" transform="translate(-27.867 -15.833)"/>
    <path id="Path_30337" data-name="Path 30337" d="M24.933,36.733A.733.733,0,0,0,24.2,36H22.733a.733.733,0,0,0-.733.733v1.1a.733.733,0,0,0,.733.733H24.2a.733.733,0,0,0,.733-.733Zm-2.2,1.1v-1.1H24.2v1.1Z" transform="translate(-12.667 -21.533)"/>
    <path id="Path_30338" data-name="Path 30338" d="M12.933,36.733A.733.733,0,0,0,12.2,36H10.733a.733.733,0,0,0-.733.733v1.1a.733.733,0,0,0,.733.733H12.2a.733.733,0,0,0,.733-.733Zm-2.2,1.1v-1.1H12.2v1.1Z" transform="translate(-5.067 -21.533)"/>
    <path id="Path_30339" data-name="Path 30339" d="M24.2,45H22.733a.733.733,0,0,0-.733.733v1.1a.733.733,0,0,0,.733.733H24.2a.733.733,0,0,0,.733-.733v-1.1A.733.733,0,0,0,24.2,45Zm-1.467,1.833v-1.1H24.2v1.1Z" transform="translate(-12.667 -27.233)"/>
    <path id="Path_30340" data-name="Path 30340" d="M34.733,29.567H36.2a.733.733,0,0,0,.733-.733v-1.1A.733.733,0,0,0,36.2,27H34.733a.733.733,0,0,0-.733.733v1.1A.733.733,0,0,0,34.733,29.567Zm0-1.833H36.2v1.1H34.733Z" transform="translate(-20.267 -15.833)"/>
    <path id="Path_30341" data-name="Path 30341" d="M34,37.833a.733.733,0,0,0,.733.733.367.367,0,0,0,0-.733v-1.1H36.2a.367.367,0,1,0,0-.733H34.733a.733.733,0,0,0-.733.733Z" transform="translate(-20.267 -21.533)"/>
    <path id="Path_30342" data-name="Path 30342" d="M12.2,45H10.733a.733.733,0,0,0-.733.733v1.1a.733.733,0,0,0,.733.733H12.2a.733.733,0,0,0,.733-.733v-1.1A.733.733,0,0,0,12.2,45Zm-1.467,1.833v-1.1H12.2v1.1Z" transform="translate(-5.067 -27.233)"/>
    <path id="Path_30343" data-name="Path 30343" d="M40.767,36a4.767,4.767,0,1,0,4.767,4.767A4.767,4.767,0,0,0,40.767,36Zm0,8.8A4.033,4.033,0,1,1,44.8,40.767,4.033,4.033,0,0,1,40.767,44.8Z" transform="translate(-21.533 -21.533)"/>
    <path id="Path_30344" data-name="Path 30344" d="M46.532,44.622,43.68,47.474l-1.3-1.3a.367.367,0,1,0-.519.519l1.555,1.556a.367.367,0,0,0,.518,0l3.111-3.111a.367.367,0,1,0-.518-.519Z" transform="translate(-25.18 -26.926)"/>
  </g>
</svg>
