<svg xmlns="http://www.w3.org/2000/svg" width="22" height="21.29" viewBox="0 0 22 21.29">
  <g id="cancle_order" transform="translate(-8 -16)">
    <path id="Path_30509" data-name="Path 30509" d="M28.758,17.065h-.177v-.71A.355.355,0,0,0,28.226,16H26.806a.355.355,0,0,0-.355.355v.71H24.323v-.71A.355.355,0,0,0,23.968,16H22.548a.355.355,0,0,0-.355.355v.71H20.065v-.71A.355.355,0,0,0,19.71,16H18.29a.355.355,0,0,0-.355.355v.71H15.806v-.71A.355.355,0,0,0,15.452,16H14.032a.355.355,0,0,0-.355.355v.71H11.548v-.71A.355.355,0,0,0,11.194,16H9.774a.355.355,0,0,0-.355.355v.71H9.242A1.243,1.243,0,0,0,8,18.306V33.919a1.243,1.243,0,0,0,1.242,1.242h4.549a7.438,7.438,0,0,0,10.419,0h4.549A1.243,1.243,0,0,0,30,33.919V18.306A1.243,1.243,0,0,0,28.758,17.065Zm-1.6-.355h.71v1.419h-.71Zm-4.258,0h.71v1.419H22.9Zm-4.258,0h.71v1.419h-.71Zm-4.258,0h.71v1.419h-.71Zm-4.258,0h.71v1.419h-.71ZM19,36.581a6.742,6.742,0,1,1,6.742-6.742A6.75,6.75,0,0,1,19,36.581Zm10.29-2.661a.533.533,0,0,1-.532.532h-3.91a7.452,7.452,0,1,0-11.7,0H9.242a.533.533,0,0,1-.532-.532V19.9H29.29Zm0-14.726H8.71v-.887a.533.533,0,0,1,.532-.532h.177v.71a.355.355,0,0,0,.355.355h1.419a.355.355,0,0,0,.355-.355v-.71h2.129v.71a.355.355,0,0,0,.355.355h1.419a.355.355,0,0,0,.355-.355v-.71h2.129v.71a.355.355,0,0,0,.355.355H19.71a.355.355,0,0,0,.355-.355v-.71h2.129v.71a.355.355,0,0,0,.355.355h1.419a.355.355,0,0,0,.355-.355v-.71h2.129v.71a.355.355,0,0,0,.355.355h1.419a.355.355,0,0,0,.355-.355v-.71h.177a.533.533,0,0,1,.532.532Z"/>
    <path id="Path_30510" data-name="Path 30510" d="M126.387,192.355a.355.355,0,0,0-.355-.355A6.039,6.039,0,0,0,120,198.032a.355.355,0,0,0,.71,0,5.329,5.329,0,0,1,5.323-5.323A.355.355,0,0,0,126.387,192.355Z" transform="translate(-107.032 -168.194)"/>
    <path id="Path_30511" data-name="Path 30511" d="M181.587,247.565l-1-1a.355.355,0,0,0-.5,0l-2.007,2.007-2.007-2.007a.355.355,0,0,0-.5,0l-1,1a.355.355,0,0,0,0,.5l2.007,2.007-2.007,2.007a.355.355,0,0,0,0,.5l1,1a.355.355,0,0,0,.5,0l2.007-2.007,2.007,2.007a.355.355,0,0,0,.5,0l1-1a.355.355,0,0,0,0-.5l-2.007-2.007,2.007-2.007A.355.355,0,0,0,181.587,247.565Zm-2.76,2.258a.355.355,0,0,0,0,.5l2.007,2.007-.5.5-2.007-2.007a.355.355,0,0,0-.5,0l-2.007,2.007-.5-.5,2.007-2.007a.355.355,0,0,0,0-.5l-2.007-2.007.5-.5,2.007,2.007a.355.355,0,0,0,.5,0l2.007-2.007.5.5Z" transform="translate(-159.074 -220.235)"/>
  </g>
</svg>
