<svg xmlns="http://www.w3.org/2000/svg" width="21.633" height="22" viewBox="0 0 21.633 22">
  <g id="checklists_order" transform="translate(-2 -2)">
    <path id="Path_29820" data-name="Path 29820" d="M43,4V6.2h2.2Z" transform="translate(-25.967 -1.267)"/>
    <path id="Path_29821" data-name="Path 29821" d="M19.967,9.637l-7.67,7.67-2.6.865V17.4l2.2-.733L23.633,4.933,22.167,3.467l-2.2,2.2H16.3V2H2V24H19.967ZM7.133,22.167H4.2V19.233H7.133Zm0-4.767H4.2V14.467H7.133Zm0-6.815v2.048H4.2V9.7H6.982l.626-.626.518.518Zm0-4.767V7.867H4.2V4.933H6.982l.626-.626.518.518Zm8.8,17.448H15.2v-.733h.733Zm1.467,0h-.733v-.733H17.4Zm1.467,0h-.733v-.733h.733Z" transform="translate(0 0)"/>
    <path id="Path_29822" data-name="Path 29822" d="M11.6,10l-1.315,1.315-.474-.474-.518.518.993.993,1.467-1.467V10Z" transform="translate(-4.619 -5.067)"/>
    <path id="Path_29823" data-name="Path 29823" d="M11.6,23l-1.315,1.315-.474-.474-.518.518.993.993,1.467-1.467V23Z" transform="translate(-4.619 -13.3)"/>
  </g>
</svg>
