<svg xmlns="http://www.w3.org/2000/svg" width="22" height="26.951" viewBox="0 0 22 26.951">
  <g id="choices_dashbored" transform="translate(-47.031)">
    <g id="Group_18663" data-name="Group 18663" transform="translate(49.732 4.051)">
      <g id="Group_18662" data-name="Group 18662" transform="translate(0)">
        <path id="Path_30682" data-name="Path 30682" d="M101.461,78.31a.422.422,0,0,0-.422.422.928.928,0,1,1-.928-.928.422.422,0,1,0,0-.844,1.772,1.772,0,1,0,1.772,1.772A.422.422,0,0,0,101.461,78.31Z" transform="translate(-98.338 -76.96)"/>
      </g>
    </g>
    <g id="Group_18665" data-name="Group 18665" transform="translate(49.732 9.003)">
      <g id="Group_18664" data-name="Group 18664" transform="translate(0)">
        <path id="Path_30683" data-name="Path 30683" d="M101.461,172.372a.422.422,0,0,0-.422.422.928.928,0,1,1-.928-.928.422.422,0,1,0,0-.844,1.772,1.772,0,1,0,1.772,1.772A.422.422,0,0,0,101.461,172.372Z" transform="translate(-98.338 -171.022)"/>
      </g>
    </g>
    <g id="Group_18667" data-name="Group 18667" transform="translate(54.233 11.253)">
      <g id="Group_18666" data-name="Group 18666">
        <path id="Path_30684" data-name="Path 30684" d="M187.422,213.779h-3.151a.422.422,0,0,0,0,.844h3.151a.422.422,0,1,0,0-.844Z" transform="translate(-183.849 -213.779)"/>
      </g>
    </g>
    <g id="Group_18669" data-name="Group 18669" transform="translate(54.233 9.453)">
      <g id="Group_18668" data-name="Group 18668">
        <path id="Path_30685" data-name="Path 30685" d="M187.422,179.574h-3.151a.422.422,0,0,0,0,.844h3.151a.422.422,0,1,0,0-.844Z" transform="translate(-183.849 -179.574)"/>
      </g>
    </g>
    <g id="Group_18671" data-name="Group 18671" transform="translate(54.233 16.205)">
      <g id="Group_18670" data-name="Group 18670">
        <path id="Path_30686" data-name="Path 30686" d="M186.522,307.841h-2.251a.422.422,0,0,0,0,.844h2.251a.422.422,0,0,0,0-.844Z" transform="translate(-183.849 -307.841)"/>
      </g>
    </g>
    <g id="Group_18673" data-name="Group 18673" transform="translate(54.233 14.404)">
      <g id="Group_18672" data-name="Group 18672">
        <path id="Path_30687" data-name="Path 30687" d="M187.422,273.637h-3.151a.422.422,0,0,0,0,.844h3.151a.422.422,0,0,0,0-.844Z" transform="translate(-183.849 -273.637)"/>
      </g>
    </g>
    <g id="Group_18675" data-name="Group 18675" transform="translate(54.233 6.302)">
      <g id="Group_18674" data-name="Group 18674">
        <path id="Path_30688" data-name="Path 30688" d="M191.473,119.716h-7.2a.422.422,0,1,0,0,.844h7.2a.422.422,0,0,0,0-.844Z" transform="translate(-183.849 -119.716)"/>
      </g>
    </g>
    <g id="Group_18677" data-name="Group 18677" transform="translate(54.233 4.501)">
      <g id="Group_18676" data-name="Group 18676">
        <path id="Path_30689" data-name="Path 30689" d="M189.673,85.511h-5.4a.422.422,0,0,0,0,.844h5.4a.422.422,0,0,0,0-.844Z" transform="translate(-183.849 -85.511)"/>
      </g>
    </g>
    <g id="Group_18679" data-name="Group 18679" transform="translate(49.732 13.954)">
      <g id="Group_18678" data-name="Group 18678" transform="translate(0)">
        <path id="Path_30690" data-name="Path 30690" d="M101.461,266.435a.422.422,0,0,0-.422.422.928.928,0,1,1-.928-.928.422.422,0,1,0,0-.844,1.772,1.772,0,1,0,1.772,1.772A.422.422,0,0,0,101.461,266.435Z" transform="translate(-98.338 -265.085)"/>
      </g>
    </g>
    <g id="Group_18681" data-name="Group 18681" transform="translate(47.031)">
      <g id="Group_18680" data-name="Group 18680" transform="translate(0)">
        <path id="Path_30691" data-name="Path 30691" d="M63.658,0h-15.3a1.324,1.324,0,0,0-1.322,1.322V20.228a1.324,1.324,0,0,0,1.322,1.322h7.652a.422.422,0,1,0,0-.844H48.353a.479.479,0,0,1-.478-.478V1.322a.479.479,0,0,1,.478-.478h15.3a.479.479,0,0,1,.478.478V15.276a.422.422,0,0,0,.844,0V1.322A1.324,1.324,0,0,0,63.658,0Z" transform="translate(-47.031)"/>
      </g>
    </g>
    <g id="Group_18683" data-name="Group 18683" transform="translate(57.16 9.453)">
      <g id="Group_18682" data-name="Group 18682">
        <path id="Path_30692" data-name="Path 30692" d="M249.933,187.238a1.557,1.557,0,0,0-1.094.308,1.537,1.537,0,0,0-1.156-.758,1.558,1.558,0,0,0-1.094.308,1.537,1.537,0,0,0-1.156-.758,1.559,1.559,0,0,0-.861.162v-5.374a1.548,1.548,0,0,0-1.705-1.539,1.6,1.6,0,0,0-1.389,1.6v5.388l-1.241,1.241a2.656,2.656,0,0,0-.712,2.5l.942,4a3.559,3.559,0,0,0,3.478,2.755h3.806a3.577,3.577,0,0,0,3.573-3.573v-4.662A1.6,1.6,0,0,0,249.933,187.238Zm.545,6.266a2.732,2.732,0,0,1-2.729,2.729h-3.806a2.718,2.718,0,0,1-2.656-2.1l-.942-4a1.817,1.817,0,0,1,.487-1.712l.644-.644v1.457a.422.422,0,0,0,.844,0v-8.038a.746.746,0,0,1,.629-.764.7.7,0,0,1,.777.7v7.427a.422.422,0,0,0,.844,0v-.675a.7.7,0,0,1,.777-.7.746.746,0,0,1,.629.764V189a.422.422,0,0,0,.844,0v-.675a.7.7,0,0,1,.777-.7.746.746,0,0,1,.629.764v1.061a.422.422,0,0,0,.844,0v-.675a.7.7,0,0,1,.777-.7.746.746,0,0,1,.629.764V193.5Z" transform="translate(-239.452 -179.578)"/>
      </g>
    </g>
  </g>
</svg>
