<svg id="clock_order" xmlns="http://www.w3.org/2000/svg" width="22" height="22" viewBox="0 0 22 22">
  <path id="Path_30598" data-name="Path 30598" d="M19.686,5.789a.917.917,0,0,0-.426,1.224A9.073,9.073,0,0,1,20.167,11,9.167,9.167,0,1,1,11,1.833a9.056,9.056,0,0,1,5.691,1.978.917.917,0,1,0,1.141-1.435A11,11,0,1,0,22,11,10.888,10.888,0,0,0,20.91,6.214a.916.916,0,0,0-1.224-.426Zm0,0" transform="translate(0 0)"/>
  <path id="Path_30599" data-name="Path 30599" d="M176.917,64a.917.917,0,0,0-.917.917v6.417a.917.917,0,0,0,.917.917H181.5a.917.917,0,0,0,0-1.833h-3.667v-5.5A.917.917,0,0,0,176.917,64Zm0,0" transform="translate(-165.917 -60.333)"/>
</svg>
