<svg xmlns="http://www.w3.org/2000/svg" width="22" height="27.254" viewBox="0 0 22 27.254">
  <g id="clock_fire_dashbored" transform="translate(-49.35 0)">
    <g id="Group_18711" data-name="Group 18711" transform="translate(49.35 0)">
      <path id="Path_30759" data-name="Path 30759" d="M195.856,252.643h-1.294a1.492,1.492,0,0,0-1.654-1.08L191.8,248.9a.4.4,0,0,0-.737.307l1.114,2.675a1.494,1.494,0,1,0,2.385,1.556h1.294a.4.4,0,0,0,0-.8Zm-2.733,1.094a.7.7,0,1,1,.695-.695A.7.7,0,0,1,193.123,253.737Z" transform="translate(-183.49 -235.422)"/>
      <path id="Path_30760" data-name="Path 30760" d="M50.148,17.62a8.281,8.281,0,0,1,1.173-4.4c1.332-2.131,1.8-3.352.663-6.1-.03-.074-.061-.14-.089-.2a4.405,4.405,0,0,1,4.11,2.347.4.4,0,0,0,.743-.258,2.961,2.961,0,0,1,1.042-3.184c.893-.879,1.9-1.873,1.379-4.955L59.2.884c3.926,2.289,4.029,3.834,4.149,5.622a7.192,7.192,0,0,0,1.861,4.844l.021.023A8.837,8.837,0,0,1,66.748,13.4a.4.4,0,0,0,.7-.382,9.634,9.634,0,0,0-1.644-2.2,6.43,6.43,0,0,1-1.661-4.366C64.014,4.521,63.892,2.7,59.6.194a.981.981,0,0,0-1-.081.687.687,0,0,0-.238.745c.51,2.787-.285,3.568-1.126,4.4a3.643,3.643,0,0,0-1.343,2.511,5.564,5.564,0,0,0-1.144-.933,4.807,4.807,0,0,0-2.99-.7c-.309.031-.6.059-.742.318a.662.662,0,0,0,.083.655c.046.089.1.191.152.321,1.006,2.436.656,3.358-.6,5.371A9.075,9.075,0,0,0,49.35,17.62a.4.4,0,1,0,.8,0Z" transform="translate(-49.35 0)"/>
      <path id="Path_30761" data-name="Path 30761" d="M70.814,273.509a.4.4,0,0,0-.267.5,8.835,8.835,0,1,1-17.128,4.262.4.4,0,1,0-.783.154,9.633,9.633,0,1,0,18.676-4.646A.4.4,0,0,0,70.814,273.509Z" transform="translate(-52.453 -258.934)"/>
      <path id="Path_30762" data-name="Path 30762" d="M105.245,199.142a7.032,7.032,0,1,0,7.031,7.032A7.04,7.04,0,0,0,105.245,199.142Zm5.487,7.419h.733a6.206,6.206,0,0,1-1.536,3.72l-.521-.521a.4.4,0,1,0-.565.565l.522.522a6.206,6.206,0,0,1-3.72,1.547v-.744a.4.4,0,1,0-.8,0v.744a6.209,6.209,0,0,1-3.722-1.547l.522-.522a.4.4,0,1,0-.565-.564l-.521.521a6.205,6.205,0,0,1-1.536-3.72h.733a.4.4,0,1,0,0-.8h-.731a6.209,6.209,0,0,1,1.547-3.709l.509.509a.4.4,0,1,0,.565-.565l-.508-.509a6.208,6.208,0,0,1,3.709-1.536v.72a.4.4,0,0,0,.8,0v-.72a6.205,6.205,0,0,1,3.707,1.536l-.509.509a.4.4,0,0,0,.565.565l.509-.509a6.209,6.209,0,0,1,1.546,3.71h-.731a.4.4,0,0,0,0,.8Z" transform="translate(-95.612 -188.542)"/>
      <path id="Path_30763" data-name="Path 30763" d="M363.7,47.8l-.176-.184a3.7,3.7,0,0,1-1.4-2.6.636.636,0,0,0-.4-.68.613.613,0,0,0-.7.289h0l-.159.23c-1,1.443-2.068,3.077-2.068,4.2a2.77,2.77,0,0,0,5.324,1.247A2.252,2.252,0,0,0,363.7,47.8Zm-.308,2.19a1.973,1.973,0,0,1-3.792-.931c0-.89,1.1-2.547,1.761-3.509a4.924,4.924,0,0,0,1.587,2.619l.172.18A1.456,1.456,0,0,1,363.392,49.991Z" transform="translate(-342.33 -41.954)"/>
    </g>
  </g>
</svg>
