<svg xmlns="http://www.w3.org/2000/svg" width="22" height="22" viewBox="0 0 22 22">
  <g id="clock_black" transform="translate(0 0)">
    <path id="Path_29475" data-name="Path 29475" d="M19.686,5.789a.917.917,0,0,0-.426,1.224A9.073,9.073,0,0,1,20.167,11,9.167,9.167,0,1,1,11,1.833a9.056,9.056,0,0,1,5.691,1.978.917.917,0,1,0,1.141-1.435A11,11,0,1,0,22,11,10.888,10.888,0,0,0,20.91,6.214a.916.916,0,0,0-1.224-.426Zm0,0" transform="translate(0 0)"/>
    <path id="Path_29476" data-name="Path 29476" d="M177.083,64A1.084,1.084,0,0,0,176,65.083v7.584a1.084,1.084,0,0,0,1.083,1.083H182.5a1.083,1.083,0,1,0,0-2.167h-4.334v-6.5A1.084,1.084,0,0,0,177.083,64Zm0,0" transform="translate(-166.671 -60.734)"/>
  </g>
</svg>
