<svg xmlns="http://www.w3.org/2000/svg" width="22" height="16.133" viewBox="0 0 22 16.133">
  <g id="cloud_provider" transform="translate(0 -73.091)">
    <path id="Path_29355" data-name="Path 29355" d="M21.043,82.091A4.337,4.337,0,0,0,18.6,80.539a2.928,2.928,0,0,0-2.463-4.514,2.8,2.8,0,0,0-1.9.71A5.873,5.873,0,0,0,8.8,73.091,5.653,5.653,0,0,0,4.652,74.81a5.651,5.651,0,0,0-1.719,4.148q0,.149.023.493A5.124,5.124,0,0,0,0,84.091a4.944,4.944,0,0,0,1.507,3.626,4.943,4.943,0,0,0,3.627,1.507H17.6a4.395,4.395,0,0,0,3.443-7.133Zm-6.485-.309a.353.353,0,0,1-.258.109H11.733v4.033a.372.372,0,0,1-.366.366h-2.2a.372.372,0,0,1-.367-.366V81.891H6.233a.353.353,0,0,1-.366-.366.431.431,0,0,1,.114-.275L10,77.228a.388.388,0,0,1,.527,0l4.033,4.033a.357.357,0,0,1,.1.264A.353.353,0,0,1,14.557,81.782Z" transform="translate(0)"/>
  </g>
</svg>
