<svg id="consutation" xmlns="http://www.w3.org/2000/svg" width="56" height="55.638" viewBox="0 0 56 55.638">
  <rect id="Rectangle_1369" data-name="Rectangle 1369" width="47.289" height="39.822" transform="translate(4.356 4.798)" fill="#69cc41"/>
  <g id="presentation" transform="translate(0 0)">
    <g id="Group_1075" data-name="Group 1075" transform="translate(0 0)">
      <g id="Group_1074" data-name="Group 1074" transform="translate(0 0)">
        <path id="Path_29905" data-name="Path 29905" d="M53.1,1.5H2.9a2.9,2.9,0,0,0,0,5.793V46.879a.966.966,0,0,0,.966.966H15.37L8.9,55.931l1.508,1.207,7.434-9.293h9.191v2.109a2.9,2.9,0,1,0,1.931,0V47.845h9.191l7.434,9.293L47.1,55.931,40.63,47.845H52.138a.966.966,0,0,0,.966-.966V7.293a2.9,2.9,0,1,0,0-5.793ZM28,53.638a.966.966,0,1,1,.966-.966A.966.966,0,0,1,28,53.638Zm23.172-7.724H4.828V7.293H51.172ZM53.1,5.362H2.9a.966.966,0,1,1,0-1.931H53.1a.966.966,0,1,1,0,1.931Z" transform="translate(0 -1.5)"/>
      </g>
    </g>
    <g id="Group_1077" data-name="Group 1077" transform="translate(8.089 30.93)">
      <g id="Group_1076" data-name="Group 1076" transform="translate(0 0)">
        <rect id="Rectangle_1354" data-name="Rectangle 1354" width="16.178" height="1.244" transform="translate(0 0)"/>
      </g>
    </g>
    <g id="Group_1079" data-name="Group 1079" transform="translate(8.089 34.664)">
      <g id="Group_1078" data-name="Group 1078" transform="translate(0 0)">
        <rect id="Rectangle_1355" data-name="Rectangle 1355" width="16.178" height="1.244"/>
      </g>
    </g>
    <g id="Group_1081" data-name="Group 1081" transform="translate(8.089 38.396)">
      <g id="Group_1080" data-name="Group 1080" transform="translate(0 0)">
        <rect id="Rectangle_1356" data-name="Rectangle 1356" width="12.444" height="3.733" transform="translate(0 0)"/>
      </g>
    </g>
    <g id="Group_1083" data-name="Group 1083" transform="translate(16.8 27.198)">
      <g id="Group_1082" data-name="Group 1082" transform="translate(0 0)">
        <rect id="Rectangle_1357" data-name="Rectangle 1357" width="7.467" height="1.244" transform="translate(0 0)"/>
      </g>
    </g>
    <g id="Group_1085" data-name="Group 1085" transform="translate(31.734 13.508)">
      <g id="Group_1084" data-name="Group 1084" transform="translate(0 0)">
        <rect id="Rectangle_1358" data-name="Rectangle 1358" width="16.178" height="2.489" transform="translate(0 0)"/>
      </g>
    </g>
    <g id="Group_1087" data-name="Group 1087" transform="translate(31.734 17.242)">
      <g id="Group_1086" data-name="Group 1086" transform="translate(0 0)">
        <rect id="Rectangle_1359" data-name="Rectangle 1359" width="16.178" height="2.489"/>
      </g>
    </g>
    <g id="Group_1089" data-name="Group 1089" transform="translate(31.734 20.976)">
      <g id="Group_1088" data-name="Group 1088" transform="translate(0 0)">
        <rect id="Rectangle_1360" data-name="Rectangle 1360" width="12.444" height="2.489"/>
      </g>
    </g>
    <g id="Group_1091" data-name="Group 1091" transform="translate(39.2 8.531)">
      <g id="Group_1090" data-name="Group 1090" transform="translate(0 0)">
        <rect id="Rectangle_1361" data-name="Rectangle 1361" width="8.711" height="3.733"/>
      </g>
    </g>
    <g id="Group_1093" data-name="Group 1093" transform="translate(8.69 8.69)">
      <g id="Group_1092" data-name="Group 1092" transform="translate(0 0)">
        <path id="Path_29906" data-name="Path 29906" d="M79.724,73.5a7.724,7.724,0,1,0,7.724,7.724A7.724,7.724,0,0,0,79.724,73.5Zm.994,2.024a5.787,5.787,0,0,1,3.675,2.286l-3.7,1.85Zm-4.333.976a5.778,5.778,0,0,1,2.408-.982l-.035,5.32-3.766,3.714A5.779,5.779,0,0,1,76.386,76.5Zm5.028,10.266a5.763,5.763,0,0,1-5.068-.845l3.966-3.91,4.952-2.477A5.793,5.793,0,0,1,81.413,86.765Z" transform="translate(-72 -73.5)"/>
      </g>
    </g>
    <g id="Group_1095" data-name="Group 1095" transform="translate(29.244 35.909)">
      <g id="Group_1094" data-name="Group 1094" transform="translate(0 0)">
        <rect id="Rectangle_1362" data-name="Rectangle 1362" width="2.489" height="6.222"/>
      </g>
    </g>
    <g id="Group_1097" data-name="Group 1097" transform="translate(46.666 34.664)">
      <g id="Group_1096" data-name="Group 1096" transform="translate(0 0)">
        <rect id="Rectangle_1363" data-name="Rectangle 1363" width="1.244" height="7.467" transform="translate(0 0)"/>
      </g>
    </g>
    <g id="Group_1099" data-name="Group 1099" transform="translate(32.978 32.176)">
      <g id="Group_1098" data-name="Group 1098" transform="translate(0 0)">
        <rect id="Rectangle_1364" data-name="Rectangle 1364" width="2.489" height="9.956"/>
      </g>
    </g>
    <g id="Group_1101" data-name="Group 1101" transform="translate(36.711 28.441)">
      <g id="Group_1100" data-name="Group 1100" transform="translate(0 0)">
        <rect id="Rectangle_1365" data-name="Rectangle 1365" width="2.489" height="13.689" transform="translate(0 0)"/>
      </g>
    </g>
    <g id="Group_1103" data-name="Group 1103" transform="translate(40.444 32.175)">
      <g id="Group_1102" data-name="Group 1102" transform="translate(0 0)">
        <rect id="Rectangle_1366" data-name="Rectangle 1366" width="3.733" height="9.956" transform="translate(0)"/>
      </g>
    </g>
    <g id="Group_1105" data-name="Group 1105" transform="translate(11.822 27.198)">
      <g id="Group_1104" data-name="Group 1104" transform="translate(0 0)">
        <rect id="Rectangle_1367" data-name="Rectangle 1367" width="3.733" height="1.244" transform="translate(0 0)"/>
      </g>
    </g>
    <g id="Group_1107" data-name="Group 1107" transform="translate(35.466 8.531)">
      <g id="Group_1106" data-name="Group 1106" transform="translate(0 0)">
        <rect id="Rectangle_1368" data-name="Rectangle 1368" width="1.244" height="3.733" transform="translate(0)"/>
      </g>
    </g>
  </g>
</svg>
