<svg xmlns="http://www.w3.org/2000/svg" width="22" height="15.125" viewBox="0 0 22 15.125">
  <g id="credit-card_5_" data-name="credit-card (5)" transform="translate(0 -80)">
    <path id="Path_29824" data-name="Path 29824" d="M22,84.716V83.182C22,81.425,20.923,80,19.594,80H2.406C1.077,80,0,81.425,0,83.182v1.534A.257.257,0,0,0,.215,85h21.57A.257.257,0,0,0,22,84.716Z"/>
    <path id="Path_29825" data-name="Path 29825" d="M0,200.284V210c0,1.757,1.077,3.182,2.406,3.182H19.594c1.329,0,2.406-1.425,2.406-3.182v-9.716a.257.257,0,0,0-.215-.284H.215A.257.257,0,0,0,0,200.284Zm5.5,7.443a.822.822,0,0,1-.687.909H4.125a.822.822,0,0,1-.688-.909v-.909a.822.822,0,0,1,.688-.909h.688a.822.822,0,0,1,.688.909Z" transform="translate(0 -118.057)"/>
  </g>
</svg>
