<svg xmlns="http://www.w3.org/2000/svg" width="81.153" height="81.071" viewBox="0 0 81.153 81.071">
  <g id="credit_card_provider" transform="translate(0 -0.243)">
    <g id="Group_959" data-name="Group 959" transform="translate(0 0.243)">
      <g id="Group_958" data-name="Group 958" transform="translate(0 0)">
        <path id="Path_29538" data-name="Path 29538" d="M80.587,29.355,71.52,5.782A8.648,8.648,0,0,0,60.341.824L60.147.9,14.839,19.683A8.607,8.607,0,0,0,10.057,30.7L11.3,34.022H8.445A8.455,8.455,0,0,0,0,42.467v30.4a8.455,8.455,0,0,0,8.445,8.445H65.871a8.455,8.455,0,0,0,8.445-8.445v-30.4a8.3,8.3,0,0,0-.122-1.367l1.569-.635A8.68,8.68,0,0,0,80.587,29.355ZM8.445,36.724H65.871a5.735,5.735,0,0,1,5.709,5.4H2.736A5.734,5.734,0,0,1,8.445,36.724Zm13.581-8.14,9.031-4.517,1.857,4.644-9.031,4.516ZM71.613,72.869a5.749,5.749,0,0,1-5.743,5.743H8.445A5.749,5.749,0,0,1,2.7,72.869V55.641H71.613Zm0-19.93H2.7V44.831H71.613ZM74.75,37.967l-1.412.572a8.449,8.449,0,0,0-7.467-4.517H28.337l6.9-3.45a1.351,1.351,0,0,0,.651-1.711L33.021,21.7a1.351,1.351,0,0,0-1.756-.753q-.052.021-.1.046L19.7,26.725a1.351,1.351,0,0,0-.65,1.711l2.235,5.586h-7.1l-1.6-4.267a5.915,5.915,0,0,1,3.286-7.567L61.181,3.406a5.937,5.937,0,0,1,7.759,3.21q.029.071.057.142l9.067,23.573A5.965,5.965,0,0,1,74.75,37.967Z" transform="translate(0 -0.243)" fill="#6c5ce7"/>
        <path id="Path_29539" data-name="Path 29539" d="M267.915,367.348a8.107,8.107,0,0,0,8.145,0,8.107,8.107,0,1,0,0-14.02,8.107,8.107,0,1,0-8.145,14.02Zm10.4-12.085a5.405,5.405,0,1,1,0,10.15A8.075,8.075,0,0,0,278.32,355.263ZM276.06,356.8a5.306,5.306,0,0,1,0,7.075A5.306,5.306,0,0,1,276.06,356.8Zm-4.054-1.867a5.346,5.346,0,0,1,1.794.33,8.075,8.075,0,0,0,0,10.15,5.4,5.4,0,1,1-1.794-10.48Z" transform="translate(-219.31 -292.779)" fill="#6c5ce7"/>
        <rect id="Rectangle_1256" data-name="Rectangle 1256" width="2.702" height="14.106" transform="translate(58.094 30.355) rotate(-113.966)" fill="#6c5ce7"/>
        <rect id="Rectangle_1257" data-name="Rectangle 1257" width="20.506" height="2.701" transform="matrix(0.908, -0.419, 0.419, 0.908, 48.391, 25.029)" fill="#6c5ce7"/>
      </g>
    </g>
  </g>
</svg>
