<svg id="data_provider" xmlns="http://www.w3.org/2000/svg" width="22" height="22" viewBox="0 0 22 22">
  <path id="Path_29276" data-name="Path 29276" d="M8.478,134.938H0v16.2H22V138.249H10.6Zm1.835,13.6H2.578V142.1h.967v-.967a2.9,2.9,0,0,1,5.8,0v.967h.967Zm2.02-5.135h6.445v1.289H12.332Zm0,2.578h6.445v1.289H12.332Zm0,0" transform="translate(0 -129.14)"/>
  <path id="Path_29277" data-name="Path 29277" d="M90,335.367h5.156V331.5H90Zm1.934-2.578h1.289v1.289H91.934Zm0,0" transform="translate(-86.133 -317.256)"/>
  <path id="Path_29278" data-name="Path 29278" d="M48.958,67.469H40.48v1.61h7.531l2.126,3.311h10.6V70.8H51.084Zm0,0" transform="translate(-38.741 -64.57)"/>
  <path id="Path_29279" data-name="Path 29279" d="M91.565,3.309,89.487,0H80.965V1.61H88.5l2.126,3.331h8.864V3.309Zm0,0" transform="translate(-77.486)"/>
  <path id="Path_29280" data-name="Path 29280" d="M115.723,243.111a1.611,1.611,0,1,0-3.223,0v.967h3.223Zm0,0" transform="translate(-107.666 -231.123)"/>
</svg>
