<svg xmlns="http://www.w3.org/2000/svg" width="22.732" height="22" viewBox="0 0 22.732 22">
  <g id="delete" transform="translate(-8 -16)">
    <path id="Path_30509" data-name="Path 30509" d="M29.45,17.1h-.183v-.733A.367.367,0,0,0,28.9,16H27.433a.367.367,0,0,0-.367.367V17.1h-2.2v-.733A.367.367,0,0,0,24.5,16H23.033a.367.367,0,0,0-.367.367V17.1h-2.2v-.733A.367.367,0,0,0,20.1,16H18.633a.367.367,0,0,0-.367.367V17.1h-2.2v-.733A.367.367,0,0,0,15.7,16H14.233a.367.367,0,0,0-.367.367V17.1h-2.2v-.733A.367.367,0,0,0,11.3,16H9.833a.367.367,0,0,0-.367.367V17.1H9.283A1.285,1.285,0,0,0,8,18.383V34.517A1.285,1.285,0,0,0,9.283,35.8h4.7a7.686,7.686,0,0,0,10.766,0h4.7a1.285,1.285,0,0,0,1.283-1.283V18.383A1.285,1.285,0,0,0,29.45,17.1Zm-1.65-.367h.733V18.2H27.8Zm-4.4,0h.733V18.2H23.4Zm-4.4,0h.733V18.2H19Zm-4.4,0h.733V18.2H14.6Zm-4.4,0h.733V18.2H10.2Zm9.167,20.533A6.967,6.967,0,1,1,26.333,30.3,6.975,6.975,0,0,1,19.367,37.267ZM30,34.517a.55.55,0,0,1-.55.55H25.41a7.7,7.7,0,1,0-12.086,0H9.283a.55.55,0,0,1-.55-.55V20.033H30ZM30,19.3H8.733v-.917a.55.55,0,0,1,.55-.55h.183v.733a.367.367,0,0,0,.367.367H11.3a.367.367,0,0,0,.367-.367v-.733h2.2v.733a.367.367,0,0,0,.367.367H15.7a.367.367,0,0,0,.367-.367v-.733h2.2v.733a.367.367,0,0,0,.367.367H20.1a.367.367,0,0,0,.367-.367v-.733h2.2v.733a.367.367,0,0,0,.367.367H24.5a.367.367,0,0,0,.367-.367v-.733h2.2v.733a.367.367,0,0,0,.367.367H28.9a.367.367,0,0,0,.367-.367v-.733h.183a.55.55,0,0,1,.55.55Z"/>
    <path id="Path_30510" data-name="Path 30510" d="M126.6,192.367a.367.367,0,0,0-.367-.367A6.24,6.24,0,0,0,120,198.233a.367.367,0,0,0,.733,0,5.506,5.506,0,0,1,5.5-5.5A.367.367,0,0,0,126.6,192.367Z" transform="translate(-106.867 -167.933)"/>
    <path id="Path_30511" data-name="Path 30511" d="M181.825,247.6l-1.037-1.037a.367.367,0,0,0-.519,0l-2.074,2.074-2.074-2.074a.367.367,0,0,0-.518,0l-1.037,1.037a.367.367,0,0,0,0,.518l2.074,2.074-2.074,2.074a.367.367,0,0,0,0,.519l1.037,1.037a.367.367,0,0,0,.518,0l2.074-2.074,2.074,2.074a.367.367,0,0,0,.519,0l1.037-1.037a.367.367,0,0,0,0-.519l-2.074-2.074,2.074-2.074A.367.367,0,0,0,181.825,247.6Zm-2.852,2.333a.367.367,0,0,0,0,.519l2.074,2.074-.519.519-2.074-2.074a.367.367,0,0,0-.519,0l-2.074,2.074-.519-.519,2.074-2.074a.367.367,0,0,0,0-.519l-2.074-2.074.519-.519,2.074,2.074a.367.367,0,0,0,.519,0l2.074-2.074.519.519Z" transform="translate(-158.828 -219.895)"/>
  </g>
</svg>
