<svg xmlns="http://www.w3.org/2000/svg" width="80.333" height="90.751" viewBox="0 0 80.333 90.751">
  <g id="delivery_box_provider" transform="translate(-29.372)">
    <g id="Group_957" data-name="Group 957" transform="translate(29.372)">
      <path id="Path_29527" data-name="Path 29527" d="M109.512,248.319l-6.352-12.476a1.773,1.773,0,0,0-1.58-.969H37.5a1.773,1.773,0,0,0-1.58.969l-6.352,12.476a1.773,1.773,0,0,0,1.58,2.578h2.214v31.3a1.773,1.773,0,0,0,1.773,1.773H103.94a1.773,1.773,0,0,0,1.773-1.773V250.9h2.219a1.774,1.774,0,0,0,1.581-2.578Zm-9.019-9.9,4.546,8.93H76.978l-4.546-8.93Zm-61.908,0H66.646L62.1,247.35H34.038Zm63.582,42.006H71.312V270.6a1.773,1.773,0,1,0-3.547,0v9.828H36.906V250.9H63.187a1.773,1.773,0,0,0,1.58-.969l3-5.889v10.634a1.773,1.773,0,1,0,3.547,0V244.039l3,5.889a1.773,1.773,0,0,0,1.58.969h26.276Z" transform="translate(-29.372 -193.222)" fill="#ffbe58"/>
      <path id="Path_29528" data-name="Path 29528" d="M115.289,436.98h-10.1a1.773,1.773,0,0,0,0,3.547h10.1a1.773,1.773,0,0,0,0-3.547Z" transform="translate(-90.287 -359.488)" fill="#ffbe58"/>
      <path id="Path_29529" data-name="Path 29529" d="M171.428,36.437a18.218,18.218,0,1,0-18.2-18.221A18.23,18.23,0,0,0,171.428,36.437Zm0-32.89a14.672,14.672,0,1,1-14.656,14.669A14.677,14.677,0,0,1,171.428,3.547Z" transform="translate(-131.261)" fill="#ffbe58"/>
      <path id="Path_29530" data-name="Path 29530" d="M208.132,72.528l4.72,4a1.773,1.773,0,0,0,1.147.421q.076,0,.151-.006a1.774,1.774,0,0,0,1.209-.629L224.242,65.7a1.773,1.773,0,1,0-2.72-2.276l-7.738,9.248-3.359-2.847a1.774,1.774,0,0,0-2.294,2.706Z" transform="translate(-175.916 -51.652)" fill="#ffbe58"/>
      <path id="Path_29531" data-name="Path 29531" d="M51.193,96.267h7.673a1.773,1.773,0,1,0,0-3.547H51.193a1.773,1.773,0,1,0,0,3.547Z" transform="translate(-45.865 -76.277)" fill="#ffbe58"/>
      <path id="Path_29532" data-name="Path 29532" d="M50.365,27.632l7.673,4.047a1.773,1.773,0,1,0,1.655-3.137L52.019,24.5a1.773,1.773,0,1,0-1.655,3.137Z" transform="translate(-45.863 -19.983)" fill="#ffbe58"/>
      <path id="Path_29533" data-name="Path 29533" d="M49.623,145a1.772,1.772,0,0,0,2.4.743l7.673-4.041a1.773,1.773,0,0,0-1.653-3.138L50.365,142.6A1.774,1.774,0,0,0,49.623,145Z" transform="translate(-45.863 -113.82)" fill="#ffbe58"/>
      <path id="Path_29534" data-name="Path 29534" d="M400.8,96.267h7.673a1.773,1.773,0,0,0,0-3.547H400.8a1.773,1.773,0,1,0,0,3.547Z" transform="translate(-333.477 -76.277)" fill="#ffbe58"/>
      <path id="Path_29535" data-name="Path 29535" d="M400.8,31.884a1.765,1.765,0,0,0,.826-.205l7.673-4.047a1.773,1.773,0,1,0-1.655-3.137l-7.673,4.047a1.774,1.774,0,0,0,.829,3.342Z" transform="translate(-333.476 -19.982)" fill="#ffbe58"/>
      <path id="Path_29536" data-name="Path 29536" d="M399.976,141.7l7.673,4.041A1.773,1.773,0,0,0,409.3,142.6l-7.672-4.041a1.773,1.773,0,0,0-1.653,3.138Z" transform="translate(-333.475 -113.818)" fill="#ffbe58"/>
      <path id="Path_29537" data-name="Path 29537" d="M247.646,381.423a1.773,1.773,0,0,0-1.773,1.773v.01a1.773,1.773,0,1,0,1.773-1.783Z" transform="translate(-207.479 -313.783)" fill="#ffbe58"/>
    </g>
  </g>
</svg>
