<svg xmlns="http://www.w3.org/2000/svg" width="22" height="20.927" viewBox="0 0 22 20.927">
  <g id="edit_provider" transform="translate(-3 -2.878)">
    <path id="Path_29214" data-name="Path 29214" d="M12,20h7.086" transform="translate(4.914 2.805)" stroke="#000" stroke-linejoin="round" stroke-width="2"/>
    <g id="Path_29215" data-name="Path 29215" stroke-linecap="round" stroke-linejoin="round">
      <path d="M 4.379976749420166 22.43318176269531 L 5.145078659057617 19.42869567871094 L 20.50060844421387 4.351550579071045 C 20.81265830993652 4.047210693359375 21.22774887084961 3.878310680389404 21.6669979095459 3.878310680389404 C 22.10624885559082 3.878310680389404 22.52133750915527 4.047210693359375 22.8357982635498 4.35390043258667 C 23.13563919067383 4.64607048034668 23.30741882324219 5.053310394287109 23.30741882324219 5.471500396728516 C 23.30741882324219 5.889690399169922 23.13563919067383 6.29693078994751 22.83610916137695 6.588790416717529 L 7.473453044891357 21.67690086364746 L 4.379976749420166 22.43318176269531 Z" stroke="none"/>
      <path d="M 21.6669979095459 4.878311157226563 C 21.56484413146973 4.878311157226563 21.3682861328125 4.903068542480469 21.19778442382813 5.068462371826172 L 6.045158386230469 19.94638252258301 L 5.759952545166016 21.06636238098145 L 6.968879699707031 20.77080917358398 L 22.13258743286133 5.878089904785156 C 22.13446807861328 5.876251220703125 22.13634872436523 5.874420166015625 22.13822937011719 5.872581481933594 C 22.24574851989746 5.767810821533203 22.30741882324219 5.621620178222656 22.30741882324219 5.471500396728516 C 22.30741882324219 5.321380615234375 22.24574851989746 5.175189971923828 22.13759803771973 5.069801330566406 C 21.96675872802734 4.903190612792969 21.76941871643066 4.878311157226563 21.6669979095459 4.878311157226563 M 21.6669979095459 2.878311157226563 C 22.34085083007813 2.878311157226563 23.01470375061035 3.131540298461914 23.53399848937988 3.63800048828125 C 24.02850914001465 4.11985969543457 24.30741882324219 4.781040191650391 24.30741882324219 5.471500396728516 C 24.30741882324219 6.161960601806641 24.02850914001465 6.823141098022461 23.53399848937988 7.305000305175781 L 7.977998733520508 22.58300018310547 L 2.999998092651367 23.80000114440918 L 4.244998931884766 18.91100120544434 L 19.79999923706055 3.63800048828125 C 20.31929397583008 3.131540298461914 20.99314498901367 2.878311157226563 21.6669979095459 2.878311157226563 Z" stroke="none" fill="#000"/>
    </g>
  </g>
</svg>
