<svg xmlns="http://www.w3.org/2000/svg" width="27.633" height="26.346" viewBox="0 0 27.633 26.346">
  <g id="email_gray_english" transform="matrix(0.819, -0.574, 0.574, 0.819, 0, 12.619)">
    <g id="Group_4840" data-name="Group 4840" transform="translate(0 0)">
      <path id="Path_2829" data-name="Path 2829" d="M20.066,0H1.934A1.937,1.937,0,0,0,0,1.934V14.824a1.937,1.937,0,0,0,1.934,1.934H20.066A1.937,1.937,0,0,0,22,14.824V1.934A1.937,1.937,0,0,0,20.066,0ZM19.8,1.289l-8.758,8.758L2.207,1.289ZM1.289,14.557V2.194L7.5,8.349Zm.911.911L8.413,9.257l2.177,2.158a.645.645,0,0,0,.91,0L13.621,9.29,19.8,15.469Zm18.51-.912L14.533,8.379,20.711,2.2Z" transform="translate(0 0)"/>
    </g>
  </g>
</svg>
