<svg xmlns="http://www.w3.org/2000/svg" width="22" height="15.125" viewBox="0 0 22 15.125">
  <g id="email_provider" transform="translate(0 -80)">
    <g id="Group_716" data-name="Group 716" transform="translate(0 80)">
      <g id="Group_715" data-name="Group 715" transform="translate(0 0)">
        <path id="Path_29300" data-name="Path 29300" d="M20.625,80H1.375A1.375,1.375,0,0,0,0,81.375v.782l11,4.659,11-4.66v-.781A1.376,1.376,0,0,0,20.625,80Z" transform="translate(0 -80)"/>
      </g>
    </g>
    <g id="Group_718" data-name="Group 718" transform="translate(0 83.651)">
      <g id="Group_717" data-name="Group 717" transform="translate(0 0)">
        <path id="Path_29301" data-name="Path 29301" d="M11.268,169.5a.681.681,0,0,1-.536,0L0,164.96v10.1a1.375,1.375,0,0,0,1.375,1.375h19.25A1.376,1.376,0,0,0,22,175.059v-10.1Z" transform="translate(0 -164.96)"/>
      </g>
    </g>
  </g>
</svg>
