<svg id="email_gray" xmlns="http://www.w3.org/2000/svg" width="22" height="14.401" viewBox="0 0 22 14.401">
  <g id="Group_23" data-name="Group 23">
    <path id="Path_25" data-name="Path 25" d="M.9,88.427H13.923a.327.327,0,0,1,0,.654H.9a.246.246,0,0,0-.219.135l.027.016L11.1,96.125l3.319-2.2h0l6.927-4.594v0a.246.246,0,0,0-.246-.246H16.173a.327.327,0,0,1,0-.654H21.1a.9.9,0,0,1,.9.9v.18h0v12.421a.9.9,0,0,1-.9.9H.9a.9.9,0,0,1-.9-.9v-12.6A.9.9,0,0,1,.9,88.427Zm17.093,13.747H21.1a.246.246,0,0,0,.246-.246V90.114l-6.353,4.213Zm-.716,0L14.435,94.7l-3.154,2.092a.327.327,0,0,1-.361,0l-3.1-2.057-2.843,7.442h12.3ZM.654,101.929a.246.246,0,0,0,.246.246H4.274l2.985-7.812L.654,89.981v11.948Z" transform="translate(0 -88.427)"/>
  </g>
</svg>
