<svg id="facebook" xmlns="http://www.w3.org/2000/svg" width="21.524" height="21.524" viewBox="0 0 21.524 21.524">
  <g id="Group_612" data-name="Group 612">
    <path id="Path_29175" data-name="Path 29175" d="M20.683,14.8a.841.841,0,0,0,.841-.841V3.363A3.367,3.367,0,0,0,18.161,0H3.363A3.367,3.367,0,0,0,0,3.363v14.8a3.367,3.367,0,0,0,3.363,3.363h14.8a3.367,3.367,0,0,0,3.363-3.363.841.841,0,1,0-1.682,0,1.683,1.683,0,0,1-1.682,1.682H13.747V12.528h1.892a.841.841,0,0,0,0-1.682H13.747V8.534a1.683,1.683,0,0,1,1.682-1.682h.42a.841.841,0,0,0,0-1.682h-.42a3.367,3.367,0,0,0-3.363,3.363v2.312H10.174a.841.841,0,0,0,0,1.682h1.892v7.315h-8.7a1.683,1.683,0,0,1-1.682-1.682V3.363A1.683,1.683,0,0,1,3.363,1.682h14.8a1.683,1.683,0,0,1,1.682,1.682V13.957A.841.841,0,0,0,20.683,14.8Z"/>
  </g>
</svg>
