<svg xmlns="http://www.w3.org/2000/svg" width="22" height="19.113" viewBox="0 0 22 19.113">
  <g id="fastdelivery" transform="translate(0 -33.598)">
    <g id="Group_5274" data-name="Group 5274" transform="translate(0 33.598)">
      <path id="Path_30504" data-name="Path 30504" d="M144.116,254.277a3.945,3.945,0,1,0,3.946,3.945A3.949,3.949,0,0,0,144.116,254.277Zm0,7.032a3.086,3.086,0,1,1,3.087-3.087A3.09,3.09,0,0,1,144.116,261.309Z" transform="translate(-134.148 -244.795)"/>
      <path id="Path_30505" data-name="Path 30505" d="M223.643,296.478h-.807V295.13a.43.43,0,1,0-.859,0v1.778a.43.43,0,0,0,.43.43h1.236a.43.43,0,0,0,0-.859Z" transform="translate(-212.439 -283.481)"/>
      <path id="Path_30506" data-name="Path 30506" d="M20.734,33.6H8.677A1.268,1.268,0,0,0,7.41,34.865V41.95a5.711,5.711,0,0,0-1.389.989H4.28a.43.43,0,0,0,0,.859H5.292a5.678,5.678,0,0,0-.539.969H2.71a.43.43,0,0,0,0,.859H4.458A5.655,5.655,0,0,0,4.3,46.6H.43a.43.43,0,1,0,0,.859H4.3a5.655,5.655,0,0,0,.158.969H2.71a.43.43,0,0,0,0,.859H4.752a5.683,5.683,0,0,0,.539.969H4.28a.43.43,0,0,0,0,.859H6.02a5.681,5.681,0,0,0,9.514-2.924h5.2A1.268,1.268,0,0,0,22,46.92V34.865A1.268,1.268,0,0,0,20.734,33.6Zm-7.59.859h3.122v3.9l-1.316-.917a.43.43,0,0,0-.491,0l-1.315.917v-3.9ZM9.968,51.851a4.825,4.825,0,1,1,4.826-4.826,4.831,4.831,0,0,1-4.826,4.826ZM21.141,46.92a.408.408,0,0,1-.407.407H15.645q.008-.15.008-.3A5.686,5.686,0,0,0,8.27,41.6V34.865a.408.408,0,0,1,.407-.407h3.608v4.719a.43.43,0,0,0,.675.352L14.7,38.313l1.746,1.216a.43.43,0,0,0,.675-.353V34.457h3.608a.408.408,0,0,1,.407.407V46.92Z" transform="translate(0 -33.598)"/>
      <path id="Path_30507" data-name="Path 30507" d="M32.092,251.848h.732a.43.43,0,0,0,0-.859h-.732a.43.43,0,0,0,0,.859Z" transform="translate(-30.302 -241.648)"/>
      <path id="Path_30508" data-name="Path 30508" d="M32.824,421.183h-.732a.43.43,0,1,0,0,.859h.732a.43.43,0,1,0,0-.859Z" transform="translate(-30.302 -404.529)"/>
    </g>
  </g>
</svg>
