<svg xmlns="http://www.w3.org/2000/svg" width="24.351" height="22" viewBox="0 0 24.351 22">
  <g id="fast_icon_order" transform="translate(-8.001 -32)">
    <path id="Path_30663" data-name="Path 30663" d="M353.569,305.246v-.853a.393.393,0,1,0-.785,0v.853a1.178,1.178,0,1,0,.785,0Zm-.393,1.5a.393.393,0,1,1,.393-.393A.393.393,0,0,1,353.176,306.749Z" transform="translate(-327.109 -258.646)"/>
    <path id="Path_30664" data-name="Path 30664" d="M284.713,256a4.713,4.713,0,1,0,4.713,4.713A4.713,4.713,0,0,0,284.713,256Zm0,8.641a3.928,3.928,0,1,1,3.928-3.928A3.928,3.928,0,0,1,284.713,264.641Z" transform="translate(-258.646 -213.003)"/>
    <path id="Path_30665" data-name="Path 30665" d="M30.492,43.252l.681-.681.311.312a.393.393,0,1,0,.556-.556l-1.178-1.178a.393.393,0,1,0-.556.556l.312.311-.718.718a6.251,6.251,0,0,0-3.44-1.295s0-.008,0-.013v-.393h.786a.393.393,0,0,0,.393-.393V39.462a.393.393,0,0,0-.393-.393H24.889a.393.393,0,0,0-.393.393v1.178a.393.393,0,0,0,.393.393h.786v.393s0,.008,0,.013a6.237,6.237,0,0,0-1.887.415l.628-3.963h2.83a.393.393,0,0,0,0-.786H24.54l.062-.393h6.522a.393.393,0,0,0,0-.786h-6.4l.125-.786h2.787a.393.393,0,1,0,0-.786H24.976l.3-1.9A.393.393,0,0,0,24.889,32H9.964a.392.392,0,0,0-.39.35L8,46.489a.392.392,0,0,0,.39.436H19.832a6.285,6.285,0,1,0,10.659-3.673Zm-5.21-3v-.393h1.571v.393ZM15.005,32.786h4.7l-1.387,7.631-2.267-1.3a.394.394,0,0,0-.39,0l-2.017,1.153Zm4.9,13.354H8.832l1.484-13.354h3.891L12.72,40.963a.393.393,0,0,0,.581.411l2.554-1.46,2.554,1.46a.393.393,0,0,0,.581-.271L20.5,32.786h3.925l-.249,1.571h-.862a.393.393,0,1,0,0,.786h.738l-.125.786H22.925a.393.393,0,0,0,0,.786h.882l-.062.393h-.819a.393.393,0,1,0,0,.786h.7l-.69,4.357c0,.007,0,.013,0,.02a6.311,6.311,0,0,0-2.948,3.879.418.418,0,0,0-.079-.008Zm6.166,7.07a5.5,5.5,0,1,1,5.5-5.5A5.5,5.5,0,0,1,26.067,53.209Z" transform="translate(0 0)"/>
  </g>
</svg>
