<svg xmlns="http://www.w3.org/2000/svg" width="25.324" height="22" viewBox="0 0 25.324 22">
  <g id="fast_delivery" transform="translate(0 -33.598)">
    <g id="Group_5274" data-name="Group 5274" transform="translate(0 33.598)">
      <path id="Path_30504" data-name="Path 30504" d="M144.712,254.277a4.542,4.542,0,1,0,4.542,4.541A4.546,4.546,0,0,0,144.712,254.277Zm0,8.094a3.552,3.552,0,1,1,3.553-3.553A3.556,3.556,0,0,1,144.712,262.371Z" transform="translate(-133.238 -243.362)"/>
      <path id="Path_30505" data-name="Path 30505" d="M223.895,296.747h-.928v-1.552a.495.495,0,1,0-.989,0v2.047a.5.5,0,0,0,.495.495h1.423a.495.495,0,0,0,0-.989Z" transform="translate(-210.998 -281.786)"/>
      <path id="Path_30506" data-name="Path 30506" d="M23.866,33.6H9.987A1.459,1.459,0,0,0,8.53,35.056v8.156a6.574,6.574,0,0,0-1.6,1.139h-2a.495.495,0,0,0,0,.989H6.091a6.536,6.536,0,0,0-.621,1.115H3.119a.495.495,0,0,0,0,.989H5.131a6.509,6.509,0,0,0-.182,1.115H.495a.495.495,0,1,0,0,.989H4.949a6.51,6.51,0,0,0,.182,1.115H3.119a.495.495,0,1,0,0,.989h2.35a6.541,6.541,0,0,0,.62,1.115H4.926a.495.495,0,0,0,0,.989h2A6.54,6.54,0,0,0,17.88,50.391h5.986a1.459,1.459,0,0,0,1.458-1.458V35.056A1.459,1.459,0,0,0,23.866,33.6Zm-8.736.989h3.594v4.484l-1.515-1.055a.5.5,0,0,0-.566,0L15.13,39.071V34.587ZM11.474,54.609a5.554,5.554,0,1,1,5.555-5.555,5.561,5.561,0,0,1-5.555,5.555Zm12.861-5.676a.469.469,0,0,1-.469.469H18.009q.009-.173.009-.348a6.545,6.545,0,0,0-8.5-6.245V35.056a.469.469,0,0,1,.469-.469h4.153v5.432a.495.495,0,0,0,.777.406l2.008-1.4,2.009,1.4a.495.495,0,0,0,.777-.406V34.587h4.153a.469.469,0,0,1,.469.469V48.933Z" transform="translate(0 -33.598)"/>
      <path id="Path_30507" data-name="Path 30507" d="M32.157,251.978H33a.495.495,0,1,0,0-.989h-.843a.495.495,0,1,0,0,.989Z" transform="translate(-30.096 -240.237)"/>
      <path id="Path_30508" data-name="Path 30508" d="M33,421.183h-.843a.495.495,0,1,0,0,.989H33a.495.495,0,1,0,0-.989Z" transform="translate(-30.096 -402.013)"/>
    </g>
  </g>
</svg>
