<svg xmlns="http://www.w3.org/2000/svg" width="22" height="22" viewBox="0 0 22 22">
  <g id="filter_dashbored" transform="translate(0 0)">
    <path id="Path_30666" data-name="Path 30666" d="M18.064,0H3.936A3.94,3.94,0,0,0,0,3.936V18.064A3.94,3.94,0,0,0,3.936,22H18.064A3.94,3.94,0,0,0,22,18.064V3.936A3.94,3.94,0,0,0,18.064,0Zm2.647,18.064a2.65,2.65,0,0,1-2.647,2.647H3.936a2.65,2.65,0,0,1-2.647-2.647V3.936A2.65,2.65,0,0,1,3.936,1.289H18.064a2.65,2.65,0,0,1,2.647,2.647Z"/>
    <path id="Path_30667" data-name="Path 30667" d="M80.1,81.715H70.283a2.025,2.025,0,0,0-3.839,0H64.912a.645.645,0,0,0,0,1.289h1.532a2.025,2.025,0,0,0,3.839,0H80.1a.645.645,0,1,0,0-1.289ZM68.363,83.1a.736.736,0,1,1,.736-.736A.737.737,0,0,1,68.363,83.1Z" transform="translate(-61.506 -76.882)"/>
    <path id="Path_30668" data-name="Path 30668" d="M80.1,210.248H78.567a2.025,2.025,0,0,0-3.839,0H64.912a.645.645,0,1,0,0,1.289h9.817a2.025,2.025,0,0,0,3.839,0H80.1a.645.645,0,1,0,0-1.289Zm-3.452,1.381a.736.736,0,1,1,.736-.736A.737.737,0,0,1,76.648,211.628Z" transform="translate(-61.506 -199.892)"/>
    <path id="Path_30669" data-name="Path 30669" d="M80.1,338.781H73.044a2.025,2.025,0,0,0-3.839,0H64.912a.645.645,0,0,0,0,1.289h4.294a2.025,2.025,0,0,0,3.839,0H80.1a.645.645,0,1,0,0-1.289Zm-8.975,1.381a.736.736,0,1,1,.736-.736A.737.737,0,0,1,71.125,340.161Z" transform="translate(-61.506 -322.902)"/>
  </g>
</svg>
