<svg xmlns="http://www.w3.org/2000/svg" width="22" height="19.512" viewBox="0 0 22 19.512">
  <g id="_finsh_icon_order" data-name=" finsh_icon_order" transform="translate(-6.999 -35.312)">
    <path id="Path_30546" data-name="Path 30546" d="M159.327,133h-1.159c-.1,0-.168.032-.168.122v2.155c0,.09.089.136.2.136s.2-.047.2-.136v-.908h.521c.093,0,.133-.1.133-.173s-.047-.18-.133-.18H158.4v-.663h.929c.086,0,.133-.077.133-.18S159.42,133,159.327,133Z" transform="translate(-144.33 -93.372)"/>
    <path id="Path_30547" data-name="Path 30547" d="M196.2,132.67c-.11,0-.2.04-.2.133v2.159c0,.09.089.136.2.136s.2-.047.2-.136V132.8C196.4,132.71,196.305,132.67,196.2,132.67Z" transform="translate(-180.652 -93.057)"/>
    <path id="Path_30548" data-name="Path 30548" d="M215.414,132.67c-.11,0-.221.04-.221.133v1.335l-.637-1.239c-.1-.2-.175-.229-.331-.229-.11,0-.225.043-.225.136v2.155c0,.09.111.136.221.136s.221-.047.221-.136v-1.335l.72,1.335a.265.265,0,0,0,.253.136c.106,0,.22-.047.22-.136V132.8C215.635,132.71,215.52,132.67,215.414,132.67Z" transform="translate(-197.857 -93.057)"/>
    <path id="Path_30549" data-name="Path 30549" d="M260.221,132.67c-.11,0-.221.04-.221.133v2.159c0,.09.111.136.221.136s.221-.047.221-.136V132.8C260.442,132.71,260.327,132.67,260.221,132.67Z" transform="translate(-241.824 -93.057)"/>
    <path id="Path_30550" data-name="Path 30550" d="M276.569,132.918c0-.159.136-.256.375-.256.279,0,.355.126.458.126.12,0,.173-.153.173-.229,0-.219-.435-.266-.631-.266-.382,0-.807.169-.807.664,0,.787,1.066.634,1.066,1.133,0,.2-.173.289-.372.289-.339,0-.429-.256-.565-.256-.1,0-.189.139-.189.232,0,.193.332.412.767.412a.7.7,0,0,0,.79-.721C277.635,133.187,276.569,133.33,276.569,132.918Z" transform="translate(-257.192 -92.698)"/>
    <path id="Path_30551" data-name="Path 30551" d="M319.392,132.67c-.11,0-.2.04-.2.133v.854h-.751V132.8c0-.093-.115-.133-.221-.133s-.221.04-.221.133v2.159c0,.09.111.136.221.136s.221-.047.221-.136v-.952h.751v.952c0,.09.089.136.2.136s.2-.047.2-.136V132.8C319.59,132.71,319.5,132.67,319.392,132.67Z" transform="translate(-297.262 -93.057)"/>
    <path id="Path_30552" data-name="Path 30552" d="M27.939,53.2V36.085a.773.773,0,0,0-1.546,0v.579A44.215,44.215,0,0,1,18,37.471a44.207,44.207,0,0,1-8.395-.807v-.579a.773.773,0,0,0-1.546,0V53.2A1.145,1.145,0,0,0,7,54.332v.215a.273.273,0,0,0,.261.278H10.41a.268.268,0,0,0,.255-.278v-.215A1.113,1.113,0,0,0,9.605,53.2V43.431A44.754,44.754,0,0,0,18,44.222h.022a44.793,44.793,0,0,0,8.372-.784V53.2a1.113,1.113,0,0,0-1.06,1.132v.215a.268.268,0,0,0,.255.278h3.151A.273.273,0,0,0,29,54.546v-.215A1.145,1.145,0,0,0,27.939,53.2Zm-1.016-9.864a.264.264,0,0,0,.177-.243V36.851a.273.273,0,0,0-.106-.205.261.261,0,0,0-.071-.041v-.52a.243.243,0,0,1,.486,0v17.1h-.486ZM10.143,54.294H7.527a.623.623,0,0,1,.6-.574H9.541A.623.623,0,0,1,10.143,54.294Zm7.878-10.6H18a44.362,44.362,0,0,1-8.571-.825V39.981a.265.265,0,1,0-.53,0v3.068a.3.3,0,0,0,.177.268V53.19H8.589v-17.1a.243.243,0,0,1,.486,0v.52a.258.258,0,0,0-.071.04.274.274,0,0,0-.106.205v1.363a.265.265,0,1,0,.53,0v-1.04A45.027,45.027,0,0,0,18,38a45.026,45.026,0,0,0,8.57-.827v5.7A44.529,44.529,0,0,1,18.021,43.692Zm7.833,10.6a.623.623,0,0,1,.6-.574h1.412a.623.623,0,0,1,.6.574Z"/>
    <path id="Path_30553" data-name="Path 30553" d="M80,379.476a.265.265,0,0,0,.53,0v-.839a.265.265,0,0,0-.53,0Z" transform="translate(-69.776 -327.905)"/>
    <path id="Path_30554" data-name="Path 30554" d="M80,278.507a.265.265,0,0,0,.53,0V274.9a.265.265,0,0,0-.53,0Z" transform="translate(-69.776 -228.751)"/>
    <path id="Path_30555" data-name="Path 30555" d="M80.265,248.185a.265.265,0,0,0,.265-.265v-.212a.265.265,0,0,0-.53,0v.212A.265.265,0,0,0,80.265,248.185Z" transform="translate(-69.776 -202.759)"/>
  </g>
</svg>
