<svg xmlns="http://www.w3.org/2000/svg" width="22" height="22" viewBox="0 0 22 22">
  <path id="gray_like" d="M11,22a1.211,1.211,0,0,1-.85-.359c-.889-.873-1.746-1.694-2.5-2.418l0,0a49.319,49.319,0,0,1-5.462-5.762A9.852,9.852,0,0,1,0,7.432,8.306,8.306,0,0,1,1.745,2.153,5.636,5.636,0,0,1,6.146,0,5.158,5.158,0,0,1,9.6,1.341,7.628,7.628,0,0,1,11,2.981a7.629,7.629,0,0,1,1.4-1.64A5.158,5.158,0,0,1,15.854,0a5.636,5.636,0,0,1,4.4,2.153A8.305,8.305,0,0,1,22,7.432a9.851,9.851,0,0,1-2.182,6.024,49.314,49.314,0,0,1-5.462,5.762c-.757.725-1.616,1.547-2.506,2.423A1.212,1.212,0,0,1,11,22ZM6.146,1.449A4.421,4.421,0,0,0,2.693,3.135a6.761,6.761,0,0,0-1.4,4.3,8.278,8.278,0,0,0,1.886,5.1A48.517,48.517,0,0,0,8.48,18.116l0,0c.759.727,1.619,1.551,2.514,2.431.9-.882,1.762-1.707,2.523-2.435a48.529,48.529,0,0,0,5.305-5.584,8.279,8.279,0,0,0,1.885-5.1,6.761,6.761,0,0,0-1.4-4.3,4.421,4.421,0,0,0-3.453-1.686,3.985,3.985,0,0,0-2.668,1.038A6.879,6.879,0,0,0,11.7,4.421a.77.77,0,0,1-1.4,0A6.873,6.873,0,0,0,8.814,2.487,3.985,3.985,0,0,0,6.146,1.449Zm0,0" transform="translate(0 0)"/>
</svg>
