<svg xmlns="http://www.w3.org/2000/svg" xmlns:xlink="http://www.w3.org/1999/xlink" width="93.798" height="93.798" viewBox="0 0 93.798 93.798">
  <defs>
    <filter id="Path_30108" x="15.693" y="0" width="78.105" height="93.798" filterUnits="userSpaceOnUse">
      <feOffset dy="3" input="SourceAlpha"/>
      <feGaussianBlur stdDeviation="3" result="blur"/>
      <feFlood flood-opacity="0.161"/>
      <feComposite operator="in" in2="blur"/>
      <feComposite in="SourceGraphic"/>
    </filter>
    <filter id="Path_30109" x="0" y="0" width="55.899" height="93.798" filterUnits="userSpaceOnUse">
      <feOffset dy="3" input="SourceAlpha"/>
      <feGaussianBlur stdDeviation="3" result="blur-2"/>
      <feFlood flood-opacity="0.161"/>
      <feComposite operator="in" in2="blur-2"/>
      <feComposite in="SourceGraphic"/>
    </filter>
  </defs>
  <g id="Group_1919" data-name="Group 1919" transform="translate(2746.899 2751.899)">
    <g id="top_rate">
      <g id="crown" transform="translate(-2737.899 -2745.899)">
        <g transform="matrix(1, 0, 0, 1, -9, -6)" filter="url(#Path_30108)">
          <path id="Path_30108-2" data-name="Path 30108" d="M166.105,37.9a11.138,11.138,0,0,0-2.518-7.038,11.093,11.093,0,0,0-5.386-13A11.093,11.093,0,0,0,148.248,7.9a11.092,11.092,0,0,0-13-5.386A11.138,11.138,0,0,0,128.206,0L106,37.9l22.206,37.9a11.138,11.138,0,0,0,7.038-2.518,11.093,11.093,0,0,0,13-5.386A11.093,11.093,0,0,0,158.2,57.94a11.093,11.093,0,0,0,5.386-13,11.135,11.135,0,0,0,2.518-7.037Zm0,0" transform="translate(-81.31 6)" fill="#e6ae00"/>
        </g>
        <g transform="matrix(1, 0, 0, 1, -9, -6)" filter="url(#Path_30109)">
          <path id="Path_30109-2" data-name="Path 30109" d="M30.861,2.519a11.093,11.093,0,0,0-13,5.386A11.093,11.093,0,0,0,7.9,17.858a11.093,11.093,0,0,0-5.386,13,11.092,11.092,0,0,0,0,14.075,11.093,11.093,0,0,0,5.386,13,11.093,11.093,0,0,0,9.952,9.952,11.093,11.093,0,0,0,13,5.387A11.141,11.141,0,0,0,37.9,75.8V0a11.138,11.138,0,0,0-7.038,2.518Zm0,0" transform="translate(9 6)" fill="#f3be16"/>
        </g>
        <path id="Path_30111" data-name="Path 30111" d="M76,102.648A26.648,26.648,0,0,0,102.648,129.3V76A26.648,26.648,0,0,0,76,102.648Zm0,0" transform="translate(-64.749 -64.749)" fill="#ffcc2e"/>
        <path id="Path_30112" data-name="Path 30112" d="M102.648,102.648A26.648,26.648,0,0,1,76,129.3V76A26.648,26.648,0,0,1,102.648,102.648Zm0,0" transform="translate(-38.279 -64.749)" fill="#ffcc2e"/>
      </g>
      <text id="الأعلي_تقيم" data-name="الأعلي
 تقيم" transform="translate(-2702 -2716)" fill="#fff" font-size="13" font-family="Fairuz-Black, Fairuz" font-weight="800"><tspan x="-17.246" y="0">الأعلي</tspan><tspan y="0"></tspan><tspan x="-16.9" y="25"> </tspan><tspan y="25">تقيم</tspan></text>
    </g>
  </g>
</svg>
