<svg xmlns="http://www.w3.org/2000/svg" width="13.933" height="22" viewBox="0 0 13.933 22">
  <g id="hourglass" transform="translate(-93.867)">
    <g id="Group_5296" data-name="Group 5296" transform="translate(93.867)">
      <g id="Group_5295" data-name="Group 5295" transform="translate(0)">
        <path id="Path_30539" data-name="Path 30539" d="M106.7,0H94.967a1.1,1.1,0,1,0,0,2.2H106.7a1.1,1.1,0,1,0,0-2.2Zm0,1.467H94.967a.367.367,0,1,1,0-.733H106.7a.367.367,0,1,1,0,.733Z" transform="translate(-93.867)"/>
      </g>
    </g>
    <g id="Group_5298" data-name="Group 5298" transform="translate(93.867 19.8)">
      <g id="Group_5297" data-name="Group 5297" transform="translate(0)">
        <path id="Path_30540" data-name="Path 30540" d="M106.7,460.8H94.967a1.1,1.1,0,1,0,0,2.2H106.7a1.1,1.1,0,1,0,0-2.2Zm0,1.467H94.967a.367.367,0,1,1,0-.733H106.7a.367.367,0,1,1,0,.733Z" transform="translate(-93.867 -460.8)"/>
      </g>
    </g>
    <g id="Group_5300" data-name="Group 5300" transform="translate(95.334 1.467)">
      <g id="Group_5299" data-name="Group 5299" transform="translate(0)">
        <path id="Path_30541" data-name="Path 30541" d="M136.113,42.306A9.793,9.793,0,0,0,139,35.336V34.5a.367.367,0,0,0-.367-.367H128.367A.367.367,0,0,0,128,34.5v.836a9.793,9.793,0,0,0,2.887,6.97l.368.369a1.4,1.4,0,0,1,0,1.985l-.368.368A9.792,9.792,0,0,0,128,52v.836a.367.367,0,0,0,.367.367h10.267a.367.367,0,0,0,.367-.367V52a9.793,9.793,0,0,0-2.887-6.97l-.368-.368a1.4,1.4,0,0,1,0-1.985Zm-.887-.15a2.137,2.137,0,0,0,0,3.022l.368.368A9.064,9.064,0,0,1,138.267,52v.469h-9.533V52a9.065,9.065,0,0,1,2.672-6.452l.368-.368a2.137,2.137,0,0,0,0-3.022l-.368-.369a9.064,9.064,0,0,1-2.672-6.452v-.469h9.533v.469a9.064,9.064,0,0,1-2.672,6.452Z" transform="translate(-128 -34.134)"/>
      </g>
    </g>
    <g id="Group_5302" data-name="Group 5302" transform="translate(97.901 4.914)">
      <g id="Group_5301" data-name="Group 5301" transform="translate(0)">
        <path id="Path_30542" data-name="Path 30542" d="M193.773,115.626a.522.522,0,0,0-.532-.311,5.319,5.319,0,0,1-3.091-.652,1.567,1.567,0,0,0-1.442-.212,1.445,1.445,0,0,0-.927,1,1.2,1.2,0,0,0-.039.2.387.387,0,0,0,.046.214,8.151,8.151,0,0,0,1.31,1.822l.368.368a2.849,2.849,0,0,1,.841,2.03.367.367,0,0,0,.733,0,2.852,2.852,0,0,1,.84-2.03l.369-.369c.091-.09.209-.2.338-.323C193.536,116.469,193.935,116.035,193.773,115.626Zm-1.687,1.2c-.136.128-.26.245-.354.339l-.369.369a3.6,3.6,0,0,0-.689.96,3.6,3.6,0,0,0-.689-.96l-.368-.369a7.033,7.033,0,0,1-1.123-1.545.717.717,0,0,1,.458-.478.834.834,0,0,1,.767.115,5.606,5.606,0,0,0,3.153.786C192.646,116.3,192.29,116.633,192.085,116.826Z" transform="translate(-187.741 -114.362)"/>
      </g>
    </g>
    <g id="Group_5304" data-name="Group 5304" transform="translate(96.824 15.4)">
      <g id="Group_5303" data-name="Group 5303" transform="translate(0)">
        <path id="Path_30543" data-name="Path 30543" d="M170.713,361.671a3.177,3.177,0,0,0-1.12-2.254c-.074-.077-.152-.158-.232-.243a2.453,2.453,0,0,0-1.785-.774h-1.742a2.454,2.454,0,0,0-1.785.774c-.08.085-.157.165-.231.242a3.176,3.176,0,0,0-1.12,2.255.366.366,0,0,0,.366.395h7.285a.367.367,0,0,0,.366-.4Zm-7.233-.338a2.549,2.549,0,0,1,.865-1.407c.077-.08.157-.163.239-.251a1.716,1.716,0,0,1,1.25-.542h1.742a1.719,1.719,0,0,1,1.25.542c.083.089.162.171.24.252a2.552,2.552,0,0,1,.865,1.407Z" transform="translate(-162.696 -358.4)"/>
      </g>
    </g>
    <g id="Group_5306" data-name="Group 5306" transform="translate(100.456 11.733)">
      <g id="Group_5305" data-name="Group 5305" transform="translate(0)">
        <path id="Path_30544" data-name="Path 30544" d="M247.578,273.067a.367.367,0,0,0-.367.367v.367a.367.367,0,1,0,.733,0v-.367A.367.367,0,0,0,247.578,273.067Z" transform="translate(-247.211 -273.067)"/>
      </g>
    </g>
    <g id="Group_5308" data-name="Group 5308" transform="translate(100.456 13.567)">
      <g id="Group_5307" data-name="Group 5307" transform="translate(0)">
        <path id="Path_30545" data-name="Path 30545" d="M247.578,315.733a.367.367,0,0,0-.367.367v.367a.367.367,0,0,0,.733,0V316.1A.367.367,0,0,0,247.578,315.733Z" transform="translate(-247.211 -315.733)"/>
      </g>
    </g>
  </g>
</svg>
