<svg xmlns="http://www.w3.org/2000/svg" width="23.779" height="26.676" viewBox="0 0 23.779 26.676">
  <g id="icon_one_provide_english" transform="translate(0 6.278) rotate(-22)">
    <path id="Path_2824" data-name="Path 2824" d="M16.569,5.345,11.413.189A.645.645,0,0,0,10.957,0H1.934A1.936,1.936,0,0,0,0,1.934V20.066A1.936,1.936,0,0,0,1.934,22h12.89a1.936,1.936,0,0,0,1.934-1.934V5.8A.65.65,0,0,0,16.569,5.345ZM11.6,2.2l2.956,2.956H12.246a.645.645,0,0,1-.645-.645Zm3.223,18.51H1.934a.645.645,0,0,1-.645-.645V1.934a.645.645,0,0,1,.645-.645h8.379V4.512a1.936,1.936,0,0,0,1.934,1.934h3.223V20.066A.645.645,0,0,1,14.824,20.711Z" transform="translate(0 0)"/>
    <path id="Path_2825" data-name="Path 2825" d="M8.379,0H.645a.645.645,0,0,0,0,1.289H8.379A.645.645,0,0,0,8.379,0Z" transform="translate(3.867 9.109)"/>
    <path id="Path_2826" data-name="Path 2826" d="M8.379,0H.645a.645.645,0,1,0,0,1.289H8.379A.645.645,0,0,0,8.379,0Z" transform="translate(3.867 11.687)"/>
    <path id="Path_2827" data-name="Path 2827" d="M8.379,0H.645a.645.645,0,1,0,0,1.289H8.379A.645.645,0,0,0,8.379,0Z" transform="translate(3.867 14.266)"/>
    <path id="Path_2828" data-name="Path 2828" d="M5.8,0H.645a.645.645,0,1,0,0,1.289H5.8A.645.645,0,0,0,5.8,0Z" transform="translate(3.867 16.844)"/>
  </g>
</svg>
