<svg xmlns="http://www.w3.org/2000/svg" width="22" height="20.167" viewBox="0 0 22 20.167">
  <g id="image_provider" transform="translate(0 -0.492)">
    <path id="Path_29352" data-name="Path 29352" d="M5.729,158.063a3.432,3.432,0,0,1-3.247-2.339l-.032-.105a3.346,3.346,0,0,1-.159-.994v-6.25L.067,155.8a2.082,2.082,0,0,0,1.459,2.525l14.175,3.8a2.1,2.1,0,0,0,.528.068,2.044,2.044,0,0,0,1.981-1.5l.826-2.626Zm0,0" transform="translate(0 -141.528)"/>
    <path id="Path_29353" data-name="Path 29353" d="M151.153,68.159a1.833,1.833,0,1,0-1.833-1.833A1.835,1.835,0,0,0,151.153,68.159Zm0,0" transform="translate(-142.904 -61.25)"/>
    <path id="Path_29354" data-name="Path 29354" d="M101.362.492H87.612A2.3,2.3,0,0,0,85.32,2.784V12.867a2.3,2.3,0,0,0,2.292,2.292h13.75a2.3,2.3,0,0,0,2.292-2.292V2.784A2.3,2.3,0,0,0,101.362.492ZM87.612,2.326h13.75a.458.458,0,0,1,.458.458V9.292l-2.9-3.379A1.642,1.642,0,0,0,97.7,5.349a1.6,1.6,0,0,0-1.225.578l-3.4,4.086L91.957,8.907a1.609,1.609,0,0,0-2.273,0l-2.53,2.529V2.784A.458.458,0,0,1,87.612,2.326Zm0,0" transform="translate(-81.654)"/>
  </g>
</svg>
