<svg id="image_placeholder" xmlns="http://www.w3.org/2000/svg" width="22" height="22" viewBox="0 0 22 22">
  <g id="Group_18774" data-name="Group 18774">
    <g id="Group_18773" data-name="Group 18773">
      <path id="Path_30805" data-name="Path 30805" d="M19.189,0H2.811A2.814,2.814,0,0,0,0,2.811V19.189A2.814,2.814,0,0,0,2.811,22H19.189A2.814,2.814,0,0,0,22,19.189V2.811A2.814,2.814,0,0,0,19.189,0ZM20.7,19.189A1.517,1.517,0,0,1,19.189,20.7H2.811A1.517,1.517,0,0,1,1.3,19.189V16.825L5.561,13.2a.419.419,0,0,1,.54,0l2.672,2.218a.648.648,0,0,0,.872-.041l6.348-6.357a.419.419,0,0,1,.622.032l4.09,5.036v5.108Zm0-7.163-3.084-3.8A1.715,1.715,0,0,0,15.075,8.1l-5.93,5.939L6.928,12.2a1.712,1.712,0,0,0-2.207.013L1.3,15.124V2.811A1.517,1.517,0,0,1,2.811,1.3H19.189A1.517,1.517,0,0,1,20.7,2.811Z"/>
    </g>
  </g>
  <g id="Group_18776" data-name="Group 18776" transform="translate(3.801 2.707)">
    <g id="Group_18775" data-name="Group 18775">
      <path id="Path_30806" data-name="Path 30806" d="M91.585,62.995a3.124,3.124,0,1,0,3.124,3.124A3.128,3.128,0,0,0,91.585,62.995Zm0,4.953a1.829,1.829,0,1,1,1.829-1.829A1.831,1.831,0,0,1,91.585,67.948Z" transform="translate(-88.461 -62.995)"/>
    </g>
  </g>
</svg>
