<svg xmlns="http://www.w3.org/2000/svg" width="22" height="22" viewBox="0 0 22 22">
  <g id="info_service" style="isolation: isolate">
    <path id="Path_29264" data-name="Path 29264" d="M17.536,26H15.964A1.964,1.964,0,0,0,14,27.964v1.179h5.5V27.964A1.964,1.964,0,0,0,17.536,26Z" transform="translate(-10.071 -17.357)"/>
    <path id="Path_29265" data-name="Path 29265" d="M38,32h6.286v.786H38Z" transform="translate(-24.643 -21)"/>
    <path id="Path_29266" data-name="Path 29266" d="M4,43.179a1.182,1.182,0,0,0,1.179,1.179H24.821A1.182,1.182,0,0,0,26,43.179V42H4Zm19.643-.393h.786v.786h-.786Zm-1.571,0h.786v.786h-.786Z" transform="translate(-4 -27.071)"/>
    <path id="Path_29267" data-name="Path 29267" d="M17,19.191a1.182,1.182,0,0,0,1.179,1.179h.786a1.182,1.182,0,0,0,1.179-1.179v-.9l-.821-.275L17,18.354Z" transform="translate(-11.893 -12.512)"/>
    <path id="Path_29268" data-name="Path 29268" d="M10,19.429h.786V18.25a2.757,2.757,0,0,1,1.74-2.557,1.956,1.956,0,0,1-.562-1.371V12.75a1.964,1.964,0,0,1,1.964-1.964h.786a1.964,1.964,0,0,1,1.964,1.964v1.571a1.956,1.956,0,0,1-.562,1.371,2.757,2.757,0,0,1,1.74,2.557v1.179h.786V10H10Z" transform="translate(-7.643 -7.643)"/>
    <path id="Path_29269" data-name="Path 29269" d="M19.495,14.805l.644.216A1.179,1.179,0,0,0,18.976,14h-.786a1.174,1.174,0,0,0-1.171,1.116l2.294-.326A.405.405,0,0,1,19.495,14.805Z" transform="translate(-11.905 -10.071)"/>
    <path id="Path_29270" data-name="Path 29270" d="M24.821,4H5.179A1.182,1.182,0,0,0,4,5.179V18.143H26V5.179A1.182,1.182,0,0,0,24.821,4Zm-8.25,1.571h1.571v.786H16.571Zm0,2.357h1.571v.786H16.571Zm0,2.357h1.571v.786H16.571Zm0,2.357h1.571v.786H16.571Zm-.786,3.536a.393.393,0,0,1-.393.393H5.964a.393.393,0,0,1-.393-.393V5.964a.393.393,0,0,1,.393-.393h9.429a.393.393,0,0,1,.393.393Zm8.643,0a.393.393,0,0,1-.393.393H16.964a.393.393,0,0,1-.393-.393V14.607a.393.393,0,0,1,.393-.393h7.071a.393.393,0,0,1,.393.393Zm0-2.75h-5.5v-.786h5.5Zm0-2.357h-5.5v-.786h5.5Zm0-2.357h-5.5V7.929h5.5Zm0-2.357h-5.5V5.571h5.5Z" transform="translate(-4 -4)"/>
    <path id="Path_29271" data-name="Path 29271" d="M28,50h3.143v2.357H28Z" transform="translate(-18.571 -31.929)"/>
    <path id="Path_29272" data-name="Path 29272" d="M28.821,58H19.393a.393.393,0,0,0-.393.393v.393H29.214v-.393A.393.393,0,0,0,28.821,58Z" transform="translate(-13.107 -36.786)"/>
  </g>
</svg>
