<svg xmlns="http://www.w3.org/2000/svg" width="22" height="20.167" viewBox="0 0 22 20.167">
  <g id="information_provider_service" transform="translate(0 -21.166)">
    <path id="Path_29339" data-name="Path 29339" d="M385.327,24.522a2.282,2.282,0,1,0-.973.972l.972.972a.688.688,0,0,0,.973-.973Zm-2.952-1.063a.917.917,0,1,1,.917.917A.919.919,0,0,1,382.375,23.459Z" transform="translate(-364.5 -0.001)"/>
    <path id="Path_29340" data-name="Path 29340" d="M1.6,26.666H13.062a1.606,1.606,0,0,0,1.6-1.6V22.77a1.606,1.606,0,0,0-1.6-1.6H1.6A1.606,1.606,0,0,0,0,22.77v2.292a1.606,1.606,0,0,0,1.6,1.6Z" transform="translate(0 0)"/>
    <path id="Path_29341" data-name="Path 29341" d="M345.313,201.083h-5.958a.688.688,0,0,0,0,1.375h5.958a.688.688,0,1,0,0-1.375Z" transform="translate(-324 -172.125)"/>
    <path id="Path_29342" data-name="Path 29342" d="M345.313,264.583h-5.958a.687.687,0,1,0,0,1.375h5.958a.688.688,0,1,0,0-1.375Z" transform="translate(-324 -232.875)"/>
    <path id="Path_29343" data-name="Path 29343" d="M345.313,328.083h-5.958a.688.688,0,0,0,0,1.375h5.958a.688.688,0,1,0,0-1.375Z" transform="translate(-324 -293.625)"/>
    <path id="Path_29344" data-name="Path 29344" d="M345.313,391.583h-5.958a.687.687,0,1,0,0,1.375h5.958a.687.687,0,1,0,0-1.375Z" transform="translate(-324 -354.375)"/>
    <path id="Path_29345" data-name="Path 29345" d="M345.313,455.083h-5.958a.688.688,0,0,0,0,1.375h5.958a.688.688,0,1,0,0-1.375Z" transform="translate(-324 -415.125)"/>
    <path id="Path_29346" data-name="Path 29346" d="M1.6,213.458h9.625a1.612,1.612,0,0,0,1.6-1.6v-9.167a1.612,1.612,0,0,0-1.6-1.6H1.6a1.612,1.612,0,0,0-1.6,1.6v9.167a1.612,1.612,0,0,0,1.6,1.6Zm2.75-2.75a.693.693,0,0,1-.687-.687v-.339a1.831,1.831,0,0,1,1.925-1.723h1.65a1.831,1.831,0,0,1,1.925,1.723v.339a.693.693,0,0,1-.687.688Zm.687-5.042a1.375,1.375,0,1,1,1.375,1.375,1.373,1.373,0,0,1-1.375-1.375Z" transform="translate(0 -172.125)"/>
  </g>
</svg>
