<svg id="instagram" xmlns="http://www.w3.org/2000/svg" width="22" height="22" viewBox="0 0 22 22">
  <g id="Group_607" data-name="Group 607">
    <g id="Group_606" data-name="Group 606">
      <path id="Path_29173" data-name="Path 29173" d="M15.609,0H6.391A6.4,6.4,0,0,0,0,6.391v9.219A6.4,6.4,0,0,0,6.391,22h9.219a6.323,6.323,0,0,0,2.89-.69,6.447,6.447,0,0,0,2.2-1.842.859.859,0,1,0-1.369-1.039,4.64,4.64,0,0,1-3.725,1.851H6.391a4.677,4.677,0,0,1-4.672-4.672V6.391A4.677,4.677,0,0,1,6.391,1.719h9.219a4.677,4.677,0,0,1,4.672,4.672v8.348a.859.859,0,0,0,1.719,0V6.391A6.4,6.4,0,0,0,15.609,0Z"/>
    </g>
  </g>
  <g id="Group_609" data-name="Group 609" transform="translate(5.07 5.07)">
    <g id="Group_608" data-name="Group 608">
      <path id="Path_29174" data-name="Path 29174" d="M123.93,118a5.93,5.93,0,1,0,5.93,5.93A5.936,5.936,0,0,0,123.93,118Zm0,10.141a4.211,4.211,0,1,1,4.211-4.211A4.216,4.216,0,0,1,123.93,128.141Z" transform="translate(-118 -118)"/>
    </g>
  </g>
  <g id="Group_611" data-name="Group 611" transform="translate(16.223 4.284)">
    <g id="Group_610" data-name="Group 610" transform="translate(0 0)">
      <circle id="Ellipse_424" data-name="Ellipse 424" cx="0.746" cy="0.746" r="0.746"/>
    </g>
  </g>
</svg>
