<svg xmlns="http://www.w3.org/2000/svg" width="22" height="21.987" viewBox="0 0 22 21.987">
  <g id="investment_dashroed" transform="translate(-0.963 -1)">
    <path id="Path_30743" data-name="Path 30743" d="M15.546,42.674V41.256a1.42,1.42,0,0,0-1.419-1.419h-.709a.71.71,0,0,1-.709-.709v-.709h1.419a.71.71,0,0,1,.709.709h.709a1.42,1.42,0,0,0-1.419-1.419V37h-.709v.709H12v1.419a1.42,1.42,0,0,0,1.419,1.419h.709a.71.71,0,0,1,.709.709v.709H13.419a.71.71,0,0,1-.709-.709H12a1.42,1.42,0,0,0,1.419,1.419v.709h.709v-.709Z" transform="translate(-7.123 -23.233)"/>
    <path id="Path_30744" data-name="Path 30744" d="M39.861,31.021a1.028,1.028,0,0,0,.911,0l.712.712.5-.5-.712-.712a1.046,1.046,0,0,0,.107-.456,1.064,1.064,0,0,0-2.128,0,1.054,1.054,0,0,0,.107.456l-1.067,1.066.5.5Zm.456-1.312a.355.355,0,1,1-.355.355A.355.355,0,0,1,40.317,29.709Z" transform="translate(-24.092 -18.07)"/>
    <path id="Path_30745" data-name="Path 30745" d="M25.6,47.956l.255,1.658a3.822,3.822,0,0,1-.5.492l.452.546a4.461,4.461,0,0,0,.7-.722l.092-.12-.3-1.961Z" transform="translate(-15.747 -30.234)"/>
    <path id="Path_30746" data-name="Path 30746" d="M21.675,55.743l.23.671a5.064,5.064,0,0,0,.763-.334l-.338-.623A4.336,4.336,0,0,1,21.675,55.743Z" transform="translate(-13.367 -35.144)"/>
    <path id="Path_30747" data-name="Path 30747" d="M16.225,18.731a6.738,6.738,0,1,0-6.738-6.738c0,.052,0,.1,0,.157L9,11.469a1.061,1.061,0,0,0,.02-1.776l.93-1.162a1.142,1.142,0,0,0-.892-1.856H7.982A1.141,1.141,0,0,0,7,5.973V3.837H8.778A2.485,2.485,0,0,0,11.26,1.355V1H8.778A2.485,2.485,0,0,0,6.315,3.188a2.473,2.473,0,0,0-1.792-.77H2.04v.355A2.485,2.485,0,0,0,4.522,5.256H6.3v.709H4.246A1.143,1.143,0,0,0,3.1,7.107v.067a1.142,1.142,0,0,0,.15.567L4.349,9.657A1.056,1.056,0,0,0,4.3,11.469l-2.248,3.09a2.5,2.5,0,0,0-.446,1.083L.963,19.853l.05.1A6.185,6.185,0,0,0,6.65,22.987a6.185,6.185,0,0,0,5.637-3.033l.05-.1-.415-2.693a6.718,6.718,0,0,0,4.3,1.572ZM8.778,1.709h1.737A1.776,1.776,0,0,1,8.778,3.128H7.041A1.776,1.776,0,0,1,8.778,1.709ZM4.522,4.546A1.776,1.776,0,0,1,2.785,3.128H4.522A1.776,1.776,0,0,1,6.26,4.546ZM10.2,11.993a6.053,6.053,0,1,1,1.55,4.021l-.057-.373a2.5,2.5,0,0,0-.446-1.083l-.888-1.221A6.029,6.029,0,0,1,10.2,11.993ZM4.877,10.93a.355.355,0,0,1,0-.709H8.423a.355.355,0,1,1,0,.709ZM3.813,7.174V7.107a.434.434,0,0,1,.433-.433H6.927a.434.434,0,0,1,.433.433v.986h.709V7.383h.986a.433.433,0,0,1,.338.7L8.253,9.511H5.083L3.87,7.389a.438.438,0,0,1-.057-.215Zm2.837,15.1A5.547,5.547,0,0,1,1.7,19.73l.612-3.981a1.785,1.785,0,0,1,.318-.774l2.427-3.337H8.243l2.427,3.337a1.779,1.779,0,0,1,.318.774l.612,3.98a5.546,5.546,0,0,1-4.95,2.548Z"/>
    <path id="Path_30748" data-name="Path 30748" d="M34.319,27.639A5.319,5.319,0,1,0,29,22.319,5.325,5.325,0,0,0,34.319,27.639Zm-4.592-5.674a4.584,4.584,0,0,1,1.1-2.641l.99.989.5-.5-.99-.989a4.585,4.585,0,0,1,2.641-1.1v1.4h.709v-1.4a4.584,4.584,0,0,1,2.641,1.1l-.99.989.5.5.99-.989a4.585,4.585,0,0,1,1.1,2.641h-1.4v.709h1.4a4.584,4.584,0,0,1-1.1,2.641l-.99-.989-.5.5.99.989a4.585,4.585,0,0,1-2.641,1.1v-1.4h-.709v1.4a4.584,4.584,0,0,1-2.641-1.1l.99-.989-.5-.5-.99.989a4.585,4.585,0,0,1-1.1-2.641h1.4v-.709Z" transform="translate(-18.094 -10.326)"/>
    <path id="Path_30749" data-name="Path 30749" d="M43.633,48a1.065,1.065,0,0,0-1.064,1.064,1.051,1.051,0,0,0,.069.367,8.51,8.51,0,0,1-7.743.838l-.256.661a9.212,9.212,0,0,0,8.456-.954,1.05,1.05,0,0,0,.538.151,1.064,1.064,0,0,0,0-2.128Zm0,1.419a.355.355,0,1,1,.355-.355A.355.355,0,0,1,43.633,49.419Z" transform="translate(-21.734 -30.333)"/>
    <path id="Path_30750" data-name="Path 30750" d="M28.064,6.709a1.064,1.064,0,1,0,1.064,1.064,1,1,0,0,0-.011-.109,8.5,8.5,0,0,1,10.04,1.65l.51-.493a9.211,9.211,0,0,0-10.851-1.8,1.06,1.06,0,0,0-.752-.312Zm0,1.419a.355.355,0,1,1,.355-.355A.355.355,0,0,1,28.064,8.128Z" transform="translate(-16.804 -3.227)"/>
  </g>
</svg>
