<svg xmlns="http://www.w3.org/2000/svg" width="22.102" height="25.998" viewBox="0 0 22.102 25.998">
  <g id="invoice_gray_english" transform="translate(0 5.6) rotate(-22)">
    <g id="Path_2830" data-name="Path 2830" transform="translate(0 0)" stroke-linecap="square" stroke-linejoin="round">
      <path d="M.165,21.972a.286.286,0,0,0,.3-.034l1.621-1.293,1.621,1.293a.283.283,0,0,0,.352,0l1.62-1.293L7.3,21.938a.282.282,0,0,0,.352,0l1.62-1.293,1.62,1.293a.282.282,0,0,0,.352,0l1.62-1.293,1.619,1.293a.282.282,0,0,0,.176.062.3.3,0,0,0,.127-.028.287.287,0,0,0,.165-.254V3.617a.287.287,0,0,0-.083-.2L11.671.088A.288.288,0,0,0,11.465,0H.292A.292.292,0,0,0,0,.284V21.718a.287.287,0,0,0,.165.254ZM11.753.986,14,3.338H11.753ZM.564.564H11.189V3.617a.28.28,0,0,0,.276.285h2.921v17.23l-1.342-1.068a.285.285,0,0,0-.354,0l-1.621,1.293-1.62-1.293a.283.283,0,0,0-.352,0l-1.62,1.293-1.62-1.293a.282.282,0,0,0-.352,0l-1.62,1.293-1.62-1.293A.282.282,0,0,0,2.088,20a.3.3,0,0,0-.181.062L.564,21.132Z" stroke="none"/>
      <path d="M 7.475536346435547 22.00005149841309 C 7.413255214691162 22.00005149841309 7.350972652435303 21.97949409484863 7.299492359161377 21.93837928771973 L 5.679552555084229 20.64507865905762 L 4.059662342071533 21.93836975097656 C 4.008132457733154 21.97945976257324 3.945817470550537 22.00000381469727 3.883503675460815 22.00000381469727 C 3.821189880371094 22.00000381469727 3.758877515792847 21.97945976257324 3.70735239982605 21.93836975097656 L 2.086652517318726 20.64501953125 L 0.4654024839401245 21.93835830688477 C 0.4138674139976501 21.97908973693848 0.3511073887348175 22.00005340576172 0.2878204584121704 22.00005149841309 C 0.2459138184785843 22.00004959106445 0.2037705481052399 21.99085426330566 0.1645224988460541 21.97211837768555 C 0.06576249748468399 21.92560958862305 0.001982494024559855 21.82705879211426 -1.750595038174652e-05 21.71792984008789 L -6.750594911864027e-05 0.2837392389774323 C 0.004352494142949581 0.1257992535829544 0.1336624920368195 4.924652239424177e-05 0.2916924953460693 4.924652239424177e-05 L 11.46509265899658 7.924652163637802e-05 C 11.54281234741211 0.0003592465072870255 11.61712265014648 0.03198924660682678 11.67119216918945 0.08779924362897873 L 14.86642265319824 3.421469211578369 C 14.91806221008301 3.473509311676025 14.94783210754395 3.543329238891602 14.94963264465332 3.616619348526001 L 14.94967269897461 21.71795845031738 C 14.94767284393311 21.82710838317871 14.88388252258301 21.92564964294434 14.78511238098145 21.97215843200684 C 14.74532222747803 21.99051856994629 14.70201206207275 22.00002861022949 14.65820217132568 22.00002861022949 C 14.5942325592041 22.00004959106445 14.53214263916016 21.97831916809082 14.48214244842529 21.93839836120605 L 12.86267280578613 20.64509010314941 L 11.2431526184082 21.93838882446289 C 11.19167709350586 21.97949409484863 11.12940788269043 22.00004768371582 11.06713771820068 22.00004768371582 C 11.00486755371094 22.00004768371582 10.94259738922119 21.97949409484863 10.89112281799316 21.93838882446289 L 9.271322250366211 20.64509010314941 L 7.651572704315186 21.93837928771973 C 7.60009765625 21.97949409484863 7.537817478179932 22.00005149841309 7.475536346435547 22.00005149841309 Z M 5.6796875 20.00216865539551 C 5.741957664489746 20.00216865539551 5.804227352142334 20.02271842956543 5.85570240020752 20.06381988525391 L 7.475652694702148 21.35717010498047 L 9.095532417297363 20.06382942199707 C 9.147067070007324 20.02273941040039 9.209380149841309 20.00219345092773 9.271692276000977 20.00219345092773 C 9.334005355834961 20.00219345092773 9.396317481994629 20.02273941040039 9.44785213470459 20.06382942199707 L 11.06821250915527 21.35713005065918 L 12.68895244598389 20.06383895874023 C 12.74087238311768 20.02272415161133 12.80352020263672 20.00216674804688 12.86616611480713 20.00216674804688 C 12.92881202697754 20.00216674804688 12.99145793914795 20.02272415161133 13.04337215423584 20.06383895874023 L 14.3856725692749 21.13190841674805 L 14.38562202453613 3.902069330215454 L 11.46510219573975 3.902059316635132 C 11.39053249359131 3.901059150695801 11.3194522857666 3.87036919593811 11.26758289337158 3.816789150238037 C 11.21572208404541 3.763209342956543 11.1873722076416 3.691159248352051 11.18880271911621 3.616599321365356 L 11.18879222869873 0.5642192363739014 L 0.5640624761581421 0.5641892552375793 L 0.5641124844551086 21.13186836242676 L 1.906972527503967 20.06380844116211 C 1.958637714385986 20.02385330200195 2.02210807800293 20.00217819213867 2.087421655654907 20.00217819213867 C 2.087541341781616 20.00217819213867 2.087662696838379 20.00217819213867 2.087782382965088 20.0021800994873 C 2.087844848632813 20.0021800994873 2.087896347045898 20.0021800994873 2.087958812713623 20.0021800994873 C 2.151852607727051 20.0021800994873 2.213871240615845 20.02391815185547 2.263792514801025 20.06380844116211 L 3.883882522583008 21.35715866088867 L 5.50367259979248 20.06381988525391 C 5.555147647857666 20.02271842956543 5.617417335510254 20.00216865539551 5.6796875 20.00216865539551 Z M 13.99716281890869 3.337919235229492 L 11.75294208526611 0.9859192371368408 L 11.75295257568359 3.337919235229492 L 13.99716281890869 3.337919235229492 Z" stroke="none" fill="#000"/>
    </g>
    <g id="Path_2831" data-name="Path 2831" transform="translate(1.41 2.445)" stroke-linecap="square" stroke-linejoin="round">
      <path d="M0,0H.564V.705H0Z" stroke="none"/>
      <path d="M -2.980232238769531e-07 3.278255462646484e-06 L 0.564139723777771 3.278255462646484e-06 L 0.564139723777771 0.7051833271980286 L -2.980232238769531e-07 0.7051833271980286 L -2.980232238769531e-07 3.278255462646484e-06 Z" stroke="none" fill="#000"/>
    </g>
    <g id="Path_2832" data-name="Path 2832" transform="translate(1.41 3.714)" stroke-linecap="square" stroke-linejoin="round">
      <path d="M0,0H.564V7.287H0Z" stroke="none"/>
      <path d="M -2.360343933105469e-05 9.5367431640625e-07 L 0.5641164183616638 9.5367431640625e-07 L 0.5641363859176636 7.28684139251709 L -3.635883331298828e-06 7.28684139251709 L -2.360343933105469e-05 9.5367431640625e-07 Z" stroke="none" fill="#000"/>
    </g>
    <g id="Path_2833" data-name="Path 2833" transform="translate(3.15 9.779)" stroke-linecap="square" stroke-linejoin="round">
      <path d="M0,0H4.889V.564H0Z" stroke="none"/>
      <path d="M -3.337860107421875e-06 1.46031379699707e-05 L 4.889256954193115 2.461671829223633e-05 L 4.889256954193115 0.5641746520996094 L -3.337860107421875e-06 0.5641646385192871 L -3.337860107421875e-06 1.46031379699707e-05 Z" stroke="none" fill="#000"/>
    </g>
    <g id="Path_2834" data-name="Path 2834" transform="translate(3.468 2.586)" stroke-linecap="square" stroke-linejoin="round">
      <path d="M1.4,4.8H1.251a.771.771,0,0,1-.687-.752H0A1.328,1.328,0,0,0,1,5.322v.6h.564V5.342a1.327,1.327,0,0,0-.235-2.633.768.768,0,1,1,0-1.535.755.755,0,0,1,.763.754h.564A1.343,1.343,0,0,0,1.562.639V0H1V.659a1.327,1.327,0,0,0,.329,2.613A.763.763,0,0,1,1.4,4.8Z" stroke="none"/>
      <path d="M 1.56247878074646 5.923507690429688 L 0.9983287453651428 5.923497676849365 L 0.9983287453651428 5.321747779846191 C 0.4135687351226807 5.171997547149658 0.003428742755204439 4.646637439727783 2.874271376640536e-05 4.043027877807617 L 0.5641687512397766 4.043027877807617 C 0.5714687705039978 4.430697441101074 0.8654187321662903 4.752697467803955 1.250838756561279 4.795217514038086 L 1.403998732566833 4.795217514038086 C 1.808738708496094 4.754637718200684 2.11051869392395 4.40374755859375 2.090088844299316 3.99749755859375 C 2.069654941558838 3.591371536254883 1.734450936317444 3.272647619247437 1.327848553657532 3.272647619247437 C 1.327724456787109 3.272647619247437 1.327532887458801 3.272647619247437 1.327408790588379 3.272647619247437 C 0.6584487557411194 3.272597551345825 0.09405874460935593 2.77477765083313 0.01048874296247959 2.111057758331299 C -0.07310125976800919 1.447347640991211 0.3502687513828278 0.8251476883888245 0.9983187317848206 0.6592576503753662 L 0.9983187317848206 7.659911716473289e-06 L 1.562468767166138 1.765991146385204e-05 L 1.562468767166138 0.6393776535987854 C 2.182598829269409 0.750507652759552 2.654798746109009 1.316347718238831 2.654798746109009 1.927497625350952 L 2.090648651123047 1.927497625350952 C 2.090468645095825 1.725937604904175 2.009708642959595 1.532827615737915 1.866348743438721 1.391137719154358 C 1.724942207336426 1.251358866691589 1.534199714660645 1.173083424568176 1.335584998130798 1.173083424568176 C 1.332869291305542 1.173083424568176 1.330127239227295 1.173098206520081 1.327408790588379 1.1731276512146 C 1.327382922172546 1.1731276512146 1.327416062355042 1.1731276512146 1.327390193939209 1.1731276512146 C 0.903425931930542 1.1731276512146 0.559698760509491 1.516863584518433 0.559698760509491 1.940817713737488 C 0.559698760509491 2.36481761932373 0.9034087657928467 2.708527565002441 1.327408790588379 2.708507776260376 C 1.327534556388855 2.708507537841797 1.327636480331421 2.708507537841797 1.327762365341187 2.708507537841797 C 2.014984846115112 2.708507537841797 2.588599920272827 3.233153104782104 2.649698734283447 3.917707681655884 C 2.710818767547607 4.602377891540527 2.239038705825806 5.220397472381592 1.56247878074646 5.341967582702637 L 1.56247878074646 5.923507690429688 Z" stroke="none" fill="#000"/>
    </g>
    <g id="Path_2835" data-name="Path 2835" transform="translate(3.15 11.659)" stroke-linecap="square" stroke-linejoin="round">
      <path d="M0,0H8.65V.564H0Z" stroke="none"/>
      <path d="M -2.86102294921875e-06 3.153085708618164e-05 L 8.650217056274414 5.155801773071289e-05 L 8.650217056274414 0.5641915798187256 L -2.86102294921875e-06 0.5641715526580811 L -2.86102294921875e-06 3.153085708618164e-05 Z" stroke="none" fill="#000"/>
    </g>
    <g id="Path_2836" data-name="Path 2836" transform="translate(3.15 13.539)" stroke-linecap="square" stroke-linejoin="round">
      <path d="M0,0H8.65V.564H0Z" stroke="none"/>
      <path d="M -2.86102294921875e-06 3.153085708618164e-05 L 8.650217056274414 5.155801773071289e-05 L 8.650217056274414 0.5641915798187256 L -2.86102294921875e-06 0.5641715526580811 L -2.86102294921875e-06 3.153085708618164e-05 Z" stroke="none" fill="#000"/>
    </g>
    <g id="Path_2837" data-name="Path 2837" transform="translate(3.15 15.42)" stroke-linecap="square" stroke-linejoin="round">
      <path d="M0,0H8.65V.564H0Z" stroke="none"/>
      <path d="M -2.86102294921875e-06 3.153085708618164e-05 L 8.650217056274414 5.155801773071289e-05 L 8.650217056274414 0.5641915798187256 L -2.86102294921875e-06 0.5641715526580811 L -2.86102294921875e-06 3.153085708618164e-05 Z" stroke="none" fill="#000"/>
    </g>
    <g id="Path_2838" data-name="Path 2838" transform="translate(3.15 17.3)" stroke-linecap="square" stroke-linejoin="round">
      <path d="M0,0H8.65V.564H0Z" stroke="none"/>
      <path d="M -2.86102294921875e-06 3.296136856079102e-05 L 8.650217056274414 5.298852920532227e-05 L 8.650217056274414 0.5642129778862 L -2.86102294921875e-06 0.5641929507255554 L -2.86102294921875e-06 3.296136856079102e-05 Z" stroke="none" fill="#000"/>
    </g>
  </g>
</svg>
