<svg id="last_order_black" xmlns="http://www.w3.org/2000/svg" width="22" height="19.531" viewBox="0 0 22 19.531">
  <path id="Shape" d="M18.6,5.915,17.044,7.921H18.6Z" transform="translate(-10.32 -3.582)"/>
  <path id="Shape-2" data-name="Shape" d="M35.656,10.637l2.273-.989C36.2,6.313,34.221,4.889,32,4.247V6.99a7,7,0,0,1,3.656,3.647Z" transform="translate(-19.376 -2.572)"/>
  <path id="Shape-3" data-name="Shape" d="M22.5,17.45l-7.845,3.412c2.525,1.359,2.159,1.165,2.207,1.193.006,0,.013,0,.019.008s.085.082.1.1a.391.391,0,0,1,.071.285.355.355,0,0,1-.023.076.312.312,0,0,1-.017.056c0,.006-.009.009-.012.015a7.056,7.056,0,0,1-5.434,3.314,5.671,5.671,0,0,1-5.506-6.661H2.8a8.118,8.118,0,0,0,.374,5.286,9.735,9.735,0,0,0,9.271,5.543c5.636-.411,8.734-5.2,8.944-5.343a.4.4,0,0,1,.284-.063,13.285,13.285,0,0,1,1.857.969Z" transform="translate(-1.526 -10.566)"/>
  <path id="Shape-4" data-name="Shape" d="M0,1.183V6.706A1.183,1.183,0,0,0,1.017,7.878C1.124,7.9.78,7.89,6.41,7.89a1.183,1.183,0,0,1,.779.293l2.279,2v-1.5a.789.789,0,0,1,.789-.789h.394a1.183,1.183,0,0,0,1.183-1.183V1.183A1.163,1.163,0,0,0,10.679,0h-9.5A1.183,1.183,0,0,0,0,1.183ZM5.606,4.492,8.367.941a.394.394,0,0,1,.706.242V4.339h.789a.394.394,0,0,1,0,.789H9.073V6.312a.394.394,0,0,1-.789,0V5.128H5.917a.394.394,0,0,1-.312-.637ZM4.58,2a1.3,1.3,0,0,0-1.307-.389,1.157,1.157,0,0,0-.906,1.094.4.4,0,0,1-.789.053,2.048,2.048,0,0,1,3.652-1.2,1.72,1.72,0,0,1,.006,1.857c-.463.764-1.381,1.1-2.187,1.832a2.67,2.67,0,0,0-.572.671H5.128a.394.394,0,1,1,0,.789H1.972a.394.394,0,0,1-.394-.394c0-1.045,1.125-1.847,1.985-2.437a3.342,3.342,0,0,0,1-.868.932.932,0,0,0,.018-1Z"/>
</svg>
