<svg xmlns="http://www.w3.org/2000/svg" width="25.218" height="22.263" viewBox="0 0 25.218 22.263">
  <g id="like_3_" data-name="like (3)" transform="translate(0 -30)">
    <g id="Group_850" data-name="Group 850" transform="translate(0 30)">
      <path id="Path_29483" data-name="Path 29483" d="M18.519,30a5.971,5.971,0,0,0-3.729,1.289,8.494,8.494,0,0,0-2.182,2.624,8.494,8.494,0,0,0-2.182-2.624A5.971,5.971,0,0,0,6.7,30C2.88,30,0,33.124,0,37.266,0,41.741,3.593,44.8,9.032,49.437c.924.787,1.971,1.679,3.059,2.631a.788.788,0,0,0,1.037,0c1.088-.952,2.135-1.844,3.059-2.631,5.438-4.634,9.031-7.7,9.031-12.171C25.218,33.124,22.338,30,18.519,30Z" transform="translate(0 -30)"/>
    </g>
  </g>
</svg>
