<svg xmlns="http://www.w3.org/2000/svg" width="21.431" height="21.43" viewBox="0 0 21.431 21.43">
  <path id="linkedin" d="M5.861,17.705H4.6a.837.837,0,0,1-.837-.837V9.083A.837.837,0,0,1,4.6,8.246H5.861a.837.837,0,0,1,.837.837v7.785A.837.837,0,0,1,5.861,17.705ZM6.99,5.232A1.716,1.716,0,1,0,5.275,6.948,1.716,1.716,0,0,0,6.99,5.232ZM17.664,16.868V12.5c0-2.539-.536-4.423-3.5-4.423a3.041,3.041,0,0,0-2.773,1.454h0v-.45a.837.837,0,0,0-.837-.837H9.376a.837.837,0,0,0-.837.837v7.785a.837.837,0,0,0,.837.837h1.172a.837.837,0,0,0,.837-.837v-3.86c0-1.23.313-2.422,1.838-2.422,1.5,0,1.553,1.407,1.553,2.5v3.781a.837.837,0,0,0,.837.837h1.214a.837.837,0,0,0,.837-.837Zm3.767,1.214a.837.837,0,0,0-1.674,0,1.676,1.676,0,0,1-1.674,1.674H3.349a1.676,1.676,0,0,1-1.674-1.674V3.349A1.676,1.676,0,0,1,3.349,1.674H18.082a1.676,1.676,0,0,1,1.674,1.674V13.854a.837.837,0,0,0,1.674,0V3.349A3.352,3.352,0,0,0,18.082,0H3.349A3.352,3.352,0,0,0,0,3.349V18.082a3.352,3.352,0,0,0,3.349,3.349H18.082A3.352,3.352,0,0,0,21.431,18.082Zm0,0" transform="translate(0)"/>
</svg>
