<svg id="link_provider" xmlns="http://www.w3.org/2000/svg" width="22" height="22" viewBox="0 0 22 22">
  <path id="Path_29274" data-name="Path 29274" d="M205.6,0a5.23,5.23,0,0,0-3.722,1.542l-4.1,4.1a6.221,6.221,0,0,1,3.49.4l2.553-2.553a2.514,2.514,0,1,1,3.556,3.556l-4.6,4.6a2.576,2.576,0,0,1-3.556,0l-1.943,1.946a5.264,5.264,0,0,0,7.443,0l4.6-4.6A5.264,5.264,0,0,0,205.6,0Z" transform="translate(-188.864)"/>
  <path id="Path_29275" data-name="Path 29275" d="M9.572,171.358l-2.529,2.529a2.514,2.514,0,1,1-3.556-3.556l4.6-4.6a2.576,2.576,0,0,1,3.556,0l1.943-1.946a5.391,5.391,0,0,0-7.443,0l-4.6,4.6a5.264,5.264,0,1,0,7.444,7.444l4.045-4.045a6.662,6.662,0,0,1-.892.087A6.625,6.625,0,0,1,9.572,171.358Z" transform="translate(0 -155.374)"/>
</svg>
