<svg xmlns="http://www.w3.org/2000/svg" width="18" height="26.177" viewBox="0 0 18 26.177">
  <g id="location" transform="translate(-79.968 0)">
    <path id="Path_29216" data-name="Path 29216" d="M96.717,4.482A8.883,8.883,0,0,0,89.169,0c-.134,0-.269,0-.4,0a8.883,8.883,0,0,0-7.548,4.481,9.113,9.113,0,0,0-.119,9L87.59,25.368l.009.016a1.578,1.578,0,0,0,2.737,0l.009-.016,6.491-11.881a9.113,9.113,0,0,0-.119-9Zm-7.75,7.379A3.681,3.681,0,1,1,92.649,8.18,3.685,3.685,0,0,1,88.968,11.861Z" transform="translate(0 0)"/>
  </g>
</svg>
