<svg xmlns="http://www.w3.org/2000/svg" width="22" height="15.469" viewBox="0 0 22 15.469">
  <g id="menu_black" transform="translate(0 -76)">
    <g id="Group_845" data-name="Group 845" transform="translate(0 82.875)">
      <g id="Group_844" data-name="Group 844" transform="translate(0 0)">
        <path id="Path_29480" data-name="Path 29480" d="M21.141,236H.859a.859.859,0,1,0,0,1.719H21.141a.859.859,0,1,0,0-1.719Z" transform="translate(0 -236)"/>
      </g>
    </g>
    <g id="Group_847" data-name="Group 847" transform="translate(0 76)">
      <g id="Group_846" data-name="Group 846" transform="translate(0 0)">
        <path id="Path_29481" data-name="Path 29481" d="M21.141,76H.859a.859.859,0,1,0,0,1.719H21.141a.859.859,0,1,0,0-1.719Z" transform="translate(0 -76)"/>
      </g>
    </g>
    <g id="Group_849" data-name="Group 849" transform="translate(0 89.75)">
      <g id="Group_848" data-name="Group 848">
        <path id="Path_29482" data-name="Path 29482" d="M21.141,396H.859a.859.859,0,1,0,0,1.719H21.141a.859.859,0,0,0,0-1.719Z" transform="translate(0 -396)"/>
      </g>
    </g>
  </g>
</svg>
