<svg xmlns="http://www.w3.org/2000/svg" width="22" height="21.267" viewBox="0 0 22 21.267">
  <g id="money" transform="translate(0 -7.982)">
    <g id="Group_18696" data-name="Group 18696" transform="translate(0 14.967)">
      <g id="Group_18695" data-name="Group 18695" transform="translate(0)">
        <path id="Path_30751" data-name="Path 30751" d="M18.693,160.017H.315a.315.315,0,0,0-.315.314H0v8.821a.315.315,0,0,0,.314.315h12.5a.315.315,0,1,0,0-.63H.63v-8.191H18.377v.788a.315.315,0,0,0,.314.315h0a.315.315,0,0,0,.315-.314h0v-1.1A.315.315,0,0,0,18.693,160.017Z" transform="translate(0 -160.017)"/>
      </g>
    </g>
    <g id="Group_18698" data-name="Group 18698" transform="translate(0.735 10.189)">
      <g id="Group_18697" data-name="Group 18697">
        <path id="Path_30752" data-name="Path 30752" d="M31.816,59.335l-14.7-3.308a.315.315,0,0,0-.377.239L16,59.573a.315.315,0,1,0,.615.137l.666-3,14.394,3.238a.3.3,0,0,0,.069.008.315.315,0,0,0,.069-.622Z" transform="translate(-15.995 -56.019)"/>
      </g>
    </g>
    <g id="Group_18700" data-name="Group 18700" transform="translate(4.772 7.982)">
      <g id="Group_18699" data-name="Group 18699" transform="translate(0 0)">
        <path id="Path_30753" data-name="Path 30753" d="M113.873,11.682l-8.821-3.675a.316.316,0,0,0-.4.15l-.735,1.47a.316.316,0,1,0,.556.3l.009-.018h0l.6-1.207,8.549,3.562a.316.316,0,1,0,.243-.583Z" transform="translate(-103.875 -7.982)"/>
      </g>
    </g>
    <g id="Group_18702" data-name="Group 18702" transform="translate(11.761 16.437)">
      <g id="Group_18701" data-name="Group 18701">
        <path id="Path_30754" data-name="Path 30754" d="M259.232,192.017h-2.917a.315.315,0,0,0,0,.63h2.917a.315.315,0,1,0,0-.63Z" transform="translate(-256 -192.017)"/>
      </g>
    </g>
    <g id="Group_18704" data-name="Group 18704" transform="translate(5.902 16.458)">
      <g id="Group_18703" data-name="Group 18703" transform="translate(0 0)">
        <path id="Path_30755" data-name="Path 30755" d="M131.69,192.473a3.234,3.234,0,1,0,3.234,3.234A3.234,3.234,0,0,0,131.69,192.473Zm0,5.881a2.646,2.646,0,1,1,2.646-2.646A2.646,2.646,0,0,1,131.69,198.354Z" transform="translate(-128.456 -192.473)"/>
      </g>
    </g>
    <g id="Group_18706" data-name="Group 18706" transform="translate(13.914 17.487)">
      <g id="Group_18705" data-name="Group 18705">
        <path id="Path_30756" data-name="Path 30756" d="M306.9,214.873c-1.948,0-4.043.46-4.043,1.47v8.821c0,1.01,2.1,1.47,4.043,1.47s4.043-.46,4.043-1.47v-8.821C310.942,215.333,308.847,214.873,306.9,214.873Zm3.308,10.286c-.056.2-1.158.741-3.308.741s-3.252-.537-3.308-.735v-.578a9.755,9.755,0,0,0,6.616,0Zm0-1.47c-.056.2-1.158.741-3.308.741s-3.252-.537-3.308-.735v-.578a9.755,9.755,0,0,0,6.616,0Zm0-1.47c-.056.2-1.158.741-3.308.741s-3.252-.537-3.308-.735v-.578a9.755,9.755,0,0,0,6.616,0Zm0-1.47c-.056.2-1.158.741-3.308.741s-3.252-.537-3.308-.735v-.578a9.755,9.755,0,0,0,6.616,0Zm0-1.47c-.056.2-1.158.741-3.308.741s-3.252-.537-3.308-.735v-.578a9.755,9.755,0,0,0,6.616,0Zm0-1.47c-.056.2-1.158.741-3.308.741s-3.252-.537-3.308-.735v-.578a9.755,9.755,0,0,0,6.616,0Zm-3.308-.73c-2.147,0-3.249-.535-3.308-.728v0c.059-.2,1.161-.739,3.308-.739,2.132,0,3.234.527,3.308.735C310.133,216.551,309.031,217.078,306.9,217.078Z" transform="translate(-302.856 -214.873)"/>
      </g>
    </g>
    <g id="Group_18708" data-name="Group 18708" transform="translate(1.47 16.437)">
      <g id="Group_18707" data-name="Group 18707" transform="translate(0 0)">
        <path id="Path_30757" data-name="Path 30757" d="M36.718,197.9H33.94l-1.317-1.441v-2.389l1.455-1.421h2.641a.315.315,0,0,0,0-.63H33.949a.315.315,0,0,0-.221.089l-1.642,1.6a.4.4,0,0,0-.095.257v2.614a.315.315,0,0,0,.082.212l1.493,1.633a.315.315,0,0,0,.233.1h2.918a.315.315,0,0,0,0-.63Z" transform="translate(-31.992 -192.017)"/>
      </g>
    </g>
    <g id="Group_18710" data-name="Group 18710" transform="translate(8.033 18.039)">
      <g id="Group_18709" data-name="Group 18709">
        <path id="Path_30758" data-name="Path 30758" d="M176.142,228.159h-.368c-.114,0-.184-.064-.184-.092s.069-.092.184-.092h.919a.368.368,0,0,0,0-.735h-.368a.368.368,0,1,0-.735,0v.017a.856.856,0,0,0-.735.809.878.878,0,0,0,.919.829h.368c.114,0,.184.064.184.092s-.069.092-.184.092h-.919a.368.368,0,0,0,0,.735h.368a.368.368,0,1,0,.735,0V229.8a.856.856,0,0,0,.735-.809A.878.878,0,0,0,176.142,228.159Z" transform="translate(-174.856 -226.873)"/>
      </g>
    </g>
  </g>
</svg>
