<svg id="order_dashbord" xmlns="http://www.w3.org/2000/svg" width="22" height="20.617" viewBox="0 0 22 20.617">
  <g id="Group_18625" data-name="Group 18625">
    <g id="Group_18620" data-name="Group 18620" transform="translate(0 4.628)">
      <g id="Group_18619" data-name="Group 18619" transform="translate(0 0)">
        <path id="Path_23609" data-name="Path 23609" d="M38.335,258.071V270.14c0,.555-.007,1.112,0,1.667v.022l1.114-1.114H20.486c-.256,0-.513,0-.769,0h-.033l1.114,1.114V259.76c0-.555.007-1.112,0-1.667v-.022l-1.114,1.114H38.647c.256,0,.513,0,.769,0h.033a1.16,1.16,0,0,0,.789-.325,1.119,1.119,0,0,0,0-1.578,1.156,1.156,0,0,0-.789-.325H20.486c-.256,0-.513,0-.769,0h-.033a1.131,1.131,0,0,0-1.114,1.114V270.14c0,.555-.007,1.112,0,1.667v.022a1.131,1.131,0,0,0,1.114,1.114H38.647c.256,0,.513,0,.769,0h.033a1.131,1.131,0,0,0,1.114-1.114V259.76c0-.555.007-1.112,0-1.667v-.022a1.16,1.16,0,0,0-.325-.789,1.119,1.119,0,0,0-1.578,0A1.175,1.175,0,0,0,38.335,258.071Z" transform="translate(-18.567 -256.956)"/>
      </g>
    </g>
    <g id="Group_18622" data-name="Group 18622" transform="translate(0.008)">
      <g id="Group_18621" data-name="Group 18621">
        <path id="Path_23610" data-name="Path 23610" d="M39.8,53.957H20.838c-.256,0-.513,0-.769,0h-.033l.789,1.9L22.3,54.3q1.173-1.247,2.345-2.492l.537-.571c-.263.109-.526.218-.789.325h9.7c.446,0,.892.007,1.337,0h.02c-.263-.109-.526-.218-.789-.325L36.132,52.8q1.173,1.247,2.345,2.492l.537.571a1.114,1.114,0,0,0,1.9-.789,1.2,1.2,0,0,0-.325-.789l-1.328-1.411q-1.133-1.2-2.264-2.4c-.225-.241-.452-.479-.678-.72a1.2,1.2,0,0,0-.874-.417H24.727a2.16,2.16,0,0,0-.635.04,2.064,2.064,0,0,0-.856.673q-1.053,1.117-2.1,2.236l-1.792,1.9-.1.1a1.12,1.12,0,0,0,.789,1.9H39c.256,0,.513,0,.769,0H39.8a1.16,1.16,0,0,0,.789-.325,1.119,1.119,0,0,0,0-1.578A1.157,1.157,0,0,0,39.8,53.957Z" transform="translate(-18.926 -49.326)"/>
      </g>
    </g>
    <g id="Group_18624" data-name="Group 18624" transform="translate(7.356 4.626)">
      <g id="Group_18623" data-name="Group 18623" transform="translate(0 0)">
        <path id="Path_23611" data-name="Path 23611" d="M353.588,257.979v6.111l1.676-.963-2.209-1.157c-.094-.049-.187-.1-.283-.149a1.162,1.162,0,0,0-.564-.154,1.321,1.321,0,0,0-.564.152.17.17,0,0,0-.027.016c-.049.027-.1.051-.149.078l-1.284.673q-.515.271-1.032.539l1.676.963v-6.111l-1.114,1.114H354.7a1.16,1.16,0,0,0,.789-.325,1.119,1.119,0,0,0,0-1.578,1.156,1.156,0,0,0-.789-.325h-4.986a1.131,1.131,0,0,0-1.114,1.114v6.111a1.126,1.126,0,0,0,.553.963,1.139,1.139,0,0,0,1.126,0l2.182-1.143c.1-.053.207-.109.312-.163h-1.126l2.182,1.143c.1.053.207.109.312.163a1.139,1.139,0,0,0,1.126,0,1.123,1.123,0,0,0,.553-.963v-6.111a1.16,1.16,0,0,0-.325-.789,1.119,1.119,0,0,0-1.578,0A1.176,1.176,0,0,0,353.588,257.979Z" transform="translate(-348.6 -256.862)"/>
      </g>
    </g>
  </g>
</svg>
