<svg xmlns="http://www.w3.org/2000/svg" width="22" height="24.406" viewBox="0 0 22 24.406">
  <path id="paperclip" d="M20.584,15.041l-1.805-1.805L10.657,5.114a3.829,3.829,0,0,0-5.415,5.415l8.122,8.124a.851.851,0,0,0,1.2-1.2L6.446,9.325A2.127,2.127,0,0,1,9.454,6.317l8.124,8.122,1.805,1.8a3.83,3.83,0,1,1-5.417,5.415l-1.5-1.5L4.039,11.732l-.6-.6a5.531,5.531,0,0,1,7.821-7.821l9.025,9.025a.851.851,0,1,0,1.2-1.2L12.462,2.106A7.232,7.232,0,0,0,2.234,12.333l9.025,9.025,1.506,1.5a5.531,5.531,0,0,0,7.82-7.822Zm0,0" transform="translate(-0.128 0.001)"/>
</svg>
