<svg xmlns="http://www.w3.org/2000/svg" width="22" height="23.522" viewBox="0 0 22 23.522">
  <g id="pdf_provider" transform="translate(-16.566)">
    <path id="Path_29418" data-name="Path 29418" d="M37.854,13.7H35.522V10.167a.345.345,0,0,0-.689,0V13.7H25.65a.713.713,0,0,0-.712.712v5.354a.713.713,0,0,0,.712.712h9.182v1.939a.417.417,0,0,1-.417.417h-13.7a.417.417,0,0,1-.417-.417V4.15a.417.417,0,0,1,.417-.417H31.788V5.672a1.107,1.107,0,0,0,1.106,1.106h1.939V8.789a.345.345,0,0,0,.689,0V6.749a1.1,1.1,0,0,0-.324-.782l-2.6-2.6a1.125,1.125,0,0,0-.122-.106V1.106A1.107,1.107,0,0,0,31.371,0h-13.7a1.107,1.107,0,0,0-1.106,1.106v.833a.345.345,0,1,0,.689,0V1.106a.417.417,0,0,1,.417-.417h13.7a.417.417,0,0,1,.417.417V3.044H20.716A1.107,1.107,0,0,0,19.61,4.15V18.266H17.672a.417.417,0,0,1-.417-.417V3.317a.345.345,0,0,0-.689,0V17.85a1.107,1.107,0,0,0,1.106,1.106H19.61v3.461a1.107,1.107,0,0,0,1.106,1.106h13.7a1.107,1.107,0,0,0,1.106-1.106V20.478h2.332a.713.713,0,0,0,.712-.712V14.412a.713.713,0,0,0-.712-.712ZM34.345,6.089H32.894a.417.417,0,0,1-.417-.417V4.221Zm3.532,13.677a.023.023,0,0,1-.023.023H25.65a.023.023,0,0,1-.023-.023V14.412a.023.023,0,0,1,.023-.023h12.2a.023.023,0,0,1,.023.023Z"/>
    <path id="Path_29419" data-name="Path 29419" d="M232.744,331.333h-1.12a.726.726,0,0,0-.725.725v2.664a.345.345,0,1,0,.689,0v-1.178h1.178a1.111,1.111,0,0,0,.8-.343,1.1,1.1,0,0,0,.3-.816A1.115,1.115,0,0,0,232.744,331.333Zm.323,1.393a.413.413,0,0,1-.3.129h-1.178v-.8a.036.036,0,0,1,.036-.036h1.12a.432.432,0,0,1,.438.4A.414.414,0,0,1,233.067,332.726Z" transform="translate(-204.486 -316.111)"/>
    <path id="Path_29420" data-name="Path 29420" d="M315.216,331.333h-.761a.726.726,0,0,0-.725.725v2.283a.726.726,0,0,0,.725.725h.761a1.488,1.488,0,0,0,1.486-1.486v-.761A1.488,1.488,0,0,0,315.216,331.333Zm.8,2.247a.8.8,0,0,1-.8.8h-.761a.036.036,0,0,1-.036-.036v-2.283a.036.036,0,0,1,.036-.036h.761a.8.8,0,0,1,.8.8Z" transform="translate(-283.512 -316.111)"/>
    <path id="Path_29421" data-name="Path 29421" d="M399.24,331.333h-1.95a.726.726,0,0,0-.725.725v2.664a.345.345,0,1,0,.689,0v-1.178h1.178a.345.345,0,0,0,0-.689h-1.178v-.8a.036.036,0,0,1,.036-.036h1.95a.345.345,0,0,0,0-.689Z" transform="translate(-362.54 -316.111)"/>
    <path id="Path_29422" data-name="Path 29422" d="M203.344,134.745a.713.713,0,0,0,.712-.712v-.787a.713.713,0,0,0-.712-.712h-3.832a.713.713,0,0,0-.712.712v.787a.713.713,0,0,0,.712.712Zm-3.854-.712v-.787a.023.023,0,0,1,.023-.023h3.832a.023.023,0,0,1,.023.023v.787a.023.023,0,0,1-.023.023h-3.832A.023.023,0,0,1,199.489,134.033Z" transform="translate(-173.862 -126.445)"/>
    <path id="Path_29423" data-name="Path 29423" d="M143.533,198.8H132.878a.345.345,0,1,0,0,.689h10.655a.345.345,0,1,0,0-.689Z" transform="translate(-110.639 -189.667)"/>
    <path id="Path_29424" data-name="Path 29424" d="M143.533,231.933H132.878a.345.345,0,0,0,0,.689h10.655a.345.345,0,0,0,0-.689Z" transform="translate(-110.639 -221.278)"/>
    <path id="Path_29425" data-name="Path 29425" d="M143.533,265.067H132.878a.345.345,0,1,0,0,.689h10.655a.345.345,0,1,0,0-.689Z" transform="translate(-110.639 -252.889)"/>
  </g>
</svg>
