<svg xmlns="http://www.w3.org/2000/svg" width="30.835" height="29.55" viewBox="0 0 30.835 29.55">
  <g id="pending_dashbored" transform="translate(0 -1)">
    <g id="Path_30657" data-name="Path 30657" transform="translate(3.133 2.848)">
      <path d="M 19.35113525390625 27.20227432250977 C 15.02200508117676 27.20227432250977 11.5000057220459 23.68026542663574 11.5000057220459 19.35113525390625 C 11.5000057220459 15.02200508117676 15.02200508117676 11.5000057220459 19.35113525390625 11.5000057220459 C 23.68026542663574 11.5000057220459 27.20227432250977 15.02200508117676 27.20227432250977 19.35113525390625 C 27.20227432250977 23.68026542663574 23.68026542663574 27.20227432250977 19.35113525390625 27.20227432250977 Z M 19.35113525390625 11.78479480743408 C 15.17904567718506 11.78479480743408 11.78479480743408 15.17904567718506 11.78479480743408 19.35113525390625 C 11.78479480743408 23.52323532104492 15.17904567718506 26.9174861907959 19.35113525390625 26.9174861907959 C 23.52323532104492 26.9174861907959 26.9174861907959 23.52323532104492 26.9174861907959 19.35113525390625 C 26.9174861907959 15.17904567718506 23.52323532104492 11.78479480743408 19.35113525390625 11.78479480743408 Z" stroke="none"/>
      <path d="M 19.35113525390625 27.70227432250977 C 14.74644565582275 27.70227432250977 11.0000057220459 23.95581436157227 11.0000057220459 19.35113525390625 C 11.0000057220459 14.74644565582275 14.74644565582275 11.0000057220459 19.35113525390625 11.0000057220459 C 23.95581436157227 11.0000057220459 27.70227432250977 14.74644565582275 27.70227432250977 19.35113525390625 C 27.70227432250977 23.95581436157227 23.95581436157227 27.70227432250977 19.35113525390625 27.70227432250977 Z M 19.35113525390625 12.28479480743408 C 15.45565509796143 12.28479480743408 12.28479480743408 15.45436573028564 12.28479480743408 19.35113525390625 C 12.28479480743408 23.24790573120117 15.45565509796143 26.4174861907959 19.35113525390625 26.4174861907959 C 23.24662590026855 26.4174861907959 26.4174861907959 23.24790573120117 26.4174861907959 19.35113525390625 C 26.4174861907959 15.45436573028564 23.24662590026855 12.28479480743408 19.35113525390625 12.28479480743408 Z" stroke="none" fill="#000"/>
    </g>
    <g id="Path_30658" data-name="Path 30658" transform="translate(4.841 3.702)">
      <path d="M 21.49677085876465 18.63916397094727 L 17.64240074157715 18.63916397094727 C 17.56388092041016 18.63916397094727 17.5 18.57528305053711 17.5 18.49676322937012 L 17.5 14.64239406585693 C 17.5 14.56388378143311 17.56388092041016 14.50000381469727 17.64240074157715 14.50000381469727 C 17.72091102600098 14.50000381469727 17.7847900390625 14.56388378143311 17.7847900390625 14.64239406585693 L 17.7847900390625 17.85437393188477 L 17.7847900390625 18.35437393188477 L 18.2847900390625 18.35437393188477 L 21.49677085876465 18.35437393188477 C 21.57527923583984 18.35437393188477 21.63916015625 18.41825294494629 21.63916015625 18.49676322937012 C 21.63916015625 18.57528305053711 21.57527923583984 18.63916397094727 21.49677085876465 18.63916397094727 Z" stroke="none"/>
      <path d="M 21.49677085876465 19.13916397094727 L 17.64240074157715 19.13916397094727 C 17.28779029846191 19.13916397094727 17 18.85136413574219 17 18.49676322937012 L 17 14.64239406585693 C 17 14.28779411315918 17.28779029846191 14.00000381469727 17.64240074157715 14.00000381469727 C 17.99699974060059 14.00000381469727 18.2847900390625 14.28779411315918 18.2847900390625 14.64239406585693 L 18.2847900390625 17.85437393188477 L 21.49677085876465 17.85437393188477 C 21.85136985778809 17.85437393188477 22.13916015625 18.14216423034668 22.13916015625 18.49676322937012 C 22.13916015625 18.85136413574219 21.85136985778809 19.13916397094727 21.49677085876465 19.13916397094727 Z" stroke="none" fill="#000"/>
    </g>
    <g id="Path_30659" data-name="Path 30659">
      <path d="M 12.20551013946533 18.48705863952637 L 2.569580316543579 18.48705863952637 C 1.428410410881042 18.48705863952637 0.5000004172325134 17.55864906311035 0.5000004172325134 16.41747856140137 L 0.5000004172325134 3.569579362869263 C 0.5000004172325134 2.428409337997437 1.428410410881042 1.499999284744263 2.569580316543579 1.499999284744263 L 25.69580078125 1.499999284744263 C 26.83697128295898 1.499999284744263 27.765380859375 2.428409337997437 27.765380859375 3.569579362869263 L 27.765380859375 11.92071914672852 C 27.765380859375 11.99922943115234 27.70149993896484 12.06310939788818 27.62298011779785 12.06310939788818 C 27.54446983337402 12.06310939788818 27.4805908203125 11.99922943115234 27.4805908203125 11.92071914672852 L 27.4805908203125 3.569579362869263 C 27.4805908203125 2.585439205169678 26.67994117736816 1.784789323806763 25.69580078125 1.784789323806763 L 2.569580316543579 1.784789323806763 C 1.585440397262573 1.784789323806763 0.7847904562950134 2.585439205169678 0.7847904562950134 3.569579362869263 L 0.7847904562950134 16.41747856140137 C 0.7847904562950134 17.40161895751953 1.585440397262573 18.20226860046387 2.569580316543579 18.20226860046387 L 12.20551013946533 18.20226860046387 C 12.28402042388916 18.20226860046387 12.347900390625 18.26614952087402 12.347900390625 18.34466934204102 C 12.347900390625 18.42317962646484 12.28402042388916 18.48705863952637 12.20551013946533 18.48705863952637 Z" stroke="none"/>
      <path d="M 12.20551013946533 18.98705863952637 L 2.569580316543579 18.98705863952637 C 1.15246045589447 18.98705863952637 4.296875033560354e-07 17.83459854125977 4.296875033560354e-07 16.41747856140137 L 4.296875033560354e-07 3.569579362869263 C 4.296875033560354e-07 2.152459383010864 1.15246045589447 0.9999993443489075 2.569580316543579 0.9999993443489075 L 25.69580078125 0.9999993443489075 C 27.1129207611084 0.9999993443489075 28.265380859375 2.152459383010864 28.265380859375 3.569579362869263 L 28.265380859375 11.92071914672852 C 28.265380859375 12.27531909942627 27.97759056091309 12.56310939788818 27.62298011779785 12.56310939788818 C 27.26838111877441 12.56310939788818 26.9805908203125 12.27531909942627 26.9805908203125 11.92071914672852 L 26.9805908203125 3.569579362869263 C 26.9805908203125 2.861659288406372 26.40500068664551 2.284789323806763 25.69580078125 2.284789323806763 L 2.569580316543579 2.284789323806763 C 1.860380411148071 2.284789323806763 1.284790396690369 2.861659288406372 1.284790396690369 3.569579362869263 L 1.284790396690369 16.41747856140137 C 1.284790396690369 17.12539863586426 1.860380411148071 17.70226860046387 2.569580316543579 17.70226860046387 L 12.20551013946533 17.70226860046387 C 12.56011009216309 17.70226860046387 12.847900390625 17.99005889892578 12.847900390625 18.34466934204102 C 12.847900390625 18.69927024841309 12.56011009216309 18.98705863952637 12.20551013946533 18.98705863952637 Z" stroke="none" fill="#000"/>
    </g>
    <g id="Path_30660" data-name="Path 30660" transform="translate(0 0.74)">
      <path d="M 14.13267040252686 10.78045082092285 C 13.73501014709473 10.78045082092285 13.33800029754639 10.68816089630127 12.98455047607422 10.51355075836182 L 0.5790504217147827 4.369900703430176 C 0.5354304313659668 4.348440647125244 0.5163804292678833 4.314190864562988 0.5078703761100769 4.289140701293945 C 0.5006604194641113 4.267900943756104 0.4920104146003723 4.225300788879395 0.5150904059410095 4.178570747375488 C 0.5437504053115845 4.121260643005371 0.6004803776741028 4.100070953369141 0.6436604261398315 4.100070953369141 C 0.6650403738021851 4.100070953369141 0.6858304142951965 4.105000972747803 0.7054604291915894 4.114730834960938 L 13.11033058166504 10.25871086120605 C 13.42586994171143 10.41446113586426 13.7791805267334 10.49663066864014 14.13267040252686 10.49663066864014 C 14.48616027832031 10.49663066864014 14.83947086334229 10.41446113586426 15.15440082550049 10.25902080535889 L 27.55965995788574 4.114840984344482 C 27.57933044433594 4.105050563812256 27.59934043884277 4.100320816040039 27.6201000213623 4.100320816040039 C 27.66179084777832 4.100320816040039 27.7211799621582 4.121730804443359 27.7513313293457 4.182040691375732 C 27.78503036499023 4.250270843505859 27.75564002990723 4.336160659790039 27.68474006652832 4.371320724487305 L 15.28038024902344 10.51376056671143 C 14.92735004425049 10.68816089630127 14.53033065795898 10.78045082092285 14.13267040252686 10.78045082092285 Z" stroke="none"/>
      <path d="M 14.13267040252686 11.28045082092285 C 13.66244029998779 11.28045082092285 13.19221019744873 11.17382049560547 12.76309013366699 10.96183109283447 L 0.3571504056453705 4.817960739135742 C 0.03853040188550949 4.661221027374268 -0.0899496003985405 4.274500846862793 0.06679040193557739 3.95715069770813 C 0.1801081895828247 3.730508089065552 0.4078682661056519 3.600065946578979 0.6436583995819092 3.600065946578979 C 0.7393583059310913 3.600065946578979 0.8363550305366516 3.621540546417236 0.9276003837585449 3.666790723800659 L 13.33225059509277 9.810660362243652 C 13.58342552185059 9.934640884399414 13.85804748535156 9.996630668640137 14.13267135620117 9.996630668640137 C 14.40729522705078 9.996630668640137 14.68192005157471 9.934640884399414 14.93310070037842 9.810660362243652 L 27.33773994445801 3.666790723800659 C 27.42827033996582 3.621712684631348 27.5247917175293 3.600325584411621 27.62010192871094 3.600325584411621 C 27.85619163513184 3.600325584411621 28.08505821228027 3.73144793510437 28.19855117797852 3.958440780639648 C 28.35530090332031 4.27578067779541 28.22553062438965 4.661221027374268 27.90690994262695 4.819250583648682 L 15.50226020812988 10.96183109283447 C 15.07314014434814 11.17382049560547 14.60291004180908 11.28045082092285 14.13267040252686 11.28045082092285 Z" stroke="none" fill="#000"/>
    </g>
  </g>
</svg>
