<svg xmlns="http://www.w3.org/2000/svg" width="22" height="22" viewBox="0 0 22 22">
  <g id="phone_call" transform="translate(0 0)">
    <g id="Group_18843" data-name="Group 18843" transform="translate(0 0)">
      <path id="Path_31027" data-name="Path 31027" d="M18.777,3.22A11,11,0,1,0,22,11,11,11,0,0,0,18.777,3.22Zm-2.118,12.1h0v0l-.557.554a2.933,2.933,0,0,1-2.768.792A9.747,9.747,0,0,1,10.5,15.4a13.079,13.079,0,0,1-2.233-1.8A13.179,13.179,0,0,1,6.6,11.573,10.266,10.266,0,0,1,5.346,9.036a2.933,2.933,0,0,1,.733-3l.653-.653a.466.466,0,0,1,.659,0h0L9.452,7.448a.466.466,0,0,1,0,.659h0l-1.21,1.21a.986.986,0,0,0-.1,1.283,14.151,14.151,0,0,0,1.448,1.69,14.064,14.064,0,0,0,1.907,1.6.994.994,0,0,0,1.269-.11l1.17-1.188a.466.466,0,0,1,.659,0h0l2.064,2.068A.466.466,0,0,1,16.659,15.322Z" transform="translate(0 0)"/>
    </g>
  </g>
</svg>
