<svg xmlns="http://www.w3.org/2000/svg" width="70.831" height="60.433" viewBox="0 0 70.831 60.433">
  <g id="photography" transform="translate(0 0)">
    <rect id="Rectangle_1351" data-name="Rectangle 1351" width="42.707" height="33.332" rx="2" transform="translate(12.5 25.612)" fill="#69cc41"/>
    <g id="video-camera_3_" data-name="video-camera (3)" transform="translate(0 0)">
      <path id="Path_29886" data-name="Path 29886" d="M70.32,62a1.04,1.04,0,0,0-1.03-.016L56.331,69.121V66.635a4.783,4.783,0,0,0-4.777-4.777h-2.7a13.178,13.178,0,0,0,4.283-17.746,1.04,1.04,0,0,0-1.794,1.05,11.109,11.109,0,1,1-2.455-2.908,1.04,1.04,0,0,0,1.337-1.592A13.178,13.178,0,0,0,28.8,48.327,9.543,9.543,0,1,0,15.5,61.858a4.783,4.783,0,0,0-4.772,4.777V66.8H6.491L1.485,64.432A1.047,1.047,0,0,0,0,65.371v12.9a1.047,1.047,0,0,0,1.485.94l5.006-2.371h4.233v16.4A4.783,4.783,0,0,0,15.5,98.013h27.07a1.04,1.04,0,0,0,0-2.079H15.5a2.7,2.7,0,0,1-2.7-2.7v-26.6a2.7,2.7,0,0,1,2.7-2.7H51.554a2.7,2.7,0,0,1,2.7,2.7v26.6a2.7,2.7,0,0,1-2.7,2.7H46.729a1.04,1.04,0,1,0,0,2.079h4.825a4.783,4.783,0,0,0,4.777-4.777V84.984l12.958,7.134a1.047,1.047,0,0,0,1.541-.911V62.9a1.04,1.04,0,0,0-.511-.9ZM2.079,67.014,5.217,68.5v6.642L2.079,76.63ZM7.3,74.762V68.882h3.427v5.879ZM13.964,54.39a7.468,7.468,0,1,1,7.468,7.468A7.476,7.476,0,0,1,13.964,54.39ZM27.37,61.858a9.581,9.581,0,0,0,3.079-4.336,13.279,13.279,0,0,0,4.207,4.336ZM68.751,89.449l-12.42-6.838V71.494l12.42-6.838Z" transform="translate(0 -37.58)"/>
      <path id="Path_29887" data-name="Path 29887" d="M263.508,99.83a5.3,5.3,0,1,0,5.3-5.3A5.306,5.306,0,0,0,263.508,99.83Zm8.521,0a3.221,3.221,0,1,1-3.221-3.221A3.224,3.224,0,0,1,272.029,99.83Z" transform="translate(-227.054 -86.651)"/>
      <path id="Path_29888" data-name="Path 29888" d="M131.6,139.506a3.745,3.745,0,1,0-3.745-3.745A3.75,3.75,0,0,0,131.6,139.506Zm0-5.412a1.666,1.666,0,1,1-1.666,1.666A1.668,1.668,0,0,1,131.6,134.094Z" transform="translate(-110.164 -118.951)"/>
      <path id="Path_29889" data-name="Path 29889" d="M178.762,277.6V266.257a2.428,2.428,0,0,0-2.426-2.426H165.091a1.04,1.04,0,1,0,0,2.079h11.245a.347.347,0,0,1,.347.347V277.6a.347.347,0,0,1-.347.347H156.863a.347.347,0,0,1-.347-.347V266.257a.347.347,0,0,1,.347-.347h4.07a1.04,1.04,0,0,0,0-2.079h-4.07a2.429,2.429,0,0,0-2.426,2.426V277.6a2.429,2.429,0,0,0,2.426,2.426h19.473A2.429,2.429,0,0,0,178.762,277.6Z" transform="translate(-133.072 -232.531)"/>
      <path id="Path_29890" data-name="Path 29890" d="M276.3,407a1.04,1.04,0,0,0,0,2.079H278.9a1.04,1.04,0,0,0,0-2.079Z" transform="translate(-237.183 -355.892)"/>
      <path id="Path_29891" data-name="Path 29891" d="M226.5,407a1.04,1.04,0,1,0,0,2.079H229.1a1.04,1.04,0,0,0,0-2.079Z" transform="translate(-194.273 -355.892)"/>
      <path id="Path_29892" data-name="Path 29892" d="M176.7,407a1.04,1.04,0,1,0,0,2.079H179.3a1.04,1.04,0,1,0,0-2.079Z" transform="translate(-151.362 -355.892)"/>
    </g>
  </g>
</svg>
