<svg xmlns="http://www.w3.org/2000/svg" width="84.219" height="84.218" viewBox="0 0 84.219 84.218">
  <g id="play_button_provider" transform="translate(0 -0.001)">
    <path id="Path_30550" data-name="Path 30550" d="M84.2,40.736A42.11,42.11,0,1,0,40.735,84.2c.461.015.917.022,1.375.022A42.112,42.112,0,0,0,84.2,40.736Zm-18.209,24.5A32.975,32.975,0,0,1,42.11,75.351c-.363,0-.726-.006-1.092-.017A33.241,33.241,0,0,1,42.11,8.869c.363,0,.726.006,1.092.017A33.24,33.24,0,0,1,65.989,65.234Z" transform="translate(0 0)" fill="#fff"/>
    <path id="Path_30551" data-name="Path 30551" d="M78.38,57.435,59.707,44.046a3.01,3.01,0,0,0-4.765,2.446V73.271a3.01,3.01,0,0,0,4.765,2.446L78.379,62.328A3.01,3.01,0,0,0,78.38,57.435Z" transform="translate(-22.459 -17.772)" fill="#fff"/>
  </g>
</svg>
