<svg id="rating_dashbord" xmlns="http://www.w3.org/2000/svg" width="22" height="22" viewBox="0 0 22 22">
  <path id="Path_30673" data-name="Path 30673" d="M160.234,0h-4.286a.323.323,0,0,0,0,.646h4.286a.323.323,0,0,1,.323.323v6.5a.323.323,0,0,1-.323.323H151.35V7.636a1.142,1.142,0,0,0-2.285,0v.155h-3.289a.323.323,0,0,0,0,.646h3.289v5.69l-.767-.86a2.5,2.5,0,0,0-1.864-.835.744.744,0,0,0-.653,1.1l1.286,2.362a6.387,6.387,0,0,0,1.209,1.575l1.37,1.3v.692a.739.739,0,0,0-.588.723v1.073A.739.739,0,0,0,149.8,22h5.091a.739.739,0,0,0,.738-.738V20.188a.739.739,0,0,0-.566-.717v-.718a6.975,6.975,0,0,0,1.207-4.351V12.43a1.142,1.142,0,0,0-1.72-.985,1.142,1.142,0,0,0-1.639-.563,1.142,1.142,0,0,0-1.558-.606V8.437h8.885a.97.97,0,0,0,.969-.969V.969A.97.97,0,0,0,160.234,0Zm-8.388,10.807a.5.5,0,0,1,.5.5v.563a.323.323,0,0,0,.646,0,.5.5,0,1,1,.993,0v.563a.323.323,0,0,0,.646,0,.5.5,0,0,1,.993,0V14.4a6.146,6.146,0,0,1-1.118,4.011.323.323,0,0,0-.089.222v.815h-.78a.323.323,0,1,0,0,.646h1.254a.093.093,0,0,1,.092.093v1.073a.093.093,0,0,1-.092.092H149.8a.093.093,0,0,1-.092-.092V20.188a.093.093,0,0,1,.092-.093h2.546a.323.323,0,0,0,0-.646h-2.05v-.815a.323.323,0,0,0-.1-.234L148.721,17a5.741,5.741,0,0,1-1.087-1.416l-1.286-2.362c-.03-.081,0-.133.086-.145a1.854,1.854,0,0,1,1.382.619l1.319,1.478a.332.332,0,0,0,.576-.215V7.636a.5.5,0,1,1,.993,0V11.3a.323.323,0,0,0,.646,0,.5.5,0,0,1,.5-.5Z" transform="translate(-139.203 0)"/>
  <path id="Path_30674" data-name="Path 30674" d="M5.281,7.791H.969a.323.323,0,0,1-.323-.323V.969A.323.323,0,0,1,.969.646H15.454a.323.323,0,1,0,0-.646H.969A.97.97,0,0,0,0,.969v6.5a.97.97,0,0,0,.969.969H5.281a.323.323,0,1,0,0-.646Z" transform="translate(0 0)"/>
  <path id="Path_30675" data-name="Path 30675" d="M206.143,39.539a.691.691,0,0,0-.383-1.179l-.752-.109a.045.045,0,0,1-.034-.025l-.336-.681a.691.691,0,0,0-1.239,0l-.336.681a.045.045,0,0,1-.034.025l-.752.109a.691.691,0,0,0-.383,1.179l.544.53a.045.045,0,0,1,.013.04l-.128.749a.691.691,0,0,0,1,.728l.673-.354a.045.045,0,0,1,.042,0l.673.354a.691.691,0,0,0,1-.728l-.128-.749a.045.045,0,0,1,.013-.04Zm-.995.068a.691.691,0,0,0-.2.612l.128.749a.045.045,0,0,1-.066.048l-.673-.354a.691.691,0,0,0-.643,0l-.673.354a.045.045,0,0,1-.066-.048l.128-.749a.691.691,0,0,0-.2-.612l-.544-.53a.045.045,0,0,1,.025-.077l.752-.109a.691.691,0,0,0,.52-.378l.336-.681a.045.045,0,0,1,.081,0l.336.681a.691.691,0,0,0,.52.378l.752.109a.045.045,0,0,1,.025.077Z" transform="translate(-193.018 -35.563)"/>
  <path id="Path_30676" data-name="Path 30676" d="M55.879,40.859l-.128-.749a.045.045,0,0,1,.013-.04l.544-.53a.691.691,0,0,0-.383-1.179l-.752-.109a.045.045,0,0,1-.034-.025l-.336-.681a.691.691,0,0,0-1.239,0l-.336.681a.045.045,0,0,1-.034.025l-.752.109a.691.691,0,0,0-.383,1.179l.544.53a.045.045,0,0,1,.013.04l-.128.749a.691.691,0,0,0,1,.728l.673-.354a.045.045,0,0,1,.042,0l.673.354a.691.691,0,0,0,1-.728Zm-.566-1.251a.691.691,0,0,0-.2.612l.128.749a.045.045,0,0,1-.066.048l-.673-.354a.691.691,0,0,0-.643,0l-.673.354a.045.045,0,0,1-.066-.048l.128-.749a.691.691,0,0,0-.2-.612l-.544-.53A.045.045,0,0,1,52.534,39l.752-.109a.691.691,0,0,0,.52-.378l.336-.681a.045.045,0,0,1,.081,0l.336.681a.691.691,0,0,0,.52.378l.752.109a.045.045,0,0,1,.025.077Z" transform="translate(-49.621 -35.564)"/>
  <path id="Path_30677" data-name="Path 30677" d="M355.979,39.539a.691.691,0,0,0-.383-1.179l-.752-.109a.045.045,0,0,1-.034-.025l-.336-.681a.691.691,0,0,0-1.239,0l-.336.681a.045.045,0,0,1-.034.025l-.752.109a.691.691,0,0,0-.383,1.179l.544.53a.045.045,0,0,1,.013.04l-.128.749a.691.691,0,0,0,1,.728l.673-.354a.045.045,0,0,1,.042,0l.673.354a.691.691,0,0,0,1-.728l-.128-.749a.045.045,0,0,1,.013-.04Zm-.995.068a.691.691,0,0,0-.2.612l.128.749a.045.045,0,0,1-.066.048l-.673-.354a.691.691,0,0,0-.643,0l-.673.354a.045.045,0,0,1-.066-.048l.128-.749a.691.691,0,0,0-.2-.612l-.544-.53a.045.045,0,0,1,.025-.077l.752-.109a.691.691,0,0,0,.52-.378l.336-.681a.045.045,0,0,1,.081,0l.336.681a.691.691,0,0,0,.52.378L355.5,39a.045.045,0,0,1,.025.077Z" transform="translate(-336.416 -35.563)"/>
</svg>
