<svg xmlns="http://www.w3.org/2000/svg" width="22" height="24.062" viewBox="0 0 22 24.062">
  <g id="reload_black" transform="translate(-20.982 0)">
    <g id="Group_829" data-name="Group 829" transform="translate(20.982 0)">
      <path id="Path_29477" data-name="Path 29477" d="M25.462,4.771a9.592,9.592,0,0,1,12.47-.329l-2.855.108A.664.664,0,0,0,35.1,5.877h.025l4.383-.162a.662.662,0,0,0,.639-.663V4.973h0L39.987.639A.664.664,0,1,0,38.66.688l.1,2.717a10.91,10.91,0,0,0-14.19.383,10.914,10.914,0,0,0-3.282,10.667.66.66,0,0,0,.644.506.575.575,0,0,0,.157-.02.664.664,0,0,0,.486-.8A9.587,9.587,0,0,1,25.462,4.771Z" transform="translate(-20.982 0)"/>
      <path id="Path_29478" data-name="Path 29478" d="M96.221,185.72a.663.663,0,0,0-1.287.314A9.585,9.585,0,0,1,79.5,195.67l2.889-.26a.664.664,0,0,0-.123-1.322l-4.368.393a.663.663,0,0,0-.6.722l.393,4.368a.662.662,0,0,0,.658.6.239.239,0,0,0,.059,0,.663.663,0,0,0,.6-.722l-.236-2.658a10.836,10.836,0,0,0,6.3,2.4c.187.01.373.015.555.015A10.911,10.911,0,0,0,96.221,185.72Z" transform="translate(-74.529 -176.114)"/>
    </g>
  </g>
</svg>
