<svg xmlns="http://www.w3.org/2000/svg" width="22" height="17.204" viewBox="0 0 22 17.204">
  <g id="sales_dasbord" transform="translate(0 -55.784)">
    <g id="Group_18652" data-name="Group 18652" transform="translate(0 59.898)">
      <path id="Path_30670" data-name="Path 30670" d="M21.354,163.292h-1.3v-8.6a.645.645,0,0,0-.646-.645H15.842a.645.645,0,0,0-.646.645v8.6H13.429V152.138a.645.645,0,0,0-.646-.645H9.217a.645.645,0,0,0-.646.645v11.155H6.8V154.01a.645.645,0,0,0-.646-.645H2.592a.645.645,0,0,0-.646.645v9.282H.646a.645.645,0,1,0,0,1.29H21.354a.645.645,0,1,0,0-1.29Zm-18.116,0v-8.637H5.513v8.637Zm6.625,0v-10.51h2.275v10.51Zm6.625,0v-7.955h2.275v7.955Z" transform="translate(0 -151.493)"/>
    </g>
    <path id="Path_30671" data-name="Path 30671" d="M29.187,58.237a.646.646,0,0,0-.5-.684l-2.084-.506a.645.645,0,1,0-.3,1.253l.589.143-1.671,1.031-6.334-3.606a.644.644,0,0,0-.593-.023L12,58.8,8.99,56.922a.645.645,0,1,0-.683,1.094l3.307,2.064a.645.645,0,0,0,.615.037l6.311-2.962,6.376,3.63a.666.666,0,0,0,.658-.012l2.025-1.25-.135.632a.645.645,0,0,0,1.261.269l.447-2.093a.743.743,0,0,0,.014-.093Z" transform="translate(-7.659 0)"/>
  </g>
</svg>
