<svg xmlns="http://www.w3.org/2000/svg" width="22" height="24.971" viewBox="0 0 22 24.971">
  <g id="save_money_dashbored" transform="translate(-0.36)">
    <path id="Path_30737" data-name="Path 30737" d="M187.821,153.1a.389.389,0,0,0-.14,0,.931.931,0,0,1-.824-.923.41.41,0,0,0-.819,0,1.752,1.752,0,0,0,1.288,1.687v.41a.41.41,0,1,0,.819,0v-.385a1.749,1.749,0,0,0-.358-3.461.93.93,0,1,1,.93-.93.41.41,0,1,0,.819,0,1.752,1.752,0,0,0-1.391-1.712v-.373a.41.41,0,1,0-.819,0v.4a1.749,1.749,0,0,0,.461,3.436.929.929,0,0,1,.034,1.858Zm0,0" transform="translate(-176.172 -139.474)"/>
    <path id="Path_30738" data-name="Path 30738" d="M104.2,112.432a5.94,5.94,0,1,0,5.94-5.94A5.939,5.939,0,0,0,104.2,112.432Zm5.94-5.12a5.12,5.12,0,1,1-5.12,5.12A5.12,5.12,0,0,1,110.135,107.311Zm0,0" transform="translate(-98.519 -101.04)"/>
    <path id="Path_30739" data-name="Path 30739" d="M19.574,327.988,16.366,329.5a2.613,2.613,0,0,0-2.228-1.375l-2.962-.081A3.129,3.129,0,0,1,9.83,327.7l-.3-.156a5.316,5.316,0,0,0-4.924.005l.019-.683a.41.41,0,0,0-.4-.421l-3.248-.089a.409.409,0,0,0-.421.4l-.2,7.128a.41.41,0,0,0,.4.421l3.248.089h.011a.41.41,0,0,0,.41-.4l.009-.341.844-.452a1.447,1.447,0,0,1,1.08-.118L11.4,334.5l.027.007a5.4,5.4,0,0,0,1.107.114,5.465,5.465,0,0,0,2.283-.5.381.381,0,0,0,.051-.028l7.306-4.726a.41.41,0,0,0,.134-.546,2.069,2.069,0,0,0-2.732-.832ZM1.19,333.5l.174-6.309,2.429.067-.174,6.309Zm13.257-.107a4.644,4.644,0,0,1-2.84.317l-5.025-1.411a2.265,2.265,0,0,0-1.688.185l-.431.231.115-4.195a4.5,4.5,0,0,1,4.574-.244l.3.156a3.957,3.957,0,0,0,1.7.439l2.962.081a1.8,1.8,0,0,1,1.707,1.432l-4.412-.122a.41.41,0,0,0-.023.819l4.869.134h.011a.41.41,0,0,0,.409-.4,2.6,2.6,0,0,0-.04-.531l3.291-1.555.01,0a1.252,1.252,0,0,1,1.415.2Zm0,0" transform="translate(0 -309.647)"/>
    <path id="Path_30740" data-name="Path 30740" d="M213.022,4.3V.41a.41.41,0,0,0-.819,0V4.3a.41.41,0,0,0,.819,0Zm0,0" transform="translate(-200.997)"/>
    <path id="Path_30741" data-name="Path 30741" d="M273.022,42.253V40.41a.41.41,0,0,0-.819,0v1.843a.41.41,0,0,0,.819,0Zm0,0" transform="translate(-257.925 -37.952)"/>
    <path id="Path_30742" data-name="Path 30742" d="M153.022,42.253V40.41a.41.41,0,1,0-.819,0v1.843a.41.41,0,1,0,.819,0Zm0,0" transform="translate(-144.069 -37.952)"/>
  </g>
</svg>
