<svg xmlns="http://www.w3.org/2000/svg" width="22.001" height="22.067" viewBox="0 0 22.001 22.067">
  <g id="sent_done_order" transform="translate(-33.062 0)">
    <g id="Group_18633" data-name="Group 18633" transform="translate(33.062)">
      <g id="Group_18632" data-name="Group 18632">
        <g id="Path_30661" data-name="Path 30661" transform="translate(-33.062)">
          <path d="M 53.42389297485352 21.56718063354492 C 53.40003204345703 21.56718063354492 53.3759651184082 21.56644058227539 53.35183334350586 21.56495094299316 L 53.33643341064453 21.56400108337402 L 53.32100296020508 21.56400108337402 L 34.80000305175781 21.56400108337402 L 34.7850341796875 21.56400108337402 L 34.77008438110352 21.56490135192871 C 34.74663543701172 21.5663013458252 34.72332382202148 21.56700134277344 34.70013427734375 21.56700134277344 C 34.11028289794922 21.56700134277344 33.61357116699219 21.10982322692871 33.56200408935547 20.52310943603516 L 33.56200408935547 6.565001487731934 C 33.56207275390625 6.5019211769104 33.57479476928711 6.439971446990967 33.59979248046875 6.381441116333008 L 33.60982513427734 6.357991218566895 L 33.61740493774414 6.33363151550293 C 33.62020492553711 6.324641227722168 33.62423324584961 6.316111087799072 33.62939453125 6.308301448822021 L 37.19136810302734 0.9039223790168762 C 37.37406158447266 0.650667130947113 37.66873168945313 0.4997212886810303 37.98122406005859 0.4997212886810303 L 38.00026321411133 0.4999112784862518 L 38.00513458251953 0.5000013113021851 L 38.01000213623047 0.5000013113021851 L 50.11000442504883 0.5000013113021851 L 50.11482238769531 0.5000013113021851 L 50.11963272094727 0.4999112784862518 L 50.13848495483398 0.4997312724590302 C 50.45078659057617 0.4997312724590302 50.74539184570313 0.6505541205406189 50.9280891418457 0.9035643935203552 L 54.4371337890625 6.202081203460693 L 54.44782257080078 6.218221187591553 L 54.45973205566406 6.23349142074585 C 54.4765739440918 6.255091190338135 54.49181365966797 6.278201103210449 54.50501251220703 6.302181243896484 L 54.5162239074707 6.322531223297119 L 54.52926254272461 6.341751098632813 L 54.54826354980469 6.369751453399658 C 54.55972290039063 6.386471271514893 54.5645751953125 6.404361248016357 54.56329345703125 6.4221510887146 L 54.56200408935547 6.440051078796387 L 54.56200408935547 6.458001136779785 L 54.56200408935547 6.514001369476318 L 54.56199264526367 20.52309036254883 C 54.51054763793945 21.10991477966309 54.01382064819336 21.56718063354492 53.42389297485352 21.56718063354492 Z M 53.30896759033203 21.26600074768066 C 53.31764221191406 21.26630210876465 53.32628631591797 21.26645088195801 53.33491516113281 21.26645088195801 C 53.7226448059082 21.26645088195801 54.0493049621582 20.96349143981934 54.07857513427734 20.57674217224121 L 54.08000564575195 20.55791091918945 L 54.08000564575195 20.53904151916504 L 54.08100509643555 6.761041164398193 L 54.0810432434082 6.261001110076904 L 53.58100509643555 6.261001110076904 L 34.54000473022461 6.261001110076904 L 34.04000473022461 6.261001110076904 L 34.04000473022461 6.761001110076904 L 34.04000473022461 20.53900146484375 L 34.04000473022461 20.55790138244629 L 34.04143524169922 20.57674217224121 C 34.07070541381836 20.9635009765625 34.39736557006836 21.26646041870117 34.78511428833008 21.26645088195801 C 34.79368591308594 21.26645088195801 34.80229187011719 21.26630020141602 34.81092834472656 21.26600074768066 L 53.30896759033203 21.26600074768066 Z M 44.32688522338867 0.7890012860298157 L 44.32700347900391 1.289121270179749 L 44.3280029296875 5.46812105178833 L 44.328125 5.968001365661621 L 44.8280029296875 5.968001365661621 L 52.84000396728516 5.968001365661621 L 53.77036285400391 5.968001365661621 L 53.25699234008789 5.19210147857666 L 50.49199295043945 1.01310133934021 L 50.34371566772461 0.7890012860298157 L 50.07500457763672 0.7890012860298157 L 44.82700347900391 0.7890012860298157 L 44.32688522338867 0.7890012860298157 Z M 37.77869415283203 0.7890012860298157 L 37.63051223754883 1.013871312141418 L 34.87651443481445 5.19287109375 L 34.36569213867188 5.968001365661621 L 35.29400253295898 5.968001365661621 L 43.34800338745117 5.968001365661621 L 43.84800338745117 5.968001365661621 L 43.84800338745117 5.468001365661621 L 43.84800338745117 1.289001226425171 L 43.84800338745117 0.7890012860298157 L 43.34800338745117 0.7890012860298157 L 38.04800415039063 0.7890012860298157 L 37.77869415283203 0.7890012860298157 Z" stroke="none"/>
          <path d="M 37.98122406005859 -0.000278472900390625 C 37.99078750610352 -0.000278472900390625 38.00041580200195 -0.0001850128173828125 38.01000213623047 1.9073486328125e-06 L 50.11000442504883 1.9073486328125e-06 C 50.11952209472656 -0.0001811981201171875 50.12898635864258 -0.0002727508544921875 50.13848495483398 -0.0002727508544921875 C 50.61516952514648 -0.0002727508544921875 51.06322860717773 0.2304515838623047 51.34000396728516 0.6200008392333984 L 54.85400390625 5.926000595092773 C 54.88720321655273 5.968570709228516 54.91696548461914 6.013711929321289 54.9430046081543 6.061000823974609 L 54.96200561523438 6.089000701904297 L 54.96199417114258 6.089000701904297 C 55.03615570068359 6.197131156921387 55.07140350341797 6.327220916748047 55.06200408935547 6.458001136779785 C 55.06200408935547 6.477001190185547 55.06200408935547 6.495000839233398 55.06200408935547 6.51400089263916 L 55.06199264526367 20.54300117492676 C 54.99883270263672 21.40688896179199 54.2785530090332 22.06718254089355 53.42388916015625 22.06718254089355 C 53.38982391357422 22.06718254089355 53.35546112060547 22.06612968444824 53.32100296020508 22.06400108337402 L 34.80000305175781 22.06400108337402 C 34.76652145385742 22.06600952148438 34.73324966430664 22.06699752807617 34.70013809204102 22.06699752807617 C 33.84539031982422 22.06699752807617 33.1252326965332 21.4066276550293 33.06200408935547 20.54300117492676 L 33.06200408935547 6.565001487731934 C 33.0621452331543 6.434370994567871 33.08868408203125 6.305121421813965 33.1400032043457 6.185001373291016 C 33.15675354003906 6.13120174407959 33.18098449707031 6.08003044128418 33.21200561523438 6.033000946044922 L 36.77900314331055 0.621002197265625 C 37.05572509765625 0.2308425903320313 37.50408554077148 -0.000278472900390625 37.98122406005859 -0.000278472900390625 Z M 43.34800338745117 5.468000411987305 L 43.34800338745117 1.28900146484375 L 38.04800415039063 1.28900146484375 L 35.29399490356445 5.468000411987305 L 43.34800338745117 5.468000411987305 Z M 44.82700347900391 1.28900146484375 L 44.8280029296875 5.468000411987305 L 52.84000396728516 5.468000411987305 L 50.07500457763672 1.28900146484375 L 44.82700347900391 1.28900146484375 Z M 53.33491134643555 20.76644706726074 C 53.46258163452148 20.76644706726074 53.57024383544922 20.6679744720459 53.58000564575195 20.53900146484375 L 53.58100509643555 6.761001586914063 L 34.54000473022461 6.761001586914063 L 34.54000473022461 20.53900146484375 C 34.54976654052734 20.66798400878906 34.65741348266602 20.76644706726074 34.78509902954102 20.76644706726074 C 34.79003524780273 20.76644706726074 34.79500961303711 20.76630020141602 34.80000305175781 20.76600074768066 L 53.32000350952148 20.76600074768066 C 53.32500457763672 20.76630020141602 53.32996368408203 20.76644706726074 53.33491134643555 20.76644706726074 Z" stroke="none" fill="#000"/>
        </g>
      </g>
    </g>
    <g id="Group_18635" data-name="Group 18635" transform="translate(41.22 11.675)">
      <g id="Group_18634" data-name="Group 18634">
        <g id="Path_30662" data-name="Path 30662" transform="translate(-184.512 -265.632)">
          <path d="M 186.5600433349609 269.4215087890625 C 186.5412139892578 269.4215087890625 186.5137023925781 269.4164733886719 186.4895324707031 269.3924255371094 L 185.0405578613281 267.9434509277344 L 185.0269012451172 267.9297790527344 L 185.0122375488281 267.917236328125 C 184.9835510253906 267.8926696777344 184.9712219238281 267.8546142578125 184.9800567626953 267.8179016113281 C 184.9888916015625 267.7811584472656 185.0171813964844 267.7528686523438 185.0539093017578 267.7440490722656 C 185.0615539550781 267.7421875 185.0694274902344 267.7412719726563 185.0772399902344 267.7412719726563 C 185.1065063476563 267.7412719726563 185.1342163085938 267.7539978027344 185.1532745361328 267.7762451171875 L 185.1658172607422 267.7908935546875 L 185.179443359375 267.8045349121094 L 186.2064361572266 268.83154296875 L 186.5599822998047 269.1851196289063 L 186.9135437011719 268.8315734863281 L 189.5845642089844 266.1605834960938 C 189.6076812744141 266.1376037597656 189.6351928710938 266.1325378417969 189.6540069580078 266.1325378417969 C 189.6728210449219 266.1325378417969 189.7003326416016 266.1376037597656 189.7245178222656 266.1616516113281 C 189.7610473632813 266.1983947753906 189.7610473632813 266.2616271972656 189.7223968505859 266.3005065917969 L 186.6294555664063 269.3934936523438 C 186.6063385009766 269.4164733886719 186.5788421630859 269.4215087890625 186.5600433349609 269.4215087890625 Z" stroke="none"/>
          <path d="M 189.6540069580078 265.6325378417969 C 189.8069915771484 265.6325378417969 189.9599761962891 265.6907043457031 190.0769958496094 265.8070068359375 C 190.3096313476563 266.041015625 190.3096313476563 266.4190063476563 190.0769958496094 266.6530151367188 L 186.9830169677734 269.7470397949219 C 186.8660125732422 269.8633728027344 186.7130279541016 269.9215087890625 186.5600280761719 269.9215087890625 C 186.4070281982422 269.9215087890625 186.2540283203125 269.8633422851563 186.1370086669922 269.7470092773438 L 184.68701171875 268.2969970703125 C 184.5157775878906 268.1503601074219 184.4412078857422 267.9201354980469 184.4939270019531 267.7009582519531 C 184.5466461181641 267.4817810058594 184.7177734375 267.3106384277344 184.9369506835938 267.2579040527344 C 184.9835357666016 267.2467041015625 185.0305786132813 267.2412414550781 185.0772399902344 267.2412414550781 C 185.2501831054688 267.2412414550781 185.4175262451172 267.316162109375 185.5330047607422 267.4509887695313 L 186.5599975585938 268.4779968261719 L 189.2310180664063 265.8070068359375 C 189.3480224609375 265.6907043457031 189.5010223388672 265.6325378417969 189.6540069580078 265.6325378417969 Z" stroke="none" fill="#000"/>
        </g>
      </g>
    </g>
  </g>
</svg>
