<svg id="Seo" xmlns="http://www.w3.org/2000/svg" width="60.881" height="60.882" viewBox="0 0 60.881 60.882">
  <path id="Path_29853" data-name="Path 29853" d="M5.029,16H45.29l10.468,3,4.064-3a2.029,2.029,0,0,1,2.029,2.029V48.47H3V18.029A2.029,2.029,0,0,1,5.029,16Z" transform="translate(-1.985 -2.808)" fill="#69cc41"/>
  <path id="Path_29854" data-name="Path 29854" d="M7,28H33.382V44.235H7Z" transform="translate(-1.927 -1.617)" fill="#f5f5f5"/>
  <path id="Path_29876" data-name="Path 29876" d="M7,28H25.264V40.176H7Z" transform="translate(28.514 -3.647)" fill="#f5f5f5"/>
  <path id="Path_29878" data-name="Path 29878" d="M7,28H26.854V40.176H7Z" transform="translate(-0.912 -20.896)" fill="#f5f5f5"/>
  <path id="Path_29877" data-name="Path 29877" d="M7,28H25.264V40.176H7Z" transform="translate(30.543 0.412)" fill="#f5f5f5"/>
  <path id="Path_29855" data-name="Path 29855" d="M42.294,57v4.059H22V57H42.294Z" transform="translate(-1.706 -1.191)" fill="#e8e5fb"/>
  <path id="Path_29856" data-name="Path 29856" d="M29,51h6.088v6.088H29Z" transform="translate(-1.604 -1.28)" fill="none"/>
  <path id="Path_29857" data-name="Path 29857" d="M61.852,49.015v1.015a2.035,2.035,0,0,1-2.029,2.029H5.029A2.035,2.035,0,0,1,3,50.029V48H61.852Z" transform="translate(-1.985 -1.324)" fill="#e8e5fb"/>
  <path id="Path_29858" data-name="Path 29858" d="M22.088,14.044,16,17.088V11Z" transform="translate(-1.794 -1.867)" fill="none"/>
  <path id="Path_29860" data-name="Path 29860" d="M33.382,28,20.191,36.117,7,28Z" transform="translate(-1.927 -1.617)" fill="none"/>
  <path id="Path_29861" data-name="Path 29861" d="M36,7h7.1v8.117H36Z" transform="translate(-1.501 -1.926)" fill="none"/>
  <path id="Path_29862" data-name="Path 29862" d="M41.059,15l-1.015,7.1H37V15Z" transform="translate(-1.486 -1.808)" fill="#fff"/>
  <path id="Path_29863" data-name="Path 29863" d="M59.46,9.6a1.984,1.984,0,0,1,.6,1.431,2.035,2.035,0,0,1-2.029,2.029H56V9h2.029A1.984,1.984,0,0,1,59.46,9.6Z" transform="translate(-1.207 -1.896)" fill="none"/>
  <path id="Path_29864" data-name="Path 29864" d="M56.191,3V19.235L43,15.176V7.059Z" transform="translate(-1.398 -1.984)" fill="none"/>
  <path id="Path_29868" data-name="Path 29868" d="M59.837,15.191H57.808V14.176h1.015a3.044,3.044,0,1,0,0-6.088H57.808V3.015a.982.982,0,0,0-.416-.812,1.006,1.006,0,0,0-.893-.162L43.45,6.059H36.5a1.015,1.015,0,0,0-1.015,1.015V8.088H33.455A1.015,1.015,0,0,0,32.441,9.1v4.059a1.015,1.015,0,0,0,1.015,1.015h2.029v1.015H29.4V6.059a1.015,1.015,0,0,0-1.015-1.015H8.088A1.015,1.015,0,0,0,7.073,6.059v9.132H5.044A3.053,3.053,0,0,0,2,18.235V50.7a3.053,3.053,0,0,0,3.044,3.044H28.382v3.044H22.294a1.015,1.015,0,0,0-1.015,1.015v4.059a1.015,1.015,0,0,0,1.015,1.015H42.587A1.015,1.015,0,0,0,43.6,61.866V57.808a1.015,1.015,0,0,0-1.015-1.015H36.5V53.749H59.837A3.053,3.053,0,0,0,62.881,50.7V18.235A3.053,3.053,0,0,0,59.837,15.191Zm-2.029-5.073h1.015a1.015,1.015,0,1,1,0,2.029H57.808ZM44.617,7.824l11.162-3.44v13.5L44.617,14.44Zm-7.1.264h5.073v6.088H37.514Zm2.892,8.117-.731,5.073H38.529V16.206ZM34.47,12.147V10.117h1.015v2.029ZM9.1,7.073H27.367V21.279H9.1Zm32.47,51.749v2.029H23.308V58.822ZM30.411,56.793V53.749H34.47v3.044ZM60.852,50.7a1.015,1.015,0,0,1-1.015,1.015H5.044A1.015,1.015,0,0,1,4.029,50.7V49.69H60.852Zm0-3.044H4.029V18.235A1.015,1.015,0,0,1,5.044,17.22H7.073v5.073a1.015,1.015,0,0,0,1.015,1.015H28.382A1.015,1.015,0,0,0,29.4,22.294V17.22h7.1v5.073a1.015,1.015,0,0,0,1.015,1.015h3.044a1.015,1.015,0,0,0,1-.872l.893-6.23h.994L56.5,20.224a.939.939,0,0,0,.294.041,1.03,1.03,0,0,0,1.015-1.015V17.22h2.029a1.015,1.015,0,0,1,1.015,1.015Z" transform="translate(-2 -1.999)"/>
  <path id="Path_29869" data-name="Path 29869" d="M7.015,45.264H33.4a1.015,1.015,0,0,0,1.015-1.015V28.015A1.015,1.015,0,0,0,33.4,27H7.015A1.015,1.015,0,0,0,6,28.015V44.25A1.015,1.015,0,0,0,7.015,45.264Zm1.015-2.029V29.83L19.674,37a1.015,1.015,0,0,0,1.063,0L32.382,29.83v13.4ZM10.6,29.029H29.812l-9.606,5.912Z" transform="translate(-1.941 -1.632)"/>
  <path id="Path_29870" data-name="Path 29870" d="M37.015,39.206h2.029V42.25a1.015,1.015,0,0,0,1.015,1.015h17.25a1.015,1.015,0,0,0,1.015-1.015V30.073a1.015,1.015,0,0,0-1.015-1.015H56.294V26.015A1.015,1.015,0,0,0,55.279,25H37.015A1.015,1.015,0,0,0,36,26.015V38.191A1.015,1.015,0,0,0,37.015,39.206Zm19.279,2.029H41.073V31.088h15.22ZM38.029,27.029H54.264v2.029H40.059a1.015,1.015,0,0,0-1.015,1.015v7.1H38.029Z" transform="translate(-1.501 -1.661)"/>
  <path id="Path_29871" data-name="Path 29871" d="M43,33h2.029v2.029H43Z" transform="translate(-1.398 -1.544)"/>
  <path id="Path_29872" data-name="Path 29872" d="M47,33h7.1v2.029H47Z" transform="translate(-1.339 -1.544)"/>
  <path id="Path_29873" data-name="Path 29873" d="M43,37h4.059v2.029H43Z" transform="translate(-1.398 -1.485)"/>
  <path id="Path_29874" data-name="Path 29874" d="M49,37h5.073v2.029H49Z" transform="translate(-1.31 -1.485)"/>
  <path id="Path_29875" data-name="Path 29875" d="M15.481,17.966a1.015,1.015,0,0,0,.987.045l6.088-3.044a1.015,1.015,0,0,0,0-1.816l-6.088-3.044A1.015,1.015,0,0,0,15,11.015V17.1A1.015,1.015,0,0,0,15.481,17.966Zm1.548-5.31,2.8,1.4-2.8,1.4Z" transform="translate(-1.809 -1.882)"/>
</svg>
