<svg id="share_4_" data-name="share (4)" xmlns="http://www.w3.org/2000/svg" width="22" height="23.467" viewBox="0 0 22 23.467">
  <g id="Group_798" data-name="Group 798">
    <path id="Path_29470" data-name="Path 29470" d="M20.125,15.217A4.11,4.11,0,0,1,23.433,16.9l6.5-3.329a3.892,3.892,0,0,1,.121-2.693l-6.8-4.094a4.1,4.1,0,1,1,1-2.66,4.087,4.087,0,0,1-.287,1.483l6.824,4.106a4.118,4.118,0,1,1-.259,5.1l-6.48,3.318a4.069,4.069,0,0,1,.2,1.211,4.125,4.125,0,1,1-4.125-4.125Z" transform="translate(-16)"/>
  </g>
</svg>
