<svg xmlns="http://www.w3.org/2000/svg" width="22" height="22.002" viewBox="0 0 22 22.002">
  <g id="star_dashbord" transform="translate(-0.023 0)">
    <g id="Group_18653" data-name="Group 18653" transform="translate(0.023 0)">
      <path id="Path_30672" data-name="Path 30672" d="M21.62,7.833a1.593,1.593,0,0,0-.969-.518h0L14.8,6.506,12.489.977a1.588,1.588,0,0,0-2.931,0L7.244,6.506,1.4,7.314a1.593,1.593,0,0,0-.84,2.767l4.406,3.929-.905,6.165a1.59,1.59,0,0,0,2.465,1.549l4.5-3.061,4.5,3.064a1.59,1.59,0,0,0,2.465-1.549l-.905-6.167,4.406-3.929A1.593,1.593,0,0,0,21.62,7.833Zm-5.9,5.289a.786.786,0,0,0-.254.7l.943,6.6-4.944-3.361a.786.786,0,0,0-.883,0L5.611,20.4l.967-6.583a.786.786,0,0,0-.254-.7L1.61,8.873,7.9,8a.786.786,0,0,0,.618-.475l2.513-5.957a.035.035,0,0,1,.006.012l2.487,5.943A.786.786,0,0,0,14.144,8l6.3.907Z" transform="translate(-0.023 0)"/>
    </g>
  </g>
</svg>
