<svg id="translate" xmlns="http://www.w3.org/2000/svg" width="54.248" height="58" viewBox="0 0 54.248 58">
  <path id="Path_29885" data-name="Path 29885" d="M0,0H42.364V42.219H0V0Z" transform="translate(10.963 14.572)" fill="#69cc41"/>
  <g id="pencil_1_" data-name="pencil (1)" transform="translate(0 0)">
    <path id="Path_29879" data-name="Path 29879" d="M66.2,3.753H65.176V2.726a2.726,2.726,0,1,0-5.453,0V3.753H55.793V2.726a2.726,2.726,0,1,0-5.453,0V3.753H46.409V2.726a2.726,2.726,0,1,0-5.453,0V3.753H37.026V2.726a2.726,2.726,0,1,0-5.453,0V3.753H30.546a4.608,4.608,0,0,0-4.6,4.6V29.148l-2.078-2.078a2.729,2.729,0,0,0-3.856,0l-2.654,2.654a2.729,2.729,0,0,0,0,3.856l8.588,8.588V53.4a4.608,4.608,0,0,0,4.6,4.6h28.9a.85.85,0,1,0,0-1.7h-28.9a2.907,2.907,0,0,1-2.9-2.9V43.866L34.574,50.8a.828.828,0,0,0,.063.057c.015.012.03.023.046.034l.021.016c.019.013.04.025.06.036l.011.007c.021.011.043.021.065.031l.01,0c.021.009.043.016.065.023l.013,0c.021.006.041.011.062.016l.018,0,.061.009.021,0c.028,0,.055,0,.083,0H40.13l1.078,1.078a.85.85,0,0,0,1.2-1.2l-1.078-1.078V44.888q0-.042,0-.083c0-.006,0-.012,0-.018,0-.022-.005-.043-.01-.064l0-.016c0-.022-.01-.043-.016-.065l0-.011c-.007-.023-.015-.045-.024-.067l0-.007c-.01-.023-.02-.046-.032-.068l0-.008c-.012-.021-.024-.042-.037-.063l-.014-.018c-.012-.016-.023-.033-.036-.049s-.037-.043-.057-.063l-6.931-6.931H63.388a.85.85,0,1,0,0-1.7H33.361a.847.847,0,0,0-.629.28l-5.09-5.09V14.836H69.107v5.794a.85.85,0,1,0,1.7,0V8.356a4.608,4.608,0,0,0-4.6-4.6ZM39.633,49.347H37.225l2.407-2.407ZM21.812,35.632l1.453-1.452L36.627,47.542l-1.452,1.452ZM37.828,46.341,24.466,32.978l1.453-1.452L39.281,44.888ZM18.557,30.925l2.654-2.654a1.028,1.028,0,0,1,1.453,0l2.053,2.053L20.61,34.431l-2.053-2.053A1.028,1.028,0,0,1,18.557,30.925ZM62.45,1.7a1.028,1.028,0,0,1,1.027,1.027V6.48a1.027,1.027,0,1,1-2.054,0V4.6h0V2.726A1.028,1.028,0,0,1,62.45,1.7Zm-9.383,0a1.028,1.028,0,0,1,1.027,1.027V6.48a1.027,1.027,0,1,1-2.054,0V4.6h0V2.726A1.028,1.028,0,0,1,53.067,1.7ZM42.656,2.726a1.027,1.027,0,0,1,2.054,0V4.6h0V6.48a1.027,1.027,0,0,1-2.054,0ZM34.3,1.7a1.028,1.028,0,0,1,1.027,1.027V6.48a1.027,1.027,0,0,1-2.054,0V2.726A1.028,1.028,0,0,1,34.3,1.7ZM27.643,13.137V8.356a2.907,2.907,0,0,1,2.9-2.9h1.027V6.48a2.726,2.726,0,1,0,5.453,0V5.453h3.931V6.48a2.726,2.726,0,1,0,5.453,0V5.453H50.34V6.48a2.726,2.726,0,1,0,5.453,0V5.453h3.931V6.48a2.726,2.726,0,1,0,5.453,0V5.453H66.2a2.907,2.907,0,0,1,2.9,2.9v4.781Z" transform="translate(-16.558 0)"/>
    <path id="Path_29880" data-name="Path 29880" d="M425.634,204.619a.85.85,0,0,0-.85.85v29.368a2.907,2.907,0,0,1-2.9,2.9h-3.357a.85.85,0,0,0,0,1.7h3.357a4.608,4.608,0,0,0,4.6-4.6V205.469A.85.85,0,0,0,425.634,204.619Z" transform="translate(-372.235 -181.439)"/>
    <path id="Path_29881" data-name="Path 29881" d="M158.24,167.366h30.027a.85.85,0,1,0,0-1.7H158.24a.85.85,0,1,0,0,1.7Z" transform="translate(-141.436 -146.9)"/>
    <path id="Path_29882" data-name="Path 29882" d="M158.24,217.066h30.027a.85.85,0,1,0,0-1.7H158.24a.85.85,0,0,0,0,1.7Z" transform="translate(-141.436 -190.97)"/>
    <path id="Path_29883" data-name="Path 29883" d="M158.24,266.766h30.027a.85.85,0,1,0,0-1.7H158.24a.85.85,0,1,0,0,1.7Z" transform="translate(-141.436 -235.04)"/>
    <path id="Path_29884" data-name="Path 29884" d="M269.912,365.317a.85.85,0,0,0-.85-.85H249.358a.85.85,0,0,0,0,1.7h19.705A.85.85,0,0,0,269.912,365.317Z" transform="translate(-222.232 -323.18)"/>
  </g>
</svg>
