<svg xmlns="http://www.w3.org/2000/svg" width="370.978" height="349.343" viewBox="0 0 370.978 349.343">
  <g id="undraw_feeling_proud_povider" transform="translate(0 0.028)">
    <path id="Path_29302" data-name="Path 29302" d="M516.326,380.018v96.5l16.141,26.306,1.228,2h63.69l1.287-124.806Z" transform="translate(-246.993 -181.802)" fill="#e6e6e6"/>
    <path id="Path_29303" data-name="Path 29303" d="M516.326,380.018v96.5l16.141,26.306.991-122.805Z" transform="translate(-246.993 -181.802)" opacity="0.1"/>
    <path id="Path_29304" data-name="Path 29304" d="M146.049,375.084v96.5L129.908,497.89l-1.228,2H64.99L63.7,375.084Z" transform="translate(-30.473 -179.442)" fill="#e6e6e6"/>
    <path id="Path_29305" data-name="Path 29305" d="M205.855,375.084v96.5L189.714,497.89l-.991-122.806Z" transform="translate(-90.279 -179.442)" opacity="0.1"/>
    <path id="Path_29306" data-name="Path 29306" d="M393.782,353.685v5.79H47.67v-8.363l32.166-16.727h285.64Z" transform="translate(-22.804 -159.973)" fill="#e6e6e6"/>
    <path id="Path_29307" data-name="Path 29307" d="M393.782,369.025v5.79H47.67v-8.363Z" transform="translate(-22.804 -175.312)" opacity="0.1"/>
    <path id="Path_29308" data-name="Path 29308" d="M122.576,422.753h-15.44l-6.433-4.5h28.95Z" transform="translate(-48.172 -200.091)" fill="#3f3d56"/>
    <path id="Path_29309" data-name="Path 29309" d="M122.576,458.519h-15.44l-6.433-4.5h28.95Z" transform="translate(-48.172 -217.2)" fill="#3f3d56"/>
    <path id="Path_29310" data-name="Path 29310" d="M122.576,509.085h-15.44l-6.433-4.5h28.95Z" transform="translate(-48.172 -241.389)" fill="#3f3d56"/>
    <path id="Path_29311" data-name="Path 29311" d="M122.576,559.65h-15.44l-6.433-4.5h28.95Z" transform="translate(-48.172 -265.578)" fill="#3f3d56"/>
    <path id="Path_29312" data-name="Path 29312" d="M588.767,427.686h15.44l6.433-4.5h-28.95Z" transform="translate(-278.262 -202.451)" fill="#3f3d56"/>
    <path id="Path_29313" data-name="Path 29313" d="M588.767,463.452h15.44l6.433-4.5h-28.95Z" transform="translate(-278.262 -219.56)" fill="#3f3d56"/>
    <path id="Path_29314" data-name="Path 29314" d="M588.767,514.018h15.44l6.433-4.5h-28.95Z" transform="translate(-278.262 -243.749)" fill="#3f3d56"/>
    <path id="Path_29315" data-name="Path 29315" d="M588.767,564.583h15.44l6.433-4.5h-28.95Z" transform="translate(-278.262 -267.938)" fill="#3f3d56"/>
    <path id="Path_29316" data-name="Path 29316" d="M736.109,235.615H606.126a4.915,4.915,0,0,0-4.916,4.916v87.56a4.915,4.915,0,0,0,4.916,4.916h49.342l-1.849,11.8s-10.565,5.612-3.136,5.777,42.423,0,42.423,0,6.768,0-3.962-5.943l-1.739-11.637h48.9a4.915,4.915,0,0,0,4.916-4.916V240.531a4.915,4.915,0,0,0-4.916-4.916Z" transform="translate(-415.089 -172.795)" fill="#3f3d56"/>
    <rect id="Rectangle_1133" data-name="Rectangle 1133" width="130.406" height="72.961" transform="translate(190.825 68.02)" fill="#f2f2f2"/>
    <circle id="Ellipse_443" data-name="Ellipse 443" cx="0.825" cy="0.825" r="0.825" transform="translate(255.203 64.884)" fill="#f2f2f2"/>
    <circle id="Ellipse_444" data-name="Ellipse 444" cx="3.136" cy="3.136" r="3.136" transform="translate(252.892 150.39)" fill="#f2f2f2"/>
    <path id="Path_29317" data-name="Path 29317" d="M400.01,352.5v1.651H311.2v-1.321l.122-.33,2.189-5.942h84.681Z" transform="translate(-148.869 -165.797)" fill="#3f3d56"/>
    <path id="Path_29318" data-name="Path 29318" d="M768.512,464.8c-.162.692-.773,1.421-2.153,2.111-4.952,2.476-15.021-.66-15.021-.66s-7.758-1.32-7.758-4.787a6.184,6.184,0,0,1,.68-.4c2.082-1.1,8.985-3.819,21.225.115a5.105,5.105,0,0,1,2.327,1.525,2.435,2.435,0,0,1,.7,2.1Z" transform="translate(-483.194 -279.711)" fill="#3f3d56"/>
    <path id="Path_29319" data-name="Path 29319" d="M769.135,464.8c-6.061,2.323-11.464,2.5-17.009-1.355a12.176,12.176,0,0,0-7.243-2.385c2.082-1.1,8.985-3.82,21.225.115a5.1,5.1,0,0,1,2.327,1.525,2.434,2.434,0,0,1,.7,2.1Z" transform="translate(-483.818 -279.711)" opacity="0.1"/>
    <ellipse id="Ellipse_445" data-name="Ellipse 445" cx="2.146" cy="0.66" rx="2.146" ry="0.66" transform="translate(275.571 182.414)" fill="#f2f2f2"/>
    <path id="Path_29320" data-name="Path 29320" d="M400.01,357.952V359.6H311.2v-1.321l.122-.33Z" transform="translate(-148.869 -171.246)" opacity="0.1"/>
    <path id="Path_29321" data-name="Path 29321" d="M323.843,115.145a4.462,4.462,0,0,0-2.588.578,6.751,6.751,0,0,0-1.75,2.311,27.639,27.639,0,0,1-7.529,8.5c-2.237,1.639-5.082,3.683-4.7,6.7a9.06,9.06,0,0,0,1.091,2.83c2.064,4.166,7.7,7.386,7.142,12.14,2.051-3.433-.692-5.13,1.358-8.563.977-1.635,2.673-3.48,4.147-2.454.494.344.818.96,1.332,1.262,1.227.72,2.531-.656,3.617-1.631,3.744-3.361,9.068-2.48,13.726-1.433,2.2.494,4.615,1.143,5.915,3.245,1.709,2.764-1.624,5.749-2.466,8.873a1.7,1.7,0,0,0,1.827,2.119c1.4-.138,3.054-.251,3.136-.864,1.759.063,3.914-.137,4.667-1.968a7.7,7.7,0,0,0,.361-2.239c.277-3.076,1.582-5.883,2.447-8.81s1.241-6.359-.219-8.955a10.363,10.363,0,0,0-1.912-2.324C345.164,116.455,334.273,115.133,323.843,115.145Z" transform="translate(-274.464 -115.159)" fill="#2f2e41"/>
    <path id="Path_29322" data-name="Path 29322" d="M320.383,187.441s1.8,15.012-4.8,16.213,6,21.617,6,21.617l30.024,3.6L344.4,204.854s-4.8-1.8-1.8-13.811S320.383,187.441,320.383,187.441Z" transform="translate(-277.537 -148.381)" fill="#ffb8b8"/>
    <path id="Path_29323" data-name="Path 29323" d="M47.028,569.318l2.4,33.026H62.04l-3.6-33.026Z" transform="translate(-22.496 -272.357)" fill="#ffb8b8"/>
    <path id="Path_29324" data-name="Path 29324" d="M224.3,448.5l1.8,27.621,13.811-6-5.4-22.818Z" transform="translate(-107.299 -213.986)" fill="#ffb8b8"/>
    <path id="Path_29325" data-name="Path 29325" d="M274.167,419.191s.6,34.827,4.2,46.236,3,12.009,2.4,13.811-1.2.6-1.2,3.6-1.2,50.439,0,54.643-3.6,11.409,0,12.009,20.416,0,21.016-3.6-4.8-4.8-2.4-7.206,6-51.64,6-51.64l8.407-34.227L328.209,434.8h33.026l10.208,39.631s-4.2,11.409-1.2,11.409,21.016,3.6,21.016-9.608-6-52.241-7.206-53.441.6-5.4-1.2-7.206-22.818-14.411-30.624-16.813-18.757-5.26-18.757-5.26Z" transform="translate(-258.642 -248.329)" fill="#2f2e41"/>
    <path id="Path_29326" data-name="Path 29326" d="M483.97,596.551s-9.007-3-13.21,6-2.4,11.409-2.4,11.409,13.811,4.8,16.213,2.4c1.045-1.045,4.363-1.408,7.779-1.485,5.2-.117,6.586-7.477,1.673-9.191q-.22-.077-.445-.133C488.773,604.356,483.97,596.551,483.97,596.551Z" transform="translate(-351.353 -345.225)" fill="#2f2e41"/>
    <circle id="Ellipse_446" data-name="Ellipse 446" cx="18.014" cy="18.014" r="18.014" transform="translate(38.342 12.939)" fill="#ffb8b8"/>
    <path id="Path_29327" data-name="Path 29327" d="M293.783,230.757s29.423,6,36.629-3.6,10.208,27.021,10.208,27.021l3.6,38.43-5.4,21.016S310.6,336.44,301.59,338.241s-22.818,3-22.818,3,4.2-66.652,4.2-67.853S293.783,230.757,293.783,230.757Z" transform="translate(-260.845 -167.979)" fill="#69cc41"/>
    <path id="Path_29328" data-name="Path 29328" d="M290.956,212.376s-6.546-3.75-8.348-.147-18.614,12.61-20.416,12.61,3.6,49.839,1.2,55.844-13.811,49.839-7.206,53.442,1.8-3.6,8.407,5.4,39.031,9.007,40.832,5.4-14.411-30.624-11.409-55.844,7.806-60.047,3.6-64.851S290.956,212.376,290.956,212.376Z" transform="translate(-249.07 -160.859)" fill="#2f2e41"/>
    <path id="Path_29329" data-name="Path 29329" d="M366.258,219.08l.836-2.878s24.984,8.283,26.185,13.687.6,43.234-3.6,46.236-10.208,7.806-6,15.012,9.007,15.012,12.61,15.612,10.208,4.8,8.407,9.007-23.418-3.6-23.418-3.6-14.411-10.808-13.811-27.622S366.258,219.08,366.258,219.08Z" transform="translate(-302.696 -163.508)" fill="#2f2e41"/>
    <path id="Path_29330" data-name="Path 29330" d="M381.673,357.554l-14.411,27.021s-21.016,21.617-9.007,24.019,18.615-19.816,18.615-19.816l15.612-22.217Z" transform="translate(-297.094 -231.126)" fill="#ffb8b8"/>
    <path id="Path_29331" data-name="Path 29331" d="M328.357,124.185a4.089,4.089,0,0,0-2.107.409,4.91,4.91,0,0,0-1.425,1.633,20.747,20.747,0,0,1-6.129,6.011c-1.821,1.158-4.137,2.6-3.825,4.739a5.924,5.924,0,0,0,.888,2,15.734,15.734,0,0,1,1.912,9.807l5.008-7.279c.795-1.155,2.176-2.46,3.376-1.734.4.243.666.679,1.084.892,1,.509,2.061-.464,2.944-1.153,3.047-2.375,7.381-1.753,11.174-1.013,1.79.349,3.757.808,4.815,2.293,1.759,2.469-.078,6.036.949,8.889a2.62,2.62,0,0,0,1.084-1.73c1.432.044,3.186-.1,3.8-1.391a4.793,4.793,0,0,0,.294-1.583c.225-2.174,1.288-4.158,1.992-6.227s1.01-4.494-.178-6.329a7.657,7.657,0,0,0-1.557-1.643C345.712,125.111,336.847,124.176,328.357,124.185Z" transform="translate(-278.1 -119.485)" fill="#2f2e41"/>
    <path id="Path_29332" data-name="Path 29332" d="M402.143,237.836l5.595,1.485s13.02,33.342,10.018,56.16-4.8,18.014-4.8,18.014-4.8-10.808-15.612-8.407Z" transform="translate(-317.564 -173.857)" fill="#2f2e41"/>
    <path id="Path_29333" data-name="Path 29333" d="M283.983,737.813c-1.448,1.968-1.158,4.781-2.44,6.86-1.112,1.8-3.207,2.747-4.6,4.344a11.651,11.651,0,0,0-1.182,1.7c-1.29,2.161-2.339,4.93-1.068,7.1,1.022,1.747,3.17,2.43,5.141,2.9a18.865,18.865,0,0,0,7.6.609,7.566,7.566,0,0,0,5.879-4.388,16.945,16.945,0,0,1,.629-1.774c1.365-2.688,5.648-2.717,7.045-5.389.978-1.87.079-4.129-.82-6.038l-2.744-5.83c-.911-1.935-4.6-.822-6.527-1.286C288.384,736.016,285.789,735.35,283.983,737.813Z" transform="translate(-258.62 -412.19)" fill="#2f2e41"/>
    <path id="Path_29334" data-name="Path 29334" d="M254.6,376.722l25.22,39.031s15.612,19.815,20.416,10.808-16.813-24.019-16.813-24.019l-16.213-30.023Z" transform="translate(-249.281 -238.285)" fill="#ffb8b8"/>
    <path id="Path_29335" data-name="Path 29335" d="M262.333,239.037l-4.8-1.2s-9.608,3-12.009,15.612-.6,63.049,2.4,63.65,14.829-8.783,16.722-6.793-4.112-8.219-2.31-13.623S262.333,239.037,262.333,239.037Z" transform="translate(-244.406 -173.857)" fill="#2f2e41"/>
    <g id="Group_13" data-name="Group 13" transform="translate(208.622 91.983)">
      <rect id="Rectangle_55" data-name="Rectangle 55" width="15.52" height="3.736" transform="translate(19.543)" fill="#69cc41"/>
      <rect id="Rectangle_56" data-name="Rectangle 56" width="5.461" height="3.736" transform="translate(83.347)" fill="#69cc41"/>
      <rect id="Rectangle_57" data-name="Rectangle 57" width="5.461" height="3.736" transform="translate(94.268)" fill="#69cc41"/>
      <rect id="Rectangle_58" data-name="Rectangle 58" width="37.075" height="3.736" transform="translate(40.524)" fill="#69cc41"/>
      <rect id="Rectangle_59" data-name="Rectangle 59" width="15.52" height="3.736" transform="translate(0 24.142)" fill="#69cc41"/>
      <rect id="Rectangle_60" data-name="Rectangle 60" width="5.461" height="3.736" transform="translate(63.803 24.142)" fill="#69cc41"/>
      <rect id="Rectangle_61" data-name="Rectangle 61" width="5.461" height="3.736" transform="translate(74.725 24.142)" fill="#69cc41"/>
      <rect id="Rectangle_62" data-name="Rectangle 62" width="37.075" height="3.736" transform="translate(20.981 24.142)" fill="#69cc41"/>
      <rect id="Rectangle_63" data-name="Rectangle 63" width="15.52" height="3.736" transform="translate(64.091 8.335)" fill="#69cc41"/>
      <rect id="Rectangle_64" data-name="Rectangle 64" width="15.52" height="3.736" transform="translate(85.071 8.335)" fill="#69cc41"/>
      <rect id="Rectangle_66" data-name="Rectangle 66" width="5.461" height="3.736" transform="translate(0 8.335)" fill="#69cc41"/>
      <rect id="Rectangle_67" data-name="Rectangle 67" width="5.461" height="3.736" transform="translate(10.921 8.335)" fill="#69cc41"/>
      <rect id="Rectangle_68" data-name="Rectangle 68" width="37.075" height="3.736" transform="translate(21.843 8.335)" fill="#69cc41"/>
      <rect id="Rectangle_69" data-name="Rectangle 69" width="15.52" height="3.736" transform="translate(31.902 16.382)" fill="#69cc41"/>
      <rect id="Rectangle_70" data-name="Rectangle 70" width="15.52" height="3.736" transform="translate(10.921 16.382)" fill="#69cc41"/>
      <rect id="Rectangle_71" data-name="Rectangle 71" width="5.461" height="3.736" transform="translate(0 16.382)" fill="#69cc41"/>
      <rect id="Rectangle_73" data-name="Rectangle 73" width="5.461" height="3.736" transform="translate(95.131 16.382)" fill="#69cc41"/>
      <rect id="Rectangle_74" data-name="Rectangle 74" width="37.075" height="3.736" transform="translate(52.595 16.382)" fill="#69cc41"/>
    </g>
  </g>
</svg>
