<svg xmlns="http://www.w3.org/2000/svg" width="22" height="20.335" viewBox="0 0 22 20.335">
  <g id="upload_provider" transform="translate(0 -18.4)">
    <g id="Group_688" data-name="Group 688" transform="translate(0 18.4)">
      <path id="Path_29281" data-name="Path 29281" d="M17.892,23.711A6.373,6.373,0,0,0,6.085,21.594a3.651,3.651,0,0,0-.67-.063,3.493,3.493,0,0,0-3.488,3.488A3.813,3.813,0,0,0,2,25.742a4.854,4.854,0,0,0-2,3.913,5.189,5.189,0,0,0,1.316,3.434,4.7,4.7,0,0,0,3.257,1.638H8.5a.611.611,0,0,0,0-1.221H4.628a3.852,3.852,0,0,1-3.407-3.854,3.626,3.626,0,0,1,1.8-3.122.616.616,0,0,0,.267-.742,2.216,2.216,0,0,1-.136-.778,2.271,2.271,0,0,1,2.267-2.267,2.228,2.228,0,0,1,.774.136.614.614,0,0,0,.765-.312,5.151,5.151,0,0,1,9.785,1.7.61.61,0,0,0,.507.543,4.4,4.4,0,0,1-.416,8.7H13.495a.611.611,0,1,0,0,1.221h3.4a5.412,5.412,0,0,0,3.628-1.791,5.631,5.631,0,0,0-2.633-9.22Z" transform="translate(0 -18.4)" fill="#3b3b3b"/>
      <path id="Path_29282" data-name="Path 29282" d="M165.734,189.68a.609.609,0,0,0,0-.864l-3.235-3.235a.618.618,0,0,0-.43-.181.6.6,0,0,0-.43.181l-3.235,3.235a.613.613,0,0,0,.43,1.045.6.6,0,0,0,.43-.181l2.194-2.194v10.084a.611.611,0,1,0,1.221,0V187.486l2.194,2.194A.6.6,0,0,0,165.734,189.68Z" transform="translate(-151.067 -177.845)" fill="#3b3b3b"/>
    </g>
  </g>
</svg>
