<svg xmlns="http://www.w3.org/2000/svg" width="22" height="28.924" viewBox="0 0 22 28.924">
  <g id="user_black" transform="translate(-41.895)">
    <path id="Path_29217" data-name="Path 29217" d="M110.358,14.146c3.216,0,5.823-3.167,5.823-7.073S115.326,0,110.358,0s-5.823,3.167-5.823,7.073S107.142,14.146,110.358,14.146Z" transform="translate(-57.463)"/>
    <path id="Path_29218" data-name="Path 29218" d="M41.9,300.494c0-.238,0-.067,0,0Z" transform="translate(0 -275.549)"/>
    <path id="Path_29219" data-name="Path 29219" d="M308.085,301.7c0-.065,0-.452,0,0Z" transform="translate(-244.192 -276.571)"/>
    <path id="Path_29220" data-name="Path 29220" d="M63.893,187.711c-.108-6.8-1-8.744-7.8-9.971a4.077,4.077,0,0,1-3.189,1.22,4.077,4.077,0,0,1-3.189-1.22c-6.727,1.214-7.669,3.124-7.793,9.75-.01.541-.015.569-.017.507,0,.118,0,.335,0,.715,0,0,1.619,3.264,11,3.264s11-3.264,11-3.264c0-.244,0-.413,0-.529A4.382,4.382,0,0,1,63.893,187.711Z" transform="translate(-0.012 -163.051)"/>
  </g>
</svg>
