<svg id="vector_rebort" xmlns="http://www.w3.org/2000/svg" width="356.467" height="205.019" viewBox="0 0 356.467 205.019">
  <circle id="Ellipse_559" data-name="Ellipse 559" cx="2.926" cy="2.926" r="2.926" transform="translate(181.089 0)" fill="#f2f2f2"/>
  <circle id="Ellipse_560" data-name="Ellipse 560" cx="2.926" cy="2.926" r="2.926" transform="translate(181.089 11.662)" fill="#f2f2f2"/>
  <circle id="Ellipse_561" data-name="Ellipse 561" cx="2.926" cy="2.926" r="2.926" transform="translate(193.306 0)" fill="#f2f2f2"/>
  <circle id="Ellipse_562" data-name="Ellipse 562" cx="2.926" cy="2.926" r="2.926" transform="translate(193.306 11.662)" fill="#f2f2f2"/>
  <circle id="Ellipse_563" data-name="Ellipse 563" cx="2.926" cy="2.926" r="2.926" transform="translate(205.522 0)" fill="#f2f2f2"/>
  <circle id="Ellipse_564" data-name="Ellipse 564" cx="2.926" cy="2.926" r="2.926" transform="translate(205.522 11.662)" fill="#f2f2f2"/>
  <circle id="Ellipse_565" data-name="Ellipse 565" cx="2.926" cy="2.926" r="2.926" transform="translate(205.522 23.323)" fill="#f2f2f2"/>
  <circle id="Ellipse_566" data-name="Ellipse 566" cx="2.926" cy="2.926" r="2.926" transform="translate(205.522 34.985)" fill="#f2f2f2"/>
  <circle id="Ellipse_567" data-name="Ellipse 567" cx="2.926" cy="2.926" r="2.926" transform="translate(217.739 0)" fill="#f2f2f2"/>
  <circle id="Ellipse_568" data-name="Ellipse 568" cx="2.926" cy="2.926" r="2.926" transform="translate(217.739 11.662)" fill="#f2f2f2"/>
  <circle id="Ellipse_569" data-name="Ellipse 569" cx="2.926" cy="2.926" r="2.926" transform="translate(217.739 23.323)" fill="#f2f2f2"/>
  <circle id="Ellipse_570" data-name="Ellipse 570" cx="2.926" cy="2.926" r="2.926" transform="translate(217.739 34.985)" fill="#f2f2f2"/>
  <circle id="Ellipse_571" data-name="Ellipse 571" cx="2.926" cy="2.926" r="2.926" transform="translate(229.955 0)" fill="#f2f2f2"/>
  <circle id="Ellipse_572" data-name="Ellipse 572" cx="2.926" cy="2.926" r="2.926" transform="translate(229.955 11.662)" fill="#f2f2f2"/>
  <circle id="Ellipse_573" data-name="Ellipse 573" cx="2.926" cy="2.926" r="2.926" transform="translate(242.172 0)" fill="#f2f2f2"/>
  <circle id="Ellipse_574" data-name="Ellipse 574" cx="2.926" cy="2.926" r="2.926" transform="translate(242.172 11.662)" fill="#f2f2f2"/>
  <path id="Path_29712" data-name="Path 29712" d="M889.078,564.7H867.356c0,.624-22.388,1.131-22.388,1.131a5.816,5.816,0,0,0-.955.9,5.615,5.615,0,0,0-1.312,3.62v.9a5.658,5.658,0,0,0,5.656,5.656h40.722a5.661,5.661,0,0,0,5.656-5.656v-.9A5.664,5.664,0,0,0,889.078,564.7Z" transform="translate(-554.653 -410.293)" fill="#3f3d56"/>
  <rect id="Rectangle_1287" data-name="Rectangle 1287" width="5.882" height="38.007" transform="translate(311.348 166.401)" fill="#3f3d56"/>
  <path id="Path_29713" data-name="Path 29713" d="M896.013,667.881c0,.636-8.913.246-19.909.246s-19.909.39-19.909-.246,8.913-5.675,19.909-5.675S896.013,667.245,896.013,667.881Z" transform="translate(-562.042 -463.68)" fill="#3f3d56"/>
  <path id="Path_29714" data-name="Path 29714" d="M619.193,414.365h-5.547l-2.639-21.4h8.187Z" transform="translate(-334.546 -215.162)" fill="#ffb8b8"/>
  <path id="Path_29715" data-name="Path 29715" d="M599.932,436.753h10.7v6.736H593.2A6.736,6.736,0,0,1,599.932,436.753Z" transform="translate(-324.793 -239.136)" fill="#2f2e41"/>
  <path id="Path_29716" data-name="Path 29716" d="M603.557,405.744l-5.292-1.661,3.888-21.2,7.812,2.451Z" transform="translate(-327.569 -209.638)" fill="#ffb8b8"/>
  <path id="Path_29717" data-name="Path 29717" d="M6.736,0h10.7V6.736H0A6.736,6.736,0,0,1,6.736,0Z" transform="translate(260.962 189.73) rotate(17.423)" fill="#2f2e41"/>
  <path id="Path_29718" data-name="Path 29718" d="M854.415,546.989a17.135,17.135,0,0,0-.688-3.176l-1.036-1.3-2.7-3.385-.117,0c-.2.009-1.027.054-2.308.154h-.014c-.792.063-1.76.145-2.859.249-.29.032-.593.059-.9.09v4.724h5.656a1.133,1.133,0,0,1,1.122.986c0,.05.009.095.009.145a1.132,1.132,0,0,1-1.131,1.131H816.6a12.859,12.859,0,0,0-1.2.905,6.734,6.734,0,0,0-2.375,3.556c-1.918,8.434-5.416,24.162-6.448,28.782a2.053,2.053,0,0,0,.611,1.937,2.008,2.008,0,0,0,.665.412l4.081,1.529a2.173,2.173,0,0,0,.52.122c.022,0,.041,0,.063,0a1.22,1.22,0,0,0,.127,0,2.051,2.051,0,0,0,1.9-1.312l3.221-8.452,4.964-13.031,1.964-5.154c2.276.534,21.37,4.76,27.763-2.05a7.27,7.27,0,0,0,1.466-2.312,9.412,9.412,0,0,0,.493-4.561Z" transform="translate(-534.846 -396.289)" fill="#2f2e41"/>
  <path id="Path_29719" data-name="Path 29719" d="M867.073,552.052c-.1-.4-.213-.819-.344-1.24L863,546.125l-.117,0c-.236.014-1.353.072-3.068.213-1.946.163-4.665.425-7.719.837-.09.009-.185.023-.276.036-.3.041-.6.081-.9.127v.837h5.656a1.133,1.133,0,0,1,1.122.986c0,.05.009.1.009.145a1.132,1.132,0,0,1-1.131,1.131h-19.99c-.873.285-1.715.584-2.52.9-4.226,1.674-7.389,3.869-8.036,6.724-.217.959-.457,2.013-.71,3.136-.941,4.172-2.086,9.28-3.122,13.922v0c-.213.959-.425,1.891-.629,2.8-.864,3.891-1.6,7.19-1.986,8.923l-.027.145v.009a2.111,2.111,0,0,0,.127,1.036l0,0v0a2,2,0,0,0,.588.81,2.078,2.078,0,0,0,.584.339l4.081,1.529a2.073,2.073,0,0,0,.71.131,2.007,2.007,0,0,0,.973-.249,2.037,2.037,0,0,0,.932-1.063l8.787-23.058,1.362-3.579c2.276.534,21.37,4.755,27.763-2.05a7.643,7.643,0,0,0,2.027-5.009A13.427,13.427,0,0,0,867.073,552.052Z" transform="translate(-541.965 -400.122)" fill="#2f2e41"/>
  <path id="Path_29720" data-name="Path 29720" d="M896.126,466.534c-.072-.086-.149-.172-.231-.253a11.073,11.073,0,0,0-9.488-3.344,35.906,35.906,0,0,0-4.484.882,11.3,11.3,0,0,0-5.058,2.837,11.046,11.046,0,0,0-3.353,8.235c.018.62.023,1.253.014,1.9,0,.3,0,.6-.009.9h4.461a2.4,2.4,0,0,1,.575.068,2.493,2.493,0,0,1,1.914,2.421v21.049c.3.086.606.172.905.262.095.032.186.059.276.086l.308.1q1.378.428,2.692.9h1.475a1.133,1.133,0,0,1,1.122.986c.308.122.606.244.9.366,1.045.434,2.036.869,2.946,1.29,1.226.561,2.317,1.1,3.231,1.561a2.077,2.077,0,0,0,.927.226,1.993,1.993,0,0,0,1.177-.389,2.5,2.5,0,0,0,.2-.167,2.038,2.038,0,0,0,.62-1.8,57.952,57.952,0,0,1-.407-10.724c.127-3.009.4-6.095.751-9.077.19-1.615.4-3.2.625-4.724.213-1.457.439-2.855.661-4.176A11.133,11.133,0,0,0,896.126,466.534Z" transform="translate(-571.52 -354.521)" fill="#69cc41"/>
  <path id="Path_29721" data-name="Path 29721" d="M870,471.306a5.35,5.35,0,0,0-.715-.249,5.2,5.2,0,0,0-6.127,2.955l-3.108,7.176-.389.9h10.737a2.408,2.408,0,0,1,.575.068l.362-.837,1.375-3.176A5.209,5.209,0,0,0,870,471.306Z" transform="translate(-563.937 -358.922)" fill="#69cc41"/>
  <circle id="Ellipse_575" data-name="Ellipse 575" cx="11.113" cy="11.113" r="11.113" transform="translate(304.6 82.657)" fill="#ffb8b8"/>
  <path id="Path_29722" data-name="Path 29722" d="M906.637,500.968l-6.344.172-.462,4.457-.1,1.032-9.936,4.461-.9.407v7.932l.9-.258,2.859-.815h.014l12.6-3.588.145-.041a4.923,4.923,0,0,0,3.557-4.683l.032-5.262.027-3.878Z" transform="translate(-579.941 -375.363)" fill="#ffb8b8"/>
  <path id="Path_29723" data-name="Path 29723" d="M920.094,475.653a5.2,5.2,0,1,0-10.389.638l.692,11.294a2.03,2.03,0,0,0,.828,1.511,2.007,2.007,0,0,0,1.33.394l4.851-.3,1.47-.091a1.984,1.984,0,0,0,1.4-.683,1.412,1.412,0,0,0,.108-.136,2.022,2.022,0,0,0,.4-1.339Z" transform="translate(-591.334 -358.862)" fill="#69cc41"/>
  <path id="Path_29724" data-name="Path 29724" d="M834.527,518.551h-.583v-.059c-.3.041-.6.081-.9.127v.837h4.181Q835.9,518.981,834.527,518.551Zm0,0h-.583v-.059c-.3.041-.6.081-.9.127v.837h4.181Q835.9,518.981,834.527,518.551Zm4.167,0h-4.751V497.058a3.4,3.4,0,0,0-2.457-3.258,3.188,3.188,0,0,0-.937-.136H790.28a3.4,3.4,0,0,0-3.393,3.393v22.171a3.4,3.4,0,0,0,3.393,3.393h48.414a2.038,2.038,0,0,0,2.022-1.814,1.75,1.75,0,0,0,.014-.222,2.039,2.039,0,0,0-2.036-2.036Zm1.131,2.036a1.132,1.132,0,0,1-1.131,1.131H790.28a2.49,2.49,0,0,1-2.489-2.489V497.058a2.49,2.49,0,0,1,2.489-2.489h40.27a2.409,2.409,0,0,1,.575.068,2.494,2.494,0,0,1,1.914,2.421v22.4h5.656a1.133,1.133,0,0,1,1.122.986C839.821,520.492,839.826,520.537,839.826,520.587Zm-5.3-2.036h-.583v-.059c-.3.041-.6.081-.9.127v.837h4.181Q835.9,518.981,834.527,518.551Z" transform="translate(-524.093 -371.398)" fill="#3f3d56"/>
  <circle id="Ellipse_576" data-name="Ellipse 576" cx="2.715" cy="2.715" r="2.715" transform="translate(283.606 134.032)" fill="#69cc41"/>
  <path id="Path_29725" data-name="Path 29725" d="M884.267,402.985c-2.581,2.306-6.042,4.781-9.2,3.092a5.309,5.309,0,0,1-2.515-5.845c.872-4.141,4.452-6.379,7.918-8.187,4.506-2.351,9.479-4.4,14.524-3.791s9.976,4.781,9.737,9.858c-.192,4.083-3.526,7.892-2.47,11.841,1.062,3.974,5.886,5.513,9.995,5.715s8.632-.148,11.891,2.362c4.158,3.2,4.091,9.9,1.131,14.23s-7.958,6.772-12.868,8.625c-6.5,2.456-13.654,4.23-20.369,2.425s-12.592-8.247-11.608-15.13c.416-2.907,1.946-5.517,3.422-8.056s2.961-5.186,3.271-8.107a7.921,7.921,0,0,0-2.31-6.688,2.007,2.007,0,0,1-.569-2.293Z" transform="translate(-570.926 -313.623)" fill="#2f2e41"/>
  <path id="Path_29726" data-name="Path 29726" d="M206.625,675.252H556.516a.539.539,0,1,0,0-1.077H206.625a.539.539,0,1,0,0,1.077Z" transform="translate(-206.086 -470.233)" fill="#3f3d56"/>
  <path id="Path_29727" data-name="Path 29727" d="M246.516,570.358v.9a5.661,5.661,0,0,0,5.656,5.656h40.722a5.658,5.658,0,0,0,5.656-5.656v-.9a5.615,5.615,0,0,0-1.312-3.62,5.812,5.812,0,0,0-.955-.9s-22.388-.507-22.388-1.131H252.172A5.664,5.664,0,0,0,246.516,570.358Z" transform="translate(-228.223 -410.293)" fill="#3f3d56"/>
  <rect id="Rectangle_1288" data-name="Rectangle 1288" width="5.882" height="38.007" transform="translate(47.027 204.408) rotate(180)" fill="#3f3d56"/>
  <path id="Path_29728" data-name="Path 29728" d="M260.021,667.881c0,.636,8.913.246,19.909.246s19.909.39,19.909-.246-8.913-5.675-19.909-5.675S260.021,667.245,260.021,667.881Z" transform="translate(-235.617 -463.68)" fill="#3f3d56"/>
  <path id="Path_29729" data-name="Path 29729" d="M163.529,415.126h5.547l2.639-21.4h-8.187Z" transform="translate(-89.537 -215.58)" fill="#a0616a"/>
  <path id="Path_29730" data-name="Path 29730" d="M0,0H17.434V6.736H6.736A6.736,6.736,0,0,1,0,0H0Z" transform="translate(90.237 204.698) rotate(179.997)" fill="#2f2e41"/>
  <path id="Path_29731" data-name="Path 29731" d="M174.916,406.506l5.293-1.661-3.888-21.2-7.811,2.451Z" transform="translate(-92.264 -210.055)" fill="#a0616a"/>
  <path id="Path_29732" data-name="Path 29732" d="M0,0H17.434V6.736H6.736A6.736,6.736,0,0,1,0,0H0Z" transform="translate(99.694 196.503) rotate(162.577)" fill="#2f2e41"/>
  <path id="Path_29733" data-name="Path 29733" d="M332.209,583.307,322.062,556.67c-2.277.535-21.369,4.759-27.763-2.049-2.191-2.333-2.619-5.714-1.27-10.048l3.732-4.69.116.006c1.411.074,34.585,1.934,36.859,11.94,1.917,8.436,5.419,24.164,6.447,28.784a2.043,2.043,0,0,1-1.273,2.345l-4.081,1.53a2.019,2.019,0,0,1-.711.129,2.042,2.042,0,0,1-1.906-1.311Z" transform="translate(-253.269 -396.704)" fill="#2f2e41"/>
  <path id="Path_29734" data-name="Path 29734" d="M319.209,590.308,309.062,563.67c-2.277.535-21.369,4.759-27.763-2.049-2.191-2.334-2.619-5.714-1.27-10.048l3.732-4.69.116.006c1.411.074,34.585,1.934,36.859,11.94,1.917,8.436,5.419,24.164,6.446,28.784a2.043,2.043,0,0,1-1.273,2.345l-4.081,1.53a2.018,2.018,0,0,1-.711.13,2.042,2.042,0,0,1-1.907-1.311Z" transform="translate(-246.151 -400.537)" fill="#2f2e41"/>
  <path id="Path_29735" data-name="Path 29735" d="M334.453,511.356a8.686,8.686,0,0,1-7.459-4.24l-3.223-5.459,7.66-4.187,3.253,4.46,22.069-2.325a4.783,4.783,0,0,1,.362-.558h0a4.984,4.984,0,0,1,3.562-1.952,4.929,4.929,0,0,1,3.843,1.363,4.978,4.978,0,0,1-6.449,7.563,4.691,4.691,0,0,1-.372-.317l-21.137,5.389A8.52,8.52,0,0,1,334.453,511.356Z" transform="translate(-270.523 -373.266)" fill="#a0616a"/>
  <path id="Path_29736" data-name="Path 29736" d="M277.484,507.388a2.039,2.039,0,0,1-.823-1.968c1.259-8.3-.19-20.189-1.626-28.7a11.219,11.219,0,0,1,12.47-13.014,36.124,36.124,0,0,1,4.485.884h0A11.129,11.129,0,0,1,300.4,475.66c-.215,8.214,1.453,18.463,2.18,22.488a2.045,2.045,0,0,1-.377,1.589,1.987,1.987,0,0,1-1.4.792c-8.058.822-16.747,4.752-21.209,7.021a2.036,2.036,0,0,1-.927.227A2,2,0,0,1,277.484,507.388Z" transform="translate(-243.751 -354.946)" fill="#ccc"/>
  <path id="Path_29737" data-name="Path 29737" d="M321.4,490.372a2.023,2.023,0,0,1-1.119-1.085l-4.494-10.381a5.2,5.2,0,1,1,9.55-4.134l4.494,10.381a2.039,2.039,0,0,1-1.06,2.677l-5.813,2.516A2.023,2.023,0,0,1,321.4,490.372Z" transform="translate(-265.916 -359.336)" fill="#ccc"/>
  <circle id="Ellipse_577" data-name="Ellipse 577" cx="11.113" cy="11.113" r="11.113" transform="translate(31.814 83.002)" fill="#a0616a"/>
  <path id="Path_29738" data-name="Path 29738" d="M274.652,422.4a1.8,1.8,0,0,1-2.575.148,20.1,20.1,0,0,1-5.734-7.488c-1.445-3.444-1.657-7.646-.012-10.874,1.39-2.729,3.885-4.466,6.376-5.885a10.406,10.406,0,0,1,3.1-1.31,4.07,4.07,0,0,1,3.237.637,3.414,3.414,0,0,1,1.3,3.27,10.115,10.115,0,0,1,4.435-3.329,5.143,5.143,0,0,1,3.418-.229,6.256,6.256,0,0,1,3.443,3.885,8.66,8.66,0,0,1,.568,4.192,5.036,5.036,0,0,1-1.932,3.471,5.438,5.438,0,0,1-4.5.41,35.29,35.29,0,0,0-4.534-1.263,4.269,4.269,0,0,0-4.175,1.6,7.734,7.734,0,0,0-.933,3.465l-.687,6.334a8.394,8.394,0,0,1-.578,2.642A1.467,1.467,0,0,1,274.652,422.4Z" transform="translate(-238.441 -318.41)" fill="#2f2e41"/>
  <path id="Path_29739" data-name="Path 29739" d="M350.776,572.679H332.735a1.921,1.921,0,0,1-1.518-.736,1.954,1.954,0,0,1-.365-1.676,46.3,46.3,0,0,0,0-21.5,1.954,1.954,0,0,1,.365-1.676,1.921,1.921,0,0,1,1.518-.736h18.041a1.947,1.947,0,0,1,1.917,1.632,75.791,75.791,0,0,1,0,23.065A1.947,1.947,0,0,1,350.776,572.679Z" transform="translate(-274.369 -400.246)" fill="#ccc"/>
  <path id="Path_29740" data-name="Path 29740" d="M344.352,565.744v-.53a1.359,1.359,0,0,1,1.357-1.357h9.467a1.359,1.359,0,0,1,1.357,1.357v.53a1.359,1.359,0,0,1-1.357,1.357h-9.467A1.359,1.359,0,0,1,344.352,565.744Z" transform="translate(-281.791 -409.83)" fill="#fff"/>
  <path id="Path_29741" data-name="Path 29741" d="M344.352,578.089v-.53a1.359,1.359,0,0,1,1.357-1.357h9.467a1.359,1.359,0,0,1,1.357,1.357v.53a1.359,1.359,0,0,1-1.357,1.357h-9.467A1.359,1.359,0,0,1,344.352,578.089Z" transform="translate(-281.791 -416.589)" fill="#fff"/>
  <path id="Path_29742" data-name="Path 29742" d="M356.7,500.807a1.987,1.987,0,0,1-.371-1.7,47.056,47.056,0,0,0,0-21.857,1.987,1.987,0,0,1,.371-1.7,1.954,1.954,0,0,1,1.543-.748h18.337a1.978,1.978,0,0,1,1.949,1.658,77.027,77.027,0,0,1,0,23.444,1.978,1.978,0,0,1-1.949,1.658H358.239A1.954,1.954,0,0,1,356.7,500.807Z" transform="translate(-288.315 -361.066)" fill="#69cc41"/>
  <path id="Path_29743" data-name="Path 29743" d="M380,492.634h-9.66a1.359,1.359,0,0,1-1.357-1.357V490.7a1.359,1.359,0,0,1,1.357-1.357H380a1.359,1.359,0,0,1,1.357,1.357v.576A1.359,1.359,0,0,1,380,492.634Z" transform="translate(-295.277 -369.032)" fill="#fff"/>
  <path id="Path_29744" data-name="Path 29744" d="M380,505.181h-9.66a1.359,1.359,0,0,1-1.357-1.357v-.576a1.359,1.359,0,0,1,1.357-1.357H380a1.359,1.359,0,0,1,1.357,1.357v.576A1.359,1.359,0,0,1,380,505.181Z" transform="translate(-295.277 -375.902)" fill="#fff"/>
  <path id="Path_29745" data-name="Path 29745" d="M301.823,525.475a4.985,4.985,0,0,1-2.956-2.786,4.649,4.649,0,0,1-.163-.461l-23.674-6.739a4.923,4.923,0,0,1-3.557-4.68l-.058-9.141,8.726.234.569,5.49,20.244,9.089a4.782,4.782,0,0,1,.593-.3h0a4.982,4.982,0,1,1,.275,9.294Z" transform="translate(-241.856 -375.781)" fill="#a0616a"/>
  <path id="Path_29746" data-name="Path 29746" d="M271.1,489.182a2.023,2.023,0,0,1-.507-1.474l.694-11.29a5.2,5.2,0,0,1,10.387.639l-.694,11.29a2.039,2.039,0,0,1-2.157,1.907l-6.323-.389a2.022,2.022,0,0,1-1.4-.684Z" transform="translate(-241.402 -359.281)" fill="#ccc"/>
  <path id="Path_29747" data-name="Path 29747" d="M446.783,317.922h-37.1a4.077,4.077,0,0,1-4.072-4.072V273.58a4.077,4.077,0,0,1,4.072-4.072h37.1a4.077,4.077,0,0,1,4.072,4.072v40.27A4.077,4.077,0,0,1,446.783,317.922Zm-37.1-47.509a3.171,3.171,0,0,0-3.167,3.167v40.27a3.171,3.171,0,0,0,3.167,3.167h37.1a3.171,3.171,0,0,0,3.167-3.167V273.58a3.171,3.171,0,0,0-3.167-3.167Z" transform="translate(-315.331 -248.665)" fill="#3f3d56"/>
  <path id="Path_29748" data-name="Path 29748" d="M596.783,317.922h-37.1a4.077,4.077,0,0,1-4.072-4.072V273.58a4.077,4.077,0,0,1,4.072-4.072h37.1a4.077,4.077,0,0,1,4.072,4.072v40.27A4.077,4.077,0,0,1,596.783,317.922Zm-37.1-47.509a3.171,3.171,0,0,0-3.167,3.167v40.27a3.171,3.171,0,0,0,3.167,3.167h37.1a3.171,3.171,0,0,0,3.167-3.167V273.58a3.171,3.171,0,0,0-3.167-3.167Z" transform="translate(-397.46 -248.665)" fill="#3f3d56"/>
  <path id="Path_29749" data-name="Path 29749" d="M424.279,297.2h-3.62a2.038,2.038,0,0,1-2.036-2.036v-3.62a2.038,2.038,0,0,1,2.036-2.036h3.62a2.038,2.038,0,0,1,2.036,2.036v3.62A2.038,2.038,0,0,1,424.279,297.2Z" transform="translate(-322.457 -259.616)" fill="#69cc41"/>
  <path id="Path_29750" data-name="Path 29750" d="M424.279,322.2h-3.62a2.038,2.038,0,0,1-2.036-2.036v-3.62a2.038,2.038,0,0,1,2.036-2.036h3.62a2.038,2.038,0,0,1,2.036,2.036v3.62A2.038,2.038,0,0,1,424.279,322.2Z" transform="translate(-322.457 -273.304)" fill="#ccc"/>
  <path id="Path_29751" data-name="Path 29751" d="M467.5,297.662H450.6a1.359,1.359,0,0,1-1.357-1.357v-.576a1.359,1.359,0,0,1,1.357-1.357h16.9a1.359,1.359,0,0,1,1.357,1.357v.576A1.359,1.359,0,0,1,467.5,297.662Z" transform="translate(-339.223 -262.279)" fill="#69cc41"/>
  <path id="Path_29752" data-name="Path 29752" d="M574.969,295.631h-3.62a2.038,2.038,0,0,1-2.036-2.036v-3.62a2.038,2.038,0,0,1,2.036-2.036h3.62a2.038,2.038,0,0,1,2.036,2.036v3.62A2.038,2.038,0,0,1,574.969,295.631Z" transform="translate(-404.964 -258.757)" fill="#ccc"/>
  <path id="Path_29753" data-name="Path 29753" d="M618.191,296.093h-16.9a1.359,1.359,0,0,1-1.357-1.357v-.576a1.359,1.359,0,0,1,1.357-1.357h16.9a1.359,1.359,0,0,1,1.357,1.357v.576A1.359,1.359,0,0,1,618.191,296.093Z" transform="translate(-421.73 -261.42)" fill="#ccc"/>
  <path id="Path_29754" data-name="Path 29754" d="M600.67,320.093H569.291a1.359,1.359,0,0,1-1.357-1.357v-.576a1.359,1.359,0,0,1,1.357-1.357H600.67a1.359,1.359,0,0,1,1.357,1.357v.576A1.359,1.359,0,0,1,600.67,320.093Z" transform="translate(-404.209 -274.561)" fill="#69cc41"/>
  <path id="Path_29755" data-name="Path 29755" d="M600.67,337.093H569.291a1.359,1.359,0,0,1-1.357-1.357v-.576a1.359,1.359,0,0,1,1.357-1.357H600.67a1.359,1.359,0,0,1,1.357,1.357v.576A1.359,1.359,0,0,1,600.67,337.093Z" transform="translate(-404.209 -283.868)" fill="#ccc"/>
  <path id="Path_29756" data-name="Path 29756" d="M600.67,354.093H569.291a1.359,1.359,0,0,1-1.357-1.357v-.576a1.359,1.359,0,0,1,1.357-1.357H600.67a1.359,1.359,0,0,1,1.357,1.357v.576a1.359,1.359,0,0,1-1.358,1.357Z" transform="translate(-404.209 -293.177)" fill="#ccc"/>
  <path id="Path_29757" data-name="Path 29757" d="M746.783,317.922h-37.1a4.077,4.077,0,0,1-4.072-4.072V273.58a4.077,4.077,0,0,1,4.072-4.072h37.1a4.077,4.077,0,0,1,4.072,4.072v40.27A4.077,4.077,0,0,1,746.783,317.922Zm-37.1-47.509a3.171,3.171,0,0,0-3.167,3.167v40.27a3.171,3.171,0,0,0,3.167,3.167h37.1a3.171,3.171,0,0,0,3.167-3.167V273.58a3.171,3.171,0,0,0-3.167-3.167Z" transform="translate(-479.59 -248.665)" fill="#3f3d56"/>
  <path id="Path_29758" data-name="Path 29758" d="M768.191,296.093h-16.9a1.359,1.359,0,0,1-1.357-1.357v-.576a1.359,1.359,0,0,1,1.357-1.357h16.9a1.359,1.359,0,0,1,1.357,1.357v.576A1.359,1.359,0,0,1,768.191,296.093Z" transform="translate(-503.86 -261.42)" fill="#ccc"/>
  <path id="Path_29759" data-name="Path 29759" d="M750.67,320.093H719.291a1.359,1.359,0,0,1-1.357-1.357v-.576a1.359,1.359,0,0,1,1.357-1.357H750.67a1.359,1.359,0,0,1,1.357,1.357v.576A1.359,1.359,0,0,1,750.67,320.093Z" transform="translate(-486.339 -274.561)" fill="#ccc"/>
  <path id="Path_29760" data-name="Path 29760" d="M750.67,337.093H719.291a1.359,1.359,0,0,1-1.357-1.357v-.576a1.359,1.359,0,0,1,1.357-1.357H750.67a1.359,1.359,0,0,1,1.357,1.357v.576A1.359,1.359,0,0,1,750.67,337.093Z" transform="translate(-486.339 -283.868)" fill="#ccc"/>
  <path id="Path_29761" data-name="Path 29761" d="M750.67,354.093H719.291a1.359,1.359,0,0,1-1.357-1.357v-.576a1.359,1.359,0,0,1,1.357-1.357H750.67a1.359,1.359,0,0,1,1.357,1.357v.576a1.359,1.359,0,0,1-1.358,1.357Z" transform="translate(-486.339 -293.177)" fill="#ccc"/>
  <path id="Path_29762" data-name="Path 29762" d="M467.5,322.662H450.6a1.359,1.359,0,0,1-1.357-1.357v-.576a1.359,1.359,0,0,1,1.357-1.357h16.9a1.359,1.359,0,0,1,1.357,1.357v.576A1.359,1.359,0,0,1,467.5,322.662Z" transform="translate(-339.223 -275.967)" fill="#ccc"/>
  <path id="Path_29763" data-name="Path 29763" d="M424.279,347.2h-3.62a2.038,2.038,0,0,1-2.036-2.036v-3.62a2.038,2.038,0,0,1,2.036-2.036h3.62a2.038,2.038,0,0,1,2.036,2.036v3.62A2.038,2.038,0,0,1,424.279,347.2Z" transform="translate(-322.457 -286.993)" fill="#ccc"/>
  <path id="Path_29764" data-name="Path 29764" d="M467.5,347.662H450.6a1.359,1.359,0,0,1-1.357-1.357v-.576a1.359,1.359,0,0,1,1.357-1.357h16.9a1.359,1.359,0,0,1,1.357,1.357v.576A1.359,1.359,0,0,1,467.5,347.662Z" transform="translate(-339.223 -289.655)" fill="#ccc"/>
  <path id="Path_29765" data-name="Path 29765" d="M731.679,290.543c0-.01,0-.021,0-.031a4.072,4.072,0,0,0-4.072-4.072v4.1Z" transform="translate(-491.636 -257.936)" fill="#69cc41"/>
  <path id="Path_29766" data-name="Path 29766" d="M721.679,291.542v-4.1a4.072,4.072,0,1,0,4.071,4.1Z" transform="translate(-486.159 -258.483)" fill="#ccc"/>
</svg>
