<svg xmlns="http://www.w3.org/2000/svg" xmlns:xlink="http://www.w3.org/1999/xlink" width="440.935" height="303.438" viewBox="0 0 440.935 303.438">
  <defs>
    <linearGradient id="linear-gradient" x1="0.5" y1="1.001" x2="0.5" gradientUnits="objectBoundingBox">
      <stop offset="0" stop-color="gray" stop-opacity="0.251"/>
      <stop offset="0.54" stop-color="gray" stop-opacity="0.122"/>
      <stop offset="1" stop-color="gray" stop-opacity="0.102"/>
    </linearGradient>
    <linearGradient id="linear-gradient-2" x1="0.141" y1="0.451" x2="1.272" y2="0.451" xlink:href="#linear-gradient"/>
  </defs>
  <g id="vector_order" transform="translate(0.002 -0.03)">
    <path id="Path_30116" data-name="Path 30116" d="M748.84,280.963a2.923,2.923,0,0,0,.53-1.626c0-3.53-7.192-6.387-16.065-6.387s-16.065,2.857-16.065,6.387a3.012,3.012,0,0,0,.662,1.812c-9.879,1.1-16.533,3.17-16.533,5.543,0,3.526,14.71,6.387,32.9,6.387s32.9-2.861,32.9-6.387C767.158,284.2,759.679,282.008,748.84,280.963Z" transform="translate(-441.664 -189.743)" fill="#69cc41" opacity="0.1"/>
    <g id="Group_1936" data-name="Group 1936" transform="translate(325.474 22.631)" opacity="0.2">
      <path id="Path_30117" data-name="Path 30117" d="M940.275,753.019a18.524,18.524,0,0,0-.167,3.043q10.119.163,20.327.681c.046-.263.093-.538.132-.813a16.162,16.162,0,0,0-.948-8.408c-1.4-3.418-4.014-5.861-7.285-6.329s-6.461,1.138-8.764,4.006A16.127,16.127,0,0,0,940.275,753.019Z" transform="translate(-913.457 -499.309)" fill="#3f3d56"/>
      <ellipse id="Ellipse_657" data-name="Ellipse 657" cx="13.417" cy="10.25" rx="13.417" ry="10.25" transform="translate(27.262 250.765) rotate(-81.82)" fill="#3f3d56"/>
      <ellipse id="Ellipse_658" data-name="Ellipse 658" cx="13.417" cy="10.25" rx="13.417" ry="10.25" transform="translate(29.594 234.536) rotate(-81.82)" fill="#3f3d56"/>
      <ellipse id="Ellipse_659" data-name="Ellipse 659" cx="13.417" cy="10.25" rx="13.417" ry="10.25" transform="translate(31.926 218.303) rotate(-81.82)" fill="#3f3d56"/>
      <ellipse id="Ellipse_660" data-name="Ellipse 660" cx="13.417" cy="10.25" rx="13.417" ry="10.25" transform="translate(34.258 202.07) rotate(-81.82)" fill="#3f3d56"/>
      <path id="Path_30118" data-name="Path 30118" d="M971.512,201.087a49.8,49.8,0,0,0,4.579-5.032l-26.029-8.195,28.8,4.359a49.193,49.193,0,0,0,6.461-38.385l-41.559,14.5L983.2,147.253a49.1,49.1,0,1,0-88.074,42.856,49.165,49.165,0,0,0-6.813,8.067l32.021,22.947L885.219,203.44a49.112,49.112,0,0,0,1.277,46.754,49.092,49.092,0,1,0,76.387,10.978,49.1,49.1,0,0,0,8.632-60.086Z" transform="translate(-871.276 -116.464)" fill="#69cc41"/>
      <path id="Path_30119" data-name="Path 30119" d="M880.406,379.665a48.864,48.864,0,0,0,6.081,31.537,49.092,49.092,0,1,0,76.387,10.978C970.573,414.849,881.188,374.211,880.406,379.665Z" transform="translate(-871.27 -277.472)" opacity="0.1"/>
    </g>
    <g id="Group_1937" data-name="Group 1937" transform="translate(-0.002 38.264)" opacity="0.2">
      <path id="Path_30120" data-name="Path 30120" d="M196.557,713.822a15.732,15.732,0,0,0,.677,2.57q8.249-2.656,16.669-5.032c-.031-.232-.066-.472-.108-.712a14.245,14.245,0,0,0-3.012-6.72c-2.048-2.45-4.819-3.759-7.6-3.244s-4.939,2.71-6.043,5.745A14.442,14.442,0,0,0,196.557,713.822Z" transform="translate(-132.119 -490.096)" fill="#3f3d56"/>
      <ellipse id="Ellipse_661" data-name="Ellipse 661" cx="8.764" cy="11.725" rx="8.764" ry="11.725" transform="translate(60.152 197.8) rotate(-8.99)" fill="#3f3d56"/>
      <ellipse id="Ellipse_662" data-name="Ellipse 662" cx="8.789" cy="11.759" rx="8.789" ry="11.759" transform="matrix(0.987, -0.16, 0.16, 0.987, 58.783, 183.967)" fill="#3f3d56"/>
      <ellipse id="Ellipse_663" data-name="Ellipse 663" cx="8.764" cy="11.725" rx="8.764" ry="11.725" transform="translate(55.273 169.563) rotate(-8.99)" fill="#3f3d56"/>
      <ellipse id="Ellipse_664" data-name="Ellipse 664" cx="8.764" cy="11.725" rx="8.764" ry="11.725" transform="translate(52.838 155.442) rotate(-8.99)" fill="#3f3d56"/>
      <path id="Path_30121" data-name="Path 30121" d="M109.368,219.951a43.741,43.741,0,0,0,2.373-5.419l-23.3.364,24.527-4.324a43.832,43.832,0,0,0,.728-18.372,43.313,43.313,0,0,0-5.721-15.263l-29.849,23.5,26.369-28.386a41.258,41.258,0,0,0-39.384-14.516c-22.82,4.188-38.021,26.517-33.991,49.859A42.86,42.86,0,0,0,44.462,231.9a43.468,43.468,0,0,0-3.379,8.574l32.1,10.223-33.217-5a43.828,43.828,0,0,0,.163,13.959,42.86,42.86,0,0,0,13.347,24.507,43.719,43.719,0,0,0-4.324,27.759c4.03,23.346,25.781,38.865,48.585,34.665s38.021-26.524,33.991-49.87a42.872,42.872,0,0,0-13.347-24.5,43.742,43.742,0,0,0,4.324-27.763,42.872,42.872,0,0,0-13.336-24.5Z" transform="translate(-30.468 -156.85)" fill="#69cc41"/>
      <path id="Path_30122" data-name="Path 30122" d="M55.44,420.372a42.86,42.86,0,0,0,13.347,24.507,43.719,43.719,0,0,0-4.324,27.759c4.03,23.346,25.781,38.865,48.585,34.665s38.021-26.524,33.991-49.87a42.871,42.871,0,0,0-13.347-24.5C137.986,424.715,54.62,415.63,55.44,420.372Z" transform="translate(-45.77 -317.561)" opacity="0.1"/>
    </g>
    <path id="Path_30123" data-name="Path 30123" d="M144.32,651.45c0,20.249,12.7,36.632,28.4,36.632" transform="translate(-100.25 -421.725)" fill="#46455b"/>
    <path id="Path_30124" data-name="Path 30124" d="M217.68,687.432c0-20.474,14.176-37.042,31.7-37.042" transform="translate(-145.212 -421.075)" fill="#69cc41"/>
    <path id="Path_30125" data-name="Path 30125" d="M170.9,656.19c0,19.235,8.1,34.8,18.109,34.8" transform="translate(-116.541 -424.63)" fill="#69cc41"/>
    <path id="Path_30126" data-name="Path 30126" d="M217.68,671.141c0-26.16,16.386-47.331,36.635-47.331" transform="translate(-145.212 -404.784)" fill="#46455b"/>
    <ellipse id="Ellipse_665" data-name="Ellipse 665" cx="197.809" cy="6.577" rx="197.809" ry="6.577" transform="translate(6.521 275.082)" fill="#69cc41" opacity="0.1"/>
    <ellipse id="Ellipse_666" data-name="Ellipse 666" cx="7.231" cy="1.223" rx="7.231" ry="1.223" transform="translate(61.958 269.109)" fill="#69cc41" opacity="0.1"/>
    <path id="Path_30127" data-name="Path 30127" d="M196.66,738.148s4.127-.124,5.369-1.01,6.341-1.936,6.65-.523,6.194,7.061,1.548,7.1-10.816-.724-12.058-1.479S196.66,738.148,196.66,738.148Z" transform="translate(-132.329 -473.499)" fill="#a8a8a8"/>
    <path id="Path_30128" data-name="Path 30128" d="M210.305,746.735c-4.645.035-10.82-.728-12.058-1.483-.945-.573-1.324-2.64-1.448-3.592h-.139s.263,3.329,1.5,4.084,7.405,1.517,12.058,1.479c1.343,0,1.808-.488,1.785-1.2C211.819,746.46,211.3,746.727,210.305,746.735Z" transform="translate(-132.329 -477.014)" opacity="0.2"/>
    <path id="Path_30129" data-name="Path 30129" d="M474.882,181a59.423,59.423,0,0,0-111.1-15.871,47.557,47.557,0,0,0,5.16,94.84H472.106a39.8,39.8,0,0,0,39.678-39.678A39.194,39.194,0,0,0,474.882,181ZM429.25,204.4v30.155H403.856V204.4H376.875l39.678-39.659,39.678,39.678Z" transform="translate(-208.739 -103.968)" fill="#69cc41"/>
    <path id="Path_30130" data-name="Path 30130" d="M387.8,153.954c-.387-2.21-.2-4.591-1.212-6.581a1.432,1.432,0,0,0-.461-.592,1.591,1.591,0,0,0-.825-.19c-.917-.035-1.831-.046-2.748-.023a.761.761,0,0,0-.689.263.28.28,0,0,0-.035.077c-1.049-1.161-1.843-2.628-2.973-3.712.163-.054.321-.1.488-.147a1.554,1.554,0,0,0-.062-.325.4.4,0,0,0-.027-.1c-.008-.031-.035-.147-.058-.221a.723.723,0,0,0-.039-.108,2.141,2.141,0,0,0-.07-.205.3.3,0,0,0-.043-.1l-.081-.205-.046-.1c-.031-.07-.062-.139-.1-.205l-.046-.085c-.035-.074-.074-.147-.112-.221l-.039-.07c-.043-.077-.089-.155-.132-.236a.159.159,0,0,1-.027-.043c-.05-.089-.1-.178-.159-.263h0c-.441-.72-.929-1.428-1.289-2.168a27.988,27.988,0,0,1-1.262-4.154,5.608,5.608,0,0,0-2.416-3.457c-.608-.31-1.421-.585-1.479-1.27a1.513,1.513,0,0,1,.135-.639,8.554,8.554,0,0,1,.631-1.281c.093-.147.19-.294.286-.441l.077-.1c.077-.108.159-.217.24-.317l.1-.128c.081-.1.166-.194.252-.29l.1-.112c.12-.128.24-.252.368-.387a.894.894,0,0,0,.271-.345,1.044,1.044,0,0,0,.019-.41,4.913,4.913,0,0,1,1.161-3.031,11.6,11.6,0,0,0,1.769-2.776c.043-.12.077-.24.108-.364a1.091,1.091,0,0,0,.027-.12c.019-.081.035-.163.05-.248l.023-.139a2.164,2.164,0,0,1,.027-.228v-.906A1.176,1.176,0,0,0,377.5,117v-.132a2.362,2.362,0,0,0-.039-.283V116.5q-.027-.19-.07-.387h0a19.353,19.353,0,0,0-.712-2.423,8.66,8.66,0,0,0-.588-1.409c.143-.027.29-.058.434-.1a6.319,6.319,0,0,1-.314-.55,14.415,14.415,0,0,0,1.978-4.293,19.869,19.869,0,0,0,.387-3.317,68.816,68.816,0,0,0,.151-10.065v-.132a8.129,8.129,0,0,0,.023-2.168,9.1,9.1,0,0,0-1.216-4,4.876,4.876,0,0,0-3.368-2.369,5.326,5.326,0,0,1-.751.7,2.954,2.954,0,0,1-.879-1.366,7.436,7.436,0,0,0,6.236-6.511c0-.12.027-.244.035-.364V76.684a1.094,1.094,0,0,0-.023-.252.7.7,0,0,0,0-.089l-.035-.271v-.058a1.522,1.522,0,0,0-.05-.29v-.031c-.019-.1-.043-.205-.07-.31h0a7.457,7.457,0,0,0-.817-2.005,7.468,7.468,0,0,0,.588-2.152c0-.135.027-.267.035-.387s0-.17,0-.255v-.457a.108.108,0,0,1,0-.035,7.525,7.525,0,0,0-2.086-4.978,4.353,4.353,0,0,0,.368-.774h0c.031-.081.058-.163.081-.248h0c.023-.081.046-.159.066-.24v-.019l.046-.221a.118.118,0,0,1,0-.039,2.164,2.164,0,0,1,.039-.263,2.13,2.13,0,0,1,.023-.271V62.4a4.579,4.579,0,0,0-9.128-.205,4.726,4.726,0,0,0,.043,1.405,7.491,7.491,0,0,0-4.154,5.841,7.6,7.6,0,0,0-.043,1.254,7.552,7.552,0,0,0-1.161,3.484h0v.139c0,.155-.019.314-.019.468a7.521,7.521,0,0,0,2.892,5.95,5.292,5.292,0,0,0,1.463,1.548,5.831,5.831,0,0,1,.236.968,2.934,2.934,0,0,1-.89,2.4c-.166.139-.352.255-.526.387a.98.98,0,0,0-.538,0,7.808,7.808,0,0,0-4.827,3.77,7.354,7.354,0,0,0-.48,1.347l-.108.166a19.356,19.356,0,0,0-2.578,6.194,13.655,13.655,0,0,1-.937,3.321,3.43,3.43,0,0,0-.306.677,6.762,6.762,0,0,0-.046,1.088,17.576,17.576,0,0,1-.565,1.889c-.077.387-.062.774-.128,1.161a11.842,11.842,0,0,1-.724,1.936c-.41,1.138-.406,2.388-.712,3.561a1.25,1.25,0,0,1-.24.53,2.729,2.729,0,0,1-.805.434,1.777,1.777,0,0,0-.809,1.212,5.329,5.329,0,0,0-.027,1.51L352,116.8l-2.2.666-3.608,1.1a10.738,10.738,0,0,0-3,1.266,5.509,5.509,0,0,0-1.889,2.292,11.544,11.544,0,0,0-.7,2.992,45.454,45.454,0,0,1-1.854,8.439c-.074.209-.151.422-.228.631h0l-.244.615c-.019.043-.039.085-.054.128l-.209.492c-.093.209-.19.414-.29.619l8.45,2.818a2.724,2.724,0,0,0,.035.329c.294,2.075.151,4.181.422,6.259a4.043,4.043,0,0,0,.236,1.01,1.44,1.44,0,0,0-.445.7,3.747,3.747,0,0,0-.043,1.347c.1,1.061.19,2.121.286,3.182a4.924,4.924,0,0,1,0,1.161,12.48,12.48,0,0,1-.728,1.986,1.742,1.742,0,0,0,.345,1.936,1.37,1.37,0,0,0,1.332.12,3.128,3.128,0,0,0,1.1-.848c1.7-1.889,2.462-4.44,3.782-6.619a12.479,12.479,0,0,0,.906-1.576c.182-.422.3-.871.445-1.308a13.435,13.435,0,0,1,.728-1.7c.159-.314.774-1.068.635-1.417-.217-.6-2.536-1.126-3.1-1.312a1.548,1.548,0,0,0-1.134-.05.713.713,0,0,0-.155.1l-.2-2.559c.345-.031.685-.074,1.022-.132q0-.72-.035-1.452c0-.441-.019-.886-.031-1.332-.023-1.084-.046-2.168-.074-3.232a17.9,17.9,0,0,0-.12-1.877c-.132-.948-.422-1.877-.515-2.834a1.08,1.08,0,0,1,.48-.217h0a3.4,3.4,0,0,1,.821-.031h.217a7.03,7.03,0,0,0,3.418-.945c1.065-.554,2.052-1.246,3.1-1.816l.387-.205.147-.074.248-.124.205-.1.046-.023c.615-.294,1.239-.581,1.835-.9a2.073,2.073,0,0,0,.132.19,1.235,1.235,0,0,0,1.289.468,20.148,20.148,0,0,0-1.808,5.369c-.317,2.752.774,5.419,1.862,7.982l3.441,8.129c.387.9.886,1.9,1.827,2.117a2.71,2.71,0,0,0,1.727-.345,32.33,32.33,0,0,0,4.436-2.834l.058.046a15.138,15.138,0,0,1,3.023,3.84l2.412,3.964a1.2,1.2,0,0,0,.1.581,3.379,3.379,0,0,0,.677.879,11.415,11.415,0,0,1,2.9,5.942,3.651,3.651,0,0,0,.48,1.618,2.375,2.375,0,0,0,3,.329,1.889,1.889,0,0,0,.751-.619,2.446,2.446,0,0,0,.3-.937,12.928,12.928,0,0,0,.29-2.493A29.076,29.076,0,0,0,387.8,153.954ZM373.955,81.016a5.659,5.659,0,0,0,.488-.36,7.486,7.486,0,0,1-1.548,2.656h0c-.163.178-.337.345-.515.507v-.124c-.019-.387,0-.817,0-1.227a5.179,5.179,0,0,0,1.576-1.452Zm-13.669,30.546.023-.074a1.478,1.478,0,0,1,.352.36,1.463,1.463,0,0,0,.054,1.312c.2.341.565.658.488,1.049s-.573.546-.975.612c-.53.085-1.053.182-1.576.286v-.027a4.065,4.065,0,0,0-.174-1.289A3.726,3.726,0,0,0,360.286,111.562Z" transform="translate(-218.79 -58.05)" fill="url(#linear-gradient)"/>
    <path id="Path_30131" data-name="Path 30131" d="M415.691,68.843a4.595,4.595,0,1,0-8.516-2.9,4.5,4.5,0,0,0,.043,1.39,7.355,7.355,0,0,0-4.2,7.018,7.386,7.386,0,1,0,13.591,4.03v-.352a7.39,7.39,0,0,0-.9-9.186Z" transform="translate(-258.083 -60.398)" fill="#46455b"/>
    <g id="Group_1938" data-name="Group 1938" transform="translate(143.738 5.492)" opacity="0.1">
      <path id="Path_30132" data-name="Path 30132" d="M415.59,72.475l.062-.035a2.383,2.383,0,0,1-.035-.24.226.226,0,0,0,0,.05A2.1,2.1,0,0,0,415.59,72.475Z" transform="translate(-410.248 -72.196)"/>
      <path id="Path_30133" data-name="Path 30133" d="M417.7,91.864a7.355,7.355,0,0,1-1.142,3.147v.348a7.386,7.386,0,0,1-14.745.6c0,.2-.027.387-.027.6a7.386,7.386,0,1,0,14.772,0c0-.12,0-.236,0-.352A7.313,7.313,0,0,0,417.7,93.06a7.127,7.127,0,0,0,.027-1.49A1.083,1.083,0,0,1,417.7,91.864Z" transform="translate(-401.79 -84.068)"/>
      <path id="Path_30134" data-name="Path 30134" d="M438.228,72.19a4.611,4.611,0,0,1-.608,1.757c.132.132.252.271.387.41a4.58,4.58,0,0,0,.24-1.01A4.451,4.451,0,0,0,438.228,72.19Z" transform="translate(-423.75 -72.19)"/>
    </g>
    <path id="Path_30135" data-name="Path 30135" d="M360,272.56a3.349,3.349,0,0,0,.337,1.208,1.324,1.324,0,0,0,.979.716,1.974,1.974,0,0,0,1.08-.314,3.7,3.7,0,0,0,1.68-1.4,3.8,3.8,0,0,0,.228-2.11l-.441-5.632c-1.061-.031-2.129-.031-3.194.027s-1.239.306-1.092,1.336C359.869,268.434,359.714,270.513,360,272.56Z" transform="translate(-232.153 -184.875)" fill="#fbbebe"/>
    <path id="Path_30136" data-name="Path 30136" d="M435.283,283.569l2.528,4.088a1.007,1.007,0,0,0,.554.519.84.84,0,0,0,.526-.093,6.58,6.58,0,0,0,2.11-1.75,3.871,3.871,0,0,0,1.014-1.548,1.978,1.978,0,0,0-.5-1.862,5.948,5.948,0,0,0-.948-.689c-2-1.351-2.9-3.914-4.877-5.3a.774.774,0,0,0-.387-.174.852.852,0,0,0-.41.139l-2.71,1.479c-1.161.639-.8.716.089,1.405A15.347,15.347,0,0,1,435.283,283.569Z" transform="translate(-276.227 -192.078)" fill="#fbbebe"/>
    <path id="Path_30137" data-name="Path 30137" d="M364.922,275.9a1.548,1.548,0,0,0-1.134-.039,1.247,1.247,0,0,0-.592.933,11.418,11.418,0,0,1-.166,1.134,3.871,3.871,0,0,1-1.1,1.548,1.649,1.649,0,0,1-.693.484c-.368.093-.755-.077-1.126,0a1.231,1.231,0,0,0-.886.906,3.553,3.553,0,0,0-.043,1.328l.286,3.136a4.8,4.8,0,0,1,0,1.161,12.184,12.184,0,0,1-.728,1.959,1.747,1.747,0,0,0,.345,1.936,1.4,1.4,0,0,0,1.336.116,3.1,3.1,0,0,0,1.1-.836c1.7-1.858,2.466-4.378,3.79-6.523a12.529,12.529,0,0,0,.906-1.548c.182-.418.3-.859.445-1.289a12.851,12.851,0,0,1,.732-1.676c.155-.31.774-1.053.635-1.4C367.822,276.6,365.5,276.079,364.922,275.9Z" transform="translate(-231.582 -191.471)" fill="#46455b"/>
    <path id="Path_30138" data-name="Path 30138" d="M450.195,291.583a3.259,3.259,0,0,1-1.8,1.548,1.653,1.653,0,0,0-.608.314.945.945,0,0,0-.108,1.034,3.341,3.341,0,0,0,.681.867,11.2,11.2,0,0,1,2.9,5.857,3.643,3.643,0,0,0,.484,1.6c.646.886,2.028.828,3,.321a1.935,1.935,0,0,0,.751-.608,2.392,2.392,0,0,0,.3-.925,12.572,12.572,0,0,0,.29-2.458,26.348,26.348,0,0,0-.883-4.587c-.387-2.179-.2-4.529-1.216-6.5a1.432,1.432,0,0,0-.453-.6,1.629,1.629,0,0,0-.828-.186c-.914-.035-1.835-.043-2.752-.023a.768.768,0,0,0-.689.259.8.8,0,0,0,.1.747C449.939,289.361,450.86,290.24,450.195,291.583Z" transform="translate(-286.115 -198.497)" fill="#46455b"/>
    <path id="Path_30139" data-name="Path 30139" d="M361.079,195.183a1.421,1.421,0,0,0-.333,1.788c.205.337.569.65.488,1.037s-.573.534-.975.6a79.76,79.76,0,0,0-10.452,2.644l-3.616,1.088a10.789,10.789,0,0,0-3,1.246,5.419,5.419,0,0,0-1.889,2.257,11.226,11.226,0,0,0-.7,2.95,36.025,36.025,0,0,1-2.884,10.777l8.76,2.876a12.875,12.875,0,0,0,2.628.658,9.623,9.623,0,0,0,2.559-.124c-.054-1.955-.089-3.972-.143-5.93a16.371,16.371,0,0,0-.12-1.85c-.132-.937-.422-1.85-.515-2.795a2.241,2.241,0,0,1,1.517-.236,7.181,7.181,0,0,0,3.43-.925c1.061-.55,2.052-1.231,3.1-1.792,1.761-.933,3.767-1.548,5.114-3.031-.685,2.613-2.323,4.889-2.621,7.572s.774,5.361,1.87,7.866l3.449,8.005c.387.883.886,1.877,1.827,2.087a2.768,2.768,0,0,0,1.73-.341c3.174-1.486,5.714-4.285,9.1-5.176-.255-1.68-1.579-3.07-2.323-4.591a26.825,26.825,0,0,1-1.262-4.1,5.5,5.5,0,0,0-2.423-3.407c-.608-.306-1.425-.577-1.479-1.254a1.386,1.386,0,0,1,.135-.631,8.156,8.156,0,0,1,2.063-3,.964.964,0,0,0,.271-.341,1.079,1.079,0,0,0,.019-.387,4.784,4.784,0,0,1,1.161-2.988A11.467,11.467,0,0,0,377.334,203c.631-1.769,0-3.712-.619-5.481a5.52,5.52,0,0,0-1.037-2.009,5.107,5.107,0,0,0-3.259-1.25C368.6,193.828,364.118,192.826,361.079,195.183Z" transform="translate(-218.778 -141.156)" fill="#46455b"/>
    <g id="Group_1939" data-name="Group 1939" transform="translate(118.924 53.907)" opacity="0.1">
      <path id="Path_30140" data-name="Path 30140" d="M429.74,212.769a4.7,4.7,0,0,0-1.161,2.988,1.08,1.08,0,0,1-.019.387.964.964,0,0,1-.271.341,8.157,8.157,0,0,0-2.063,3,1.393,1.393,0,0,0-.135.631,1.212,1.212,0,0,0,.774.906,8.131,8.131,0,0,1,1.432-1.742.964.964,0,0,0,.271-.341,1.08,1.08,0,0,0,.019-.387,4.784,4.784,0,0,1,1.161-2.988,11.467,11.467,0,0,0,1.773-2.737,5.683,5.683,0,0,0,.093-3.1q-.039.151-.093.3A11.306,11.306,0,0,1,429.74,212.769Z" transform="translate(-391.87 -204.903)"/>
      <path id="Path_30141" data-name="Path 30141" d="M397.05,197.91a.732.732,0,0,0,.554-.5.5.5,0,0,0,0-.151l-.166.12A1.347,1.347,0,0,0,397.05,197.91Z" transform="translate(-374.072 -197.26)"/>
      <path id="Path_30142" data-name="Path 30142" d="M349.086,257.417a12.872,12.872,0,0,1-2.628-.658l-7.742-2.539a22.269,22.269,0,0,1-1.026,2.458l8.768,2.876a12.874,12.874,0,0,0,2.628.658,9.622,9.622,0,0,0,2.559-.124c-.027-.917-.046-1.85-.07-2.783A9.582,9.582,0,0,1,349.086,257.417Z" transform="translate(-337.69 -232.171)"/>
      <path id="Path_30143" data-name="Path 30143" d="M407.77,260.351a2.768,2.768,0,0,1-1.73.341c-.941-.209-1.448-1.2-1.827-2.086l-3.449-8.005a21.918,21.918,0,0,1-1.808-5.47c-.023.132-.043.263-.062.387-.314,2.71.774,5.361,1.87,7.866l3.449,8.005c.387.883.886,1.877,1.827,2.086a2.768,2.768,0,0,0,1.73-.341c3.174-1.486,5.714-4.285,9.1-5.176a6.58,6.58,0,0,0-1.041-2.45C412.945,256.642,410.611,259.015,407.77,260.351Z" transform="translate(-375.168 -226.599)"/>
      <path id="Path_30144" data-name="Path 30144" d="M384.918,219.38c-1.347,1.471-3.352,2.1-5.114,3.031-1.057.561-2.048,1.243-3.1,1.792a7.185,7.185,0,0,1-3.43.929c-.523,0-1.111-.1-1.517.232.085.871.337,1.719.48,2.582a4.648,4.648,0,0,1,1.037-.023,7.18,7.18,0,0,0,3.43-.925c1.061-.55,2.052-1.231,3.1-1.792,1.161-.615,2.427-1.1,3.542-1.777A30.525,30.525,0,0,0,384.918,219.38Z" transform="translate(-358.571 -210.817)"/>
    </g>
    <path id="Path_30145" data-name="Path 30145" d="M410.4,121.053a2.861,2.861,0,0,1-.89,2.365c-.213.182-.465.317-.67.507a1.816,1.816,0,0,0,.263,2.76,3.45,3.45,0,0,0,2.388.17,13.8,13.8,0,0,0,3.136-.817,5.183,5.183,0,0,0,2.47-2.025,3.043,3.043,0,0,1-1.405-2.516c-.054-1,.221-2.141-.414-2.919a2.554,2.554,0,0,0-2.71-.488c-.468.132-.921.31-1.39.437-.24.062-1.022.066-1.161.24C409.747,119.086,410.375,120.546,410.4,121.053Z" transform="translate(-262.058 -94.731)" fill="#fbbebe"/>
    <path id="Path_30146" data-name="Path 30146" d="M410.4,121.053a2.861,2.861,0,0,1-.89,2.365c-.213.182-.465.317-.67.507a1.816,1.816,0,0,0,.263,2.76,3.45,3.45,0,0,0,2.388.17,13.8,13.8,0,0,0,3.136-.817,5.183,5.183,0,0,0,2.47-2.025,3.043,3.043,0,0,1-1.405-2.516c-.054-1,.221-2.141-.414-2.919a2.554,2.554,0,0,0-2.71-.488c-.468.132-.921.31-1.39.437-.24.062-1.022.066-1.161.24C409.747,119.086,410.375,120.546,410.4,121.053Z" transform="translate(-262.058 -94.731)" opacity="0.1"/>
    <circle id="Ellipse_667" data-name="Ellipse 667" cx="5.191" cy="5.191" r="5.191" transform="translate(145.843 15.886)" fill="#fbbebe"/>
    <path id="Path_30147" data-name="Path 30147" d="M376.427,211.831a3.514,3.514,0,0,1-.488,1.161,5.373,5.373,0,0,0-.619,3.542,3.728,3.728,0,0,0,2.179,2.756,1.49,1.49,0,0,0,1.49-.093,4.99,4.99,0,0,1-.689-3.271,1.1,1.1,0,0,1,.143-.608.387.387,0,0,1,.55-.1,4.885,4.885,0,0,0,.406,2.086c.108.252.294.53.573.523.387,0,.5-.546.484-.941a10.427,10.427,0,0,0-.914-4.7,5.554,5.554,0,0,1-.774-1.583.937.937,0,0,0-.2-.554.693.693,0,0,0-.29-.135c-.445-.128-1.506-.519-1.874-.1S376.5,211.3,376.427,211.831Z" transform="translate(-241.783 -150.937)" fill="#fbbebe"/>
    <path id="Path_30148" data-name="Path 30148" d="M383.448,144.07c-.6-.07-1.065.476-1.39.979a18.929,18.929,0,0,0-2.586,6.124,13.138,13.138,0,0,1-.937,3.275,3.336,3.336,0,0,0-.306.666,7.1,7.1,0,0,0-.046,1.076,17.386,17.386,0,0,1-.565,1.862c-.077.387-.062.774-.132,1.161a11.327,11.327,0,0,1-.72,1.9c-.414,1.123-.41,2.354-.716,3.511a1.2,1.2,0,0,1-.24.519c-.205.228-.538.283-.805.43a1.75,1.75,0,0,0-.813,1.2,5.163,5.163,0,0,0-.027,1.486l.24,3.07c.244-.1.387-.387.612-.554a1.729,1.729,0,0,1,1.405-.155l.7.128a3.017,3.017,0,0,1,1.935.859c.364-.573.159-1.413.716-1.792.182-.124.41-.163.6-.271a1.343,1.343,0,0,0,.612-1.076,3.971,3.971,0,0,0-.174-1.274,3.725,3.725,0,0,0,1.808-2.2,18.4,18.4,0,0,0,.836-3.391,87.635,87.635,0,0,0,1.626-13.792,6.631,6.631,0,0,0-.252-2.3C384.59,144.779,384.218,144.156,383.448,144.07Z" transform="translate(-241.096 -110.75)" fill="#69cc41"/>
    <path id="Path_30149" data-name="Path 30149" d="M383.448,144.07c-.6-.07-1.065.476-1.39.979a18.929,18.929,0,0,0-2.586,6.124,13.138,13.138,0,0,1-.937,3.275,3.336,3.336,0,0,0-.306.666,7.1,7.1,0,0,0-.046,1.076,17.386,17.386,0,0,1-.565,1.862c-.077.387-.062.774-.132,1.161a11.327,11.327,0,0,1-.72,1.9c-.414,1.123-.41,2.354-.716,3.511a1.2,1.2,0,0,1-.24.519c-.205.228-.538.283-.805.43a1.75,1.75,0,0,0-.813,1.2,5.163,5.163,0,0,0-.027,1.486l.24,3.07c.244-.1.387-.387.612-.554a1.729,1.729,0,0,1,1.405-.155l.7.128a3.017,3.017,0,0,1,1.935.859c.364-.573.159-1.413.716-1.792.182-.124.41-.163.6-.271a1.343,1.343,0,0,0,.612-1.076,3.971,3.971,0,0,0-.174-1.274,3.725,3.725,0,0,0,1.808-2.2,18.4,18.4,0,0,0,.836-3.391,87.635,87.635,0,0,0,1.626-13.792,6.631,6.631,0,0,0-.252-2.3C384.59,144.779,384.218,144.156,383.448,144.07Z" transform="translate(-241.096 -110.75)" opacity="0.1"/>
    <path id="Path_30150" data-name="Path 30150" d="M407.757,131.24a6.55,6.55,0,0,1-3.155,1.835,19.355,19.355,0,0,1-3.658.538,2.322,2.322,0,0,1-1.13-.1.774.774,0,0,1-.468-.925,1.108,1.108,0,0,0,.135-.36c0-.317-.472-.345-.774-.252a7.812,7.812,0,0,0-4.835,3.72,11.226,11.226,0,0,0-.859,3.422,28.62,28.62,0,0,0-.286,9.29,29.477,29.477,0,0,1,.945,4.87c.023.929-.135,1.854-.128,2.783a1.405,1.405,0,0,0,.248.917c.143.166.36.271.461.468.166.325-.058.774.163,1.072.275.364.84.1,1.216-.155a9.654,9.654,0,0,1,6.422-1.614c2.71.29,5.419,1.742,8.059,1.014a3.692,3.692,0,0,1-.348-.627,18.349,18.349,0,0,1,.743-13.22,16.944,16.944,0,0,0,1.819-4.235,8.127,8.127,0,0,0,.027-2.148,8.9,8.9,0,0,0-1.219-3.945A4.834,4.834,0,0,0,407.757,131.24Z" transform="translate(-252.325 -102.89)" fill="#69cc41"/>
    <path id="Path_30151" data-name="Path 30151" d="M399.09,216.2a4.788,4.788,0,0,0-.3,1.769,10.678,10.678,0,0,0,.085,1.723,2.756,2.756,0,0,0,.507,1.355,1.235,1.235,0,0,0,1.293.461,1.355,1.355,0,0,0,.774-.867,8.261,8.261,0,0,0,.248-1.185,19.9,19.9,0,0,0,.855-3.484,1.01,1.01,0,0,0-.066-.418,2.374,2.374,0,0,0-1.866-.964C399.957,214.692,399.337,215.629,399.09,216.2Z" transform="translate(-256.212 -153.968)" fill="#fbbebe"/>
    <path id="Path_30152" data-name="Path 30152" d="M414.442,142.56c-.1,1.034.9,1.812,1.293,2.768a4.735,4.735,0,0,1,.271,1.394,66.339,66.339,0,0,1-.155,9.921,18.523,18.523,0,0,1-.387,3.271,18.877,18.877,0,0,1-3.271,6.112,5.185,5.185,0,0,1-.7.859,5.254,5.254,0,0,1-1.3.774l-4.607,2.234a8.9,8.9,0,0,0-1.637.941,4.467,4.467,0,0,0-1.355,1.765c-.894-.457-1.823-.867-2.71-1.324-.209-.108-.445-.248-.48-.48-.046-.31.279-.53.5-.774a4.557,4.557,0,0,0,.774-1.572c.743-1.781,2.605-2.919,3.279-4.723a7.163,7.163,0,0,1,.8-2.059,5.1,5.1,0,0,1,.879-.774,14.815,14.815,0,0,0,1.935-1.994,3.387,3.387,0,0,0,.639-.933,4.615,4.615,0,0,0,.151-1.634c.035-1.8.852-3.484,1.351-5.218.468-1.63.666-3.341,1.281-4.924A5.694,5.694,0,0,1,414.442,142.56Z" transform="translate(-256.587 -109.828)" opacity="0.1"/>
    <path id="Path_30153" data-name="Path 30153" d="M415.954,142.56c-.1,1.034.894,1.812,1.289,2.768a4.739,4.739,0,0,1,.275,1.394,66.864,66.864,0,0,1-.155,9.921,18.525,18.525,0,0,1-.406,3.271,18.877,18.877,0,0,1-3.271,6.112,5.185,5.185,0,0,1-.7.859,5.254,5.254,0,0,1-1.3.774l-4.61,2.234a9.158,9.158,0,0,0-1.637.941,4.5,4.5,0,0,0-1.355,1.765c-.894-.457-1.819-.867-2.71-1.324-.209-.108-.445-.248-.48-.48-.05-.31.275-.53.5-.774a4.425,4.425,0,0,0,.774-1.572c.739-1.781,2.605-2.919,3.279-4.723a7.163,7.163,0,0,1,.8-2.059,4.828,4.828,0,0,1,.879-.774,14.815,14.815,0,0,0,1.935-1.994,3.387,3.387,0,0,0,.639-.933,4.708,4.708,0,0,0,.151-1.634c.035-1.8.848-3.484,1.347-5.218.472-1.63.666-3.341,1.281-4.924A5.757,5.757,0,0,1,415.954,142.56Z" transform="translate(-257.499 -109.828)" fill="#69cc41"/>
    <path id="Path_30154" data-name="Path 30154" d="M419.987,91.635a7.355,7.355,0,0,0-4.607.956,2.751,2.751,0,0,1,.615.046,7.386,7.386,0,0,1,2.837,13.711,7.386,7.386,0,0,0,1.161-14.71Z" transform="translate(-266.382 -78.583)" fill="#46455b"/>
    <path id="Path_30155" data-name="Path 30155" d="M418.044,98.7a3.364,3.364,0,0,1,.058,2.586c-.035-.1-.074-.209-.12-.314-.914-2.032-3.724-2.872-6.283-1.877a5.129,5.129,0,0,0-3.031,2.892c-.65-1.966.67-4.219,3.1-5.164C414.32,95.823,417.131,96.663,418.044,98.7Z" transform="translate(-262.167 -81.536)" fill="#46455b"/>
    <g id="Group_1940" data-name="Group 1940" transform="translate(148.998 2.322)" opacity="0.1">
      <path id="Path_30156" data-name="Path 30156" d="M422.274,98.512a4.624,4.624,0,0,0-6.894-5.6,2.75,2.75,0,0,1,.615.046,7.382,7.382,0,0,1,6.279,5.551Z" transform="translate(-415.38 -81.247)"/>
      <path id="Path_30157" data-name="Path 30157" d="M425.364,84.582a7.4,7.4,0,0,0-4.936-6.372,7.467,7.467,0,0,0-1.959.8,2.8,2.8,0,0,1,.619.046A7.378,7.378,0,0,1,425.364,84.582Z" transform="translate(-417.274 -72.709)"/>
      <path id="Path_30158" data-name="Path 30158" d="M429.771,67.825a2.778,2.778,0,0,0-4.161-3.348,1.7,1.7,0,0,1,.387.031A4.452,4.452,0,0,1,429.771,67.825Z" transform="translate(-421.65 -64)"/>
      <path id="Path_30159" data-name="Path 30159" d="M431.732,106a7.4,7.4,0,0,1-5.721,7.8,7.432,7.432,0,0,1-1.711,1.378A7.386,7.386,0,0,0,431.732,106Z" transform="translate(-420.847 -89.742)"/>
    </g>
    <path id="Path_30160" data-name="Path 30160" d="M544.627,304.677a2.845,2.845,0,0,0-3.4-.166,4.825,4.825,0,0,0-1.428,2.423,17.3,17.3,0,0,0-1.339,4.022c-.344,3.871-3.058,7.127-3.871,10.92a20.8,20.8,0,0,1-.917,4.045,12.187,12.187,0,0,1-.929,1.6,42.312,42.312,0,0,0-3.484,6.747,5.125,5.125,0,0,0-1.765,1.367,6.58,6.58,0,0,1-2.419,1.471,2.389,2.389,0,0,0-1,.492c-.387.41-.387,1.072-.708,1.548a2.291,2.291,0,0,1-.883.724,3.3,3.3,0,0,1-.054-.333c-.081-.592-.147-1.185-.209-1.777a6.7,6.7,0,0,0-.914-8.652,13.019,13.019,0,0,1,.081-2.772,1.219,1.219,0,0,0-.387-1.231c-.19-.12-.422-.147-.623-.248a2.528,2.528,0,0,1-.728-.747,3.484,3.484,0,0,0-4.444-.658c-1.084.724-1.657,2.009-2.582,2.934-.48.476-1.049.852-1.525,1.328a6.867,6.867,0,0,0-1.773,3.689,20.084,20.084,0,0,0-.166,4.15,3.793,3.793,0,0,0,.178,1.239,3.256,3.256,0,0,0,.565.9,10.754,10.754,0,0,0,4.351,3.364,1.88,1.88,0,0,1,.019.248,1.648,1.648,0,0,1-.031.387l-.19-.031a7.87,7.87,0,0,1-2.079-.267c-1.1-.476-1.548-1.877-2.636-2.427a1.61,1.61,0,0,0-.283-.116,17.946,17.946,0,0,0-1.575-5.2,6.439,6.439,0,0,1-.871-2.454,6.245,6.245,0,0,1,.538-2.357,60.9,60.9,0,0,0,2.067-8.129q.527-2.59,1.061-5.179a7.779,7.779,0,0,0,1.262-1.475,7.185,7.185,0,0,0,1.262-3.65,4.951,4.951,0,0,0-1.277-3.588,2.121,2.121,0,0,0-1.591-.774,1.936,1.936,0,0,0-1.332.774,6.368,6.368,0,0,0-1.007,2.2,9.6,9.6,0,0,0-.6,3.956c.159,1.1.7,2.3.147,3.267a78.289,78.289,0,0,0-4.405,10.134,17,17,0,0,0-.844,2.516,13.312,13.312,0,0,0-.139,4.2,55.525,55.525,0,0,0,1.514,7.777,9.993,9.993,0,0,0,1.281,3.345,14.424,14.424,0,0,0-.17,3.933,2.176,2.176,0,0,0,.232.871,3.709,3.709,0,0,0,.8.817,3.976,3.976,0,0,1,1.266,3.035,9,9,0,0,0,.608,3.1c.925,2.76,1.854,5.52,2.663,8.319a5.464,5.464,0,0,1,.286,1.606,10.7,10.7,0,0,0-.2,2.323,8.273,8.273,0,0,1,.317,1.072,2.779,2.779,0,0,1-.108.832c-.5,2.187-1.959,7.231-1.707,9.465l.5-.174c-.213,2.957-1.126,5.853-1.459,8.81a28.956,28.956,0,0,0,.07,6.472,22.783,22.783,0,0,1,.248,2.9c0,.871-.139,1.73-.174,2.6a23.664,23.664,0,0,0,.205,3.484,36,36,0,0,0,.863,5.377c.805,3,.263,6.132.352,9.244a56.258,56.258,0,0,1-.066,6.515c-.081.917-.209,1.831-.236,2.752-.081,2.733.728,5.454.441,8.172-.135,1.274-.461,2.71.341,3.712.255.314.6.538.871.836a1.161,1.161,0,0,1,.337,1.1c-.1.306-.387.53-.453.852-.074.5.48.852.96,1.014l.135.039a1.2,1.2,0,0,0,.345.914,2.052,2.052,0,0,0,1.034.41l6.194,1.2a8.069,8.069,0,0,0,4.181.05,1.061,1.061,0,0,0,.29.492,2.052,2.052,0,0,0,1.03.41l6.194,1.2c1.579.306,3.314.588,4.723-.194a2.655,2.655,0,0,0,.995-.925,2.869,2.869,0,0,0,.135-2.419,1.978,1.978,0,0,0-.689-1,2.57,2.57,0,0,0-1.44-.31,2.84,2.84,0,0,1-1.246-.19.924.924,0,0,1-.31-.263c.31-.387.608-.774.89-1.161-.267-.062-.387-.43-.453-.7-.8-4.018.321-8.129.484-12.232a26.05,26.05,0,0,0-.48-6.128c-.151-.774-.333-1.51-.441-2.276-.569-4,.952-8.059.468-12.07-.228-1.874.577-3.832.863-5.7a20.484,20.484,0,0,0-.074-5.032L532.871,384.2a15.783,15.783,0,0,0-1.115-5.214,6.828,6.828,0,0,1-.526-2.861c1.548-.886,2.973-2.106,4.723-2.11.337-1.277-.631-5.307-1.2-6.5a28.356,28.356,0,0,1-2.52-15.078c.205-1.854-.534-3.724-.286-5.574a3.357,3.357,0,0,1,.356-1.243,1.281,1.281,0,0,1,1.03-.685c-.108-1.111-.252-2.23-.441-3.341a8.129,8.129,0,0,0,1.548-2.226,29.227,29.227,0,0,0,1.63-5.346c.852-3.178,2.152-6.213,3.182-9.333s.828-6.418,1.568-9.623a7.061,7.061,0,0,1,3.019-4.293,5.674,5.674,0,0,0,1.665-1.258,2.873,2.873,0,0,0,.465-1.583A4.053,4.053,0,0,0,544.627,304.677Zm-23.66,135.439c.116-.159.228-.317.333-.484-.41-.023-.929-.263-.979-.674a4.368,4.368,0,0,1,.135-1.219,4.847,4.847,0,0,0-.128-2.133c-.143-.48-.356-.941-.511-1.421a14.363,14.363,0,0,1-.36-1.63,27.84,27.84,0,0,0-1.761-5.725c-.774-1.785-.174-3.732-.166-5.679a10.828,10.828,0,0,1,.093-2.745c.135-.526.387-1.014.53-1.548a6.773,6.773,0,0,0-.472-3.72c1.529-3.616,1.734-7.742,2.048-11.675q.263-3.3.526-6.581a6.256,6.256,0,0,1,.681-2.834,33.779,33.779,0,0,1,1.622,8.636,13.109,13.109,0,0,0,.294,2.524c.244.917.72,1.75,1.037,2.64.7,1.959.631,4.1.948,6.155.128.832.321,1.653.445,2.485.534,3.674-.329,7.394-1.188,11.005a39.475,39.475,0,0,0-.561,6.937c-.112,2.179-.228,4.359-.174,6.542,0,.666.043,1.347.035,2.025a4.949,4.949,0,0,0-.635-.035,2.842,2.842,0,0,1-1.246-.19A1.421,1.421,0,0,1,520.968,440.117Z" transform="translate(-319.25 -208.789)" fill="url(#linear-gradient-2)"/>
    <path id="Path_30161" data-name="Path 30161" d="M568.553,661.2a2.609,2.609,0,0,1,1.44.306,2.005,2.005,0,0,1,.689,1,2.838,2.838,0,0,1-.139,2.4,2.636,2.636,0,0,1-.995.917c-1.409.774-3.143.5-4.723.2l-6.194-1.188a2.06,2.06,0,0,1-1.034-.387,1.339,1.339,0,0,1-.182-1.548,2.965,2.965,0,0,1,1.161-1.161,14.153,14.153,0,0,1,5.915-1.784c.774-.093,1.5-.341,2.079.2.31.283.294.635.728.863a2.9,2.9,0,0,0,1.254.186Z" transform="translate(-353.333 -426.85)" fill="#3f3d56"/>
    <path id="Path_30162" data-name="Path 30162" d="M538.313,655.695a2.593,2.593,0,0,1,1.436.306,1.959,1.959,0,0,1,.689,1,2.822,2.822,0,0,1-.135,2.4,2.666,2.666,0,0,1-.995.917c-1.409.774-3.143.5-4.727.2l-6.194-1.192a2.055,2.055,0,0,1-1.034-.387,1.339,1.339,0,0,1-.186-1.548,3.039,3.039,0,0,1,1.181-1.161,14.419,14.419,0,0,1,5.915-1.781c.774-.1,1.5-.341,2.079.194.306.283.294.635.724.863a2.865,2.865,0,0,0,1.246.19Z" transform="translate(-334.795 -423.477)" fill="#3f3d56"/>
    <path id="Path_30163" data-name="Path 30163" d="M530.448,484.335a74.416,74.416,0,0,0-10.7.817,2.138,2.138,0,0,0-.677.178c-.751.387-.774,1.44-.755,2.284.05,3.434-1.123,6.759-1.51,10.165a28.344,28.344,0,0,0,.066,6.43,24.016,24.016,0,0,1,.248,2.884c0,.859-.143,1.715-.178,2.578a23.339,23.339,0,0,0,.2,3.445,35.56,35.56,0,0,0,.863,5.342c.8,2.985.259,6.093.345,9.182a54.68,54.68,0,0,1-.074,6.472c-.081.914-.209,1.819-.236,2.737-.081,2.71.724,5.419.437,8.129-.135,1.262-.464,2.71.337,3.685.255.31.6.534.867.832a1.161,1.161,0,0,1,.341,1.092c-.108.306-.406.53-.453.848-.077.5.476.848.956,1.006a8.849,8.849,0,0,0,9.983-3.588c-.41-.023-.929-.263-.979-.67a4.316,4.316,0,0,1,.135-1.212,4.719,4.719,0,0,0-.128-2.117c-.139-.48-.356-.937-.507-1.413a14.37,14.37,0,0,1-.36-1.618,27.358,27.358,0,0,0-1.757-5.69c-.774-1.773-.17-3.708-.163-5.636a10.881,10.881,0,0,1,.093-2.729c.135-.526.387-1.01.534-1.548a6.679,6.679,0,0,0-.472-3.693c1.548-3.592,1.742-7.711,2.055-11.613l.53-6.581a6.226,6.226,0,0,1,.681-2.814A33.344,33.344,0,0,1,531.8,510.1a12.687,12.687,0,0,0,.29,2.512c.244.906.716,1.734,1.037,2.621.7,1.935.627,4.068.945,6.112.128.828.317,1.641.441,2.47.534,3.65-.333,7.355-1.2,10.936a39.057,39.057,0,0,0-.565,6.894c-.116,2.164-.232,4.328-.178,6.5.046,1.994.2,4.134-.871,5.807a10.548,10.548,0,0,0,3.778,1.351,6.677,6.677,0,0,0,4.347-1.316,14.128,14.128,0,0,0,3.186-3.341c-.271-.062-.387-.43-.453-.7-.8-3.991.325-8.09.492-12.155a25.863,25.863,0,0,0-.476-6.085c-.151-.774-.337-1.506-.445-2.265-.561-3.972.96-8.009.48-12-.225-1.866.581-3.809.867-5.667a20.033,20.033,0,0,0-.07-4.978l-1.274-13.065a15.487,15.487,0,0,0-1.111-5.183c-.906-1.936-.345-4.32-.441-6.453a26.563,26.563,0,0,1-10.134,2.245Z" transform="translate(-328.455 -317.925)" fill="#46455b"/>
    <path id="Path_30164" data-name="Path 30164" d="M571.4,338a41.6,41.6,0,0,1,4.08-8.207,12.109,12.109,0,0,0,.929-1.591,20.2,20.2,0,0,0,.921-4.018c.832-3.77,3.55-7.007,3.9-10.839a16.954,16.954,0,0,1,1.343-4A4.863,4.863,0,0,1,584,306.938a2.865,2.865,0,0,1,3.4.163,4,4,0,0,1,1.374,3.256,2.865,2.865,0,0,1-.464,1.572,5.569,5.569,0,0,1-1.665,1.25,7.026,7.026,0,0,0-3.023,4.258c-.743,3.186-.542,6.457-1.575,9.558s-2.323,6.12-3.186,9.29a29.812,29.812,0,0,1-1.637,5.311,6.366,6.366,0,0,1-3.991,3.612,10.808,10.808,0,0,0-.883-3.333C571.8,340.651,570.939,339.242,571.4,338Z" transform="translate(-361.925 -210.279)" fill="#a0616a"/>
    <path id="Path_30165" data-name="Path 30165" d="M509.367,345.605a17.659,17.659,0,0,0-1.719-6.515,6.277,6.277,0,0,1-.867-2.435,6.152,6.152,0,0,1,.538-2.342,60.363,60.363,0,0,0,2.071-8.094l1.068-5.148a7.831,7.831,0,0,0,1.258-1.463,7.1,7.1,0,0,0,1.266-3.627,4.893,4.893,0,0,0-1.273-3.569,2.125,2.125,0,0,0-1.591-.751,1.935,1.935,0,0,0-1.332.774,6.24,6.24,0,0,0-.987,2.168,9.543,9.543,0,0,0-.6,3.929c.155,1.1.7,2.284.143,3.244a78.112,78.112,0,0,0-4.413,10.065,16.949,16.949,0,0,0-.84,2.5,13.161,13.161,0,0,0-.147,4.181,54.875,54.875,0,0,0,1.51,7.742c.387,1.595.871,3.329,2.21,4.285A25.544,25.544,0,0,1,509.367,345.605Z" transform="translate(-319.371 -213.469)" fill="#a0616a"/>
    <circle id="Ellipse_668" data-name="Ellipse 668" cx="6.647" cy="6.647" r="6.647" transform="translate(190.902 119.289)" fill="#a0616a"/>
    <path id="Path_30166" data-name="Path 30166" d="M530.394,394.131a8.938,8.938,0,0,1-1.084,3.445c-.314.662-.724,1.4-1.44,1.548a32.222,32.222,0,0,0,6.244,1.792,6.867,6.867,0,0,0,2.23.128,5.357,5.357,0,0,0,1.777-.658,9.113,9.113,0,0,0,4.517-6.581,12,12,0,0,1-2.474.066,1.812,1.812,0,0,1-1.266-.468,1.9,1.9,0,0,1-.356-1.037q-.221-1.649-.352-3.306a13.1,13.1,0,0,0-4.742,1.088c-.619.271-1.223.585-1.862.817-.387.139-1.506.166-1.777.418C529.391,391.781,530.417,393.295,530.394,394.131Z" transform="translate(-335.327 -260.907)" fill="#a0616a"/>
    <path id="Path_30167" data-name="Path 30167" d="M521.986,394.649a4.181,4.181,0,0,0-3.538-3.364,8.03,8.03,0,0,1-2.079-.259c-1.1-.476-1.568-1.866-2.636-2.412a2.816,2.816,0,0,0-3.244.875,7.228,7.228,0,0,0-1.363,3.317,16.065,16.065,0,0,0-.36,4.916,2.206,2.206,0,0,0,.236.867,3.758,3.758,0,0,0,.794.813,3.925,3.925,0,0,1,1.266,3.012,8.827,8.827,0,0,0,.6,3.1c.925,2.741,1.854,5.485,2.659,8.265a5.361,5.361,0,0,1,.286,1.595,8.659,8.659,0,0,0-.2,2.3,9,9,0,0,1,.313,1.065,2.739,2.739,0,0,1-.108.828c-.507,2.176-1.963,7.185-1.711,9.4a56.665,56.665,0,0,1,11.783-2.323,25.939,25.939,0,0,1,2.9-.17c2.323,0,4.758.437,6.925-.414,2.009-.774,3.677-2.64,5.837-2.648.337-1.266-.631-5.268-1.192-6.453a27.956,27.956,0,0,1-2.508-14.977c.2-1.843-.534-3.7-.283-5.539a3.313,3.313,0,0,1,.352-1.235,1.3,1.3,0,0,1,1.034-.685,40.641,40.641,0,0,0-1.684-8.493c-.314-.983-.879-2.121-1.908-2.187-.929-.062-1.614.774-2.284,1.428a6.581,6.581,0,0,1-2.419,1.459,2.381,2.381,0,0,0-1.007.492c-.387.406-.387,1.068-.708,1.548-.557.859-1.982.941-2.323,1.9a5.875,5.875,0,0,0-.151.859,3.066,3.066,0,0,1-.914,1.463,5.9,5.9,0,0,1-2.373,1.653Z" transform="translate(-323.586 -257.708)" fill="#2f2e41"/>
    <path id="Path_30168" data-name="Path 30168" d="M533.358,358.366a1.2,1.2,0,0,0-.387-1.219,5.873,5.873,0,0,0-.627-.252,2.552,2.552,0,0,1-.724-.751,3.484,3.484,0,0,0-4.44-.65c-1.088.72-1.657,2-2.586,2.915-.476.476-1.045.848-1.525,1.324a6.832,6.832,0,0,0-1.777,3.662,19.861,19.861,0,0,0-.166,4.127,3.648,3.648,0,0,0,.178,1.231,3.272,3.272,0,0,0,.565.89,10.568,10.568,0,0,0,4.572,3.43,6.467,6.467,0,0,0,5.57-.476.991.991,0,0,0,.387-.387,1.219,1.219,0,0,0,0-.743,5.032,5.032,0,0,1,.267-2.876,19.062,19.062,0,0,0,.859-1.955,6.542,6.542,0,0,0,.062-2.323A23.915,23.915,0,0,1,533.358,358.366Z" transform="translate(-331.168 -240.014)" fill="#46455b"/>
    <path id="Path_30169" data-name="Path 30169" d="M843.32,630c0,38.083,23.892,68.9,53.42,68.9" transform="translate(-528.665 -408.578)" fill="#46455b"/>
    <path id="Path_30170" data-name="Path 30170" d="M981.32,697.678c0-38.517,26.66-69.678,59.614-69.678" transform="translate(-613.245 -407.352)" fill="#69cc41"/>
    <path id="Path_30171" data-name="Path 30171" d="M893.32,638.86c0,36.179,15.232,65.455,34.065,65.455" transform="translate(-559.31 -414.009)" fill="#69cc41"/>
    <path id="Path_30172" data-name="Path 30172" d="M981.32,667.034c0-49.212,30.817-89.034,68.9-89.034" transform="translate(-613.245 -376.708)" fill="#46455b"/>
    <ellipse id="Ellipse_669" data-name="Ellipse 669" cx="13.281" cy="2.245" rx="13.281" ry="2.245" transform="translate(352.475 298.978)" fill="#69cc41" opacity="0.1"/>
    <path id="Path_30173" data-name="Path 30173" d="M952.28,802.719s7.576-.232,9.859-1.858,11.656-3.569,12.221-.96,11.385,12.968,2.834,13.038-19.874-1.332-22.154-2.71S952.28,802.719,952.28,802.719Z" transform="translate(-595.446 -511.928)" fill="#a8a8a8"/>
    <path id="Path_30174" data-name="Path 30174" d="M977.315,818.5c-8.551.07-19.874-1.332-22.154-2.71-1.734-1.061-2.427-4.85-2.656-6.6h-.255s.48,6.108,2.76,7.5,13.6,2.791,22.154,2.71c2.466-.019,3.321-.9,3.275-2.2C980.106,818.02,979.165,818.488,977.315,818.5Z" transform="translate(-595.428 -518.403)" opacity="0.2"/>
    <path id="Path_30175" data-name="Path 30175" d="M770.791,81.963a2.923,2.923,0,0,0,.53-1.626c0-3.53-7.192-6.387-16.065-6.387s-16.065,2.857-16.065,6.387a3.012,3.012,0,0,0,.631,1.812c-9.879,1.1-16.533,3.17-16.533,5.543,0,3.527,14.71,6.387,32.9,6.387s32.9-2.861,32.9-6.387C789.109,85.2,781.63,83.008,770.791,81.963Z" transform="translate(-455.099 -67.777)" fill="#69cc41" opacity="0.1"/>
    <path id="Path_30176" data-name="Path 30176" d="M261.84,99.963a2.923,2.923,0,0,0,.53-1.626c0-3.53-7.192-6.387-16.065-6.387s-16.065,2.857-16.065,6.387a3.012,3.012,0,0,0,.662,1.812c-9.879,1.1-16.533,3.17-16.533,5.543,0,3.527,14.729,6.387,32.9,6.387s32.9-2.861,32.9-6.387C280.158,103.2,272.679,101.008,261.84,99.963Z" transform="translate(-143.183 -78.809)" fill="#69cc41" opacity="0.1"/>
    <path id="Path_30177" data-name="Path 30177" d="M628.74,92.526a2.222,2.222,0,0,1,2.741.821,6.813,6.813,0,0,1,.948,2.95c.345,2.292.6,4.92-.948,6.643A21.6,21.6,0,0,1,649.287,88.57" transform="translate(-397.15 -76.737)" fill="none" stroke="#69cc41" stroke-miterlimit="10" stroke-width="3" opacity="0.1"/>
    <path id="Path_30178" data-name="Path 30178" d="M295.21,195.719a1.445,1.445,0,0,1,1.761.526,4.146,4.146,0,0,1,.612,1.9c.221,1.475.387,3.163-.608,4.258a13.87,13.87,0,0,1,11.439-9.24" transform="translate(-192.73 -140.84)" fill="none" stroke="#69cc41" stroke-miterlimit="10" stroke-width="3" opacity="0.1"/>
    <path id="Path_30179" data-name="Path 30179" d="M745.21,225.719a1.445,1.445,0,0,1,1.761.526,4.146,4.146,0,0,1,.612,1.9c.221,1.475.387,3.163-.608,4.258a13.87,13.87,0,0,1,11.439-9.24" transform="translate(-468.534 -159.227)" fill="none" stroke="#69cc41" stroke-miterlimit="10" stroke-width="3" opacity="0.1"/>
    <path id="Path_30180" data-name="Path 30180" d="M697.288,546.387v-9.407l4.336,4.336,1.084-1.123L696.514,534l-6.194,6.194,1.084,1.08,4.336-4.293v9.407Z" transform="translate(-434.892 -349.74)" fill="#69cc41" opacity="0.1"/>
    <path id="Path_30181" data-name="Path 30181" d="M455.288,626.387v-9.407l4.336,4.336,1.084-1.123L454.514,614l-6.194,6.194,1.084,1.08,4.336-4.293v9.407Z" transform="translate(-286.571 -398.772)" fill="#69cc41" opacity="0.1"/>
    <path id="Path_30182" data-name="Path 30182" d="M633.288,697.387v-9.407l4.336,4.336,1.084-1.123L632.514,685l-6.194,6.194,1.084,1.08,4.336-4.293v9.407Z" transform="translate(-395.666 -442.288)" fill="#69cc41" opacity="0.1"/>
  </g>
</svg>
