<svg xmlns="http://www.w3.org/2000/svg" width="725.118" height="717.87" viewBox="0 0 725.118 717.87">
  <g id="vector_succcess_approve" transform="translate(-598.888 -102.005)">
    <path id="blob" d="M402.329,96.33c34.946,37.225,55.458,83.946,83.567,143.962S549.71,374,523.88,405.905s-112.815,22.411-183.466,41.023c-71.031,18.992-125.349,65.713-159.916,54.7-34.566-11.4-49-80.907-80.908-139.024S18.3,258.144,4.249,196.989,11.466,59.864,61.226,24.918C110.986-9.648,189.614-3.191,253.429,13.9,317.623,31,367,59.1,402.329,96.33Z" transform="matrix(0.819, -0.574, 0.574, 0.819, 598.888, 407.607)" fill="#69cc41" opacity="0.06"/>
    <g id="undraw_Freelancer_re_irh4" transform="translate(722.71 376.557)">
      <path id="Path_30019" data-name="Path 30019" d="M688.6,357.283a84.379,84.379,0,0,1,6.983-26.63q1.576-3.521,3.469-6.887a.514.514,0,0,0-.888-.519,85.546,85.546,0,0,0-9.519,26.26q-.715,3.86-1.074,7.775C687.514,357.941,688.542,357.937,688.6,357.283Z" transform="translate(-400.601 -267.803)" fill="#e6e6e6"/>
      <ellipse id="Ellipse_631" data-name="Ellipse 631" cx="6.509" cy="6.509" rx="6.509" ry="6.509" transform="translate(294.435 44.593)" fill="#e6e6e6"/>
      <path id="Path_30020" data-name="Path 30020" d="M689.728,362.907a54.74,54.74,0,0,1,4.53-17.276q1.023-2.284,2.251-4.468a.334.334,0,0,0-.576-.336,55.5,55.5,0,0,0-6.175,17.036q-.464,2.5-.7,5.044C689.021,363.334,689.688,363.331,689.728,362.907Z" transform="translate(-401.06 -273.255)" fill="#e6e6e6"/>
      <ellipse id="Ellipse_632" data-name="Ellipse 632" cx="4.223" cy="4.223" rx="4.223" ry="4.223" transform="translate(292.841 60.533)" fill="#e6e6e6"/>
      <path id="Path_30021" data-name="Path 30021" d="M684.93,362.618a54.739,54.739,0,0,1-7.054-16.408q-.6-2.43-.973-4.907a.334.334,0,0,0-.661.089,55.494,55.494,0,0,0,5.609,17.231q1.175,2.26,2.553,4.406c.231.361.756-.051.526-.41Z" transform="translate(-397.103 -273.364)" fill="#e6e6e6"/>
      <ellipse id="Ellipse_633" data-name="Ellipse 633" cx="4.223" cy="4.223" rx="4.223" ry="4.223" transform="translate(274.911 60.236)" fill="#e6e6e6"/>
      <path id="Path_30022" data-name="Path 30022" d="M670.059,372.568v-8.3a3.115,3.115,0,0,1,3.111-3.111h19.359a3.115,3.115,0,0,1,3.111,3.111v8.3a3.115,3.115,0,0,1-3.111,3.111H673.17a3.115,3.115,0,0,1-3.111-3.111Z" transform="translate(-395.196 -279.578)" fill="#f2f2f2"/>
      <path id="Path_30023" data-name="Path 30023" d="M696.467,283.26h-8.3a3.115,3.115,0,0,1-3.111-3.111V246.271a3.115,3.115,0,0,1,3.111-3.111h8.3a3.115,3.115,0,0,1,3.111,3.111v33.877a3.115,3.115,0,0,1-3.111,3.111Z" transform="translate(-399.825 -243.16)" fill="#f2f2f2"/>
      <rect id="Rectangle_1407" data-name="Rectangle 1407" width="13.828" height="2.766" transform="translate(285.58 6.568)" fill="#ccc"/>
      <rect id="Rectangle_1408" data-name="Rectangle 1408" width="13.828" height="2.766" transform="translate(285.58 28)" fill="#ccc"/>
      <path id="Path_30024" data-name="Path 30024" d="M726.467,283.26h-8.3a3.115,3.115,0,0,1-3.111-3.111V246.271a3.115,3.115,0,0,1,3.111-3.111h8.3a3.115,3.115,0,0,1,3.111,3.111v33.877a3.115,3.115,0,0,1-3.111,3.111Z" transform="translate(-409.084 -243.16)" fill="#f2f2f2"/>
      <rect id="Rectangle_1409" data-name="Rectangle 1409" width="13.828" height="2.766" transform="translate(306.321 6.568)" fill="#ccc"/>
      <rect id="Rectangle_1410" data-name="Rectangle 1410" width="13.828" height="2.766" transform="translate(306.321 28)" fill="#ccc"/>
      <path id="Path_30025" data-name="Path 30025" d="M756.467,283.26h-8.3a3.115,3.115,0,0,1-3.111-3.111V246.271a3.115,3.115,0,0,1,3.111-3.111h8.3a3.114,3.114,0,0,1,3.111,3.111v33.877a3.115,3.115,0,0,1-3.111,3.111Z" transform="translate(-418.342 -243.16)" fill="#f2f2f2"/>
      <rect id="Rectangle_1411" data-name="Rectangle 1411" width="13.828" height="2.766" transform="translate(327.062 6.568)" fill="#ccc"/>
      <rect id="Rectangle_1412" data-name="Rectangle 1412" width="13.828" height="2.766" transform="translate(327.062 28)" fill="#ccc"/>
      <path id="Path_30026" data-name="Path 30026" d="M772.467,364.26h-8.3a3.115,3.115,0,0,1-3.111-3.111V327.271a3.115,3.115,0,0,1,3.111-3.111h8.3a3.115,3.115,0,0,1,3.111,3.111v33.877a3.115,3.115,0,0,1-3.111,3.111Z" transform="translate(-423.28 -268.159)" fill="#f2f2f2"/>
      <rect id="Rectangle_1413" data-name="Rectangle 1413" width="13.828" height="2.766" transform="translate(338.124 62.569)" fill="#ccc"/>
      <rect id="Rectangle_1414" data-name="Rectangle 1414" width="13.828" height="2.766" transform="translate(338.124 84.002)" fill="#ccc"/>
      <path id="Path_30027" data-name="Path 30027" d="M802.467,364.26h-8.3a3.115,3.115,0,0,1-3.111-3.111V327.271a3.115,3.115,0,0,1,3.111-3.111h8.3a3.115,3.115,0,0,1,3.111,3.111v33.877a3.115,3.115,0,0,1-3.111,3.111Z" transform="translate(-432.539 -268.159)" fill="#f2f2f2"/>
      <rect id="Rectangle_1415" data-name="Rectangle 1415" width="13.828" height="2.766" transform="translate(358.866 62.569)" fill="#ccc"/>
      <rect id="Rectangle_1416" data-name="Rectangle 1416" width="13.828" height="2.766" transform="translate(358.866 84.002)" fill="#ccc"/>
      <path id="Path_30028" data-name="Path 30028" d="M832.467,364.26h-8.3a3.115,3.115,0,0,1-3.111-3.111V327.271a3.115,3.115,0,0,1,3.111-3.111h8.3a3.115,3.115,0,0,1,3.111,3.111v33.877a3.115,3.115,0,0,1-3.111,3.111Z" transform="translate(-441.798 -268.159)" fill="#f2f2f2"/>
      <rect id="Rectangle_1417" data-name="Rectangle 1417" width="13.828" height="2.766" transform="translate(379.607 62.569)" fill="#ccc"/>
      <rect id="Rectangle_1418" data-name="Rectangle 1418" width="13.828" height="2.766" transform="translate(379.607 84.002)" fill="#ccc"/>
      <path id="Path_30029" data-name="Path 30029" d="M693.467,445.26h-8.3a3.115,3.115,0,0,1-3.111-3.111V408.271a3.115,3.115,0,0,1,3.111-3.111h8.3a3.115,3.115,0,0,1,3.111,3.111v33.877a3.115,3.115,0,0,1-3.111,3.111Z" transform="translate(-398.899 -293.158)" fill="#f2f2f2"/>
      <rect id="Rectangle_1419" data-name="Rectangle 1419" width="13.828" height="2.766" transform="translate(283.505 118.571)" fill="#ccc"/>
      <rect id="Rectangle_1420" data-name="Rectangle 1420" width="13.828" height="2.766" transform="translate(283.505 140.003)" fill="#ccc"/>
      <path id="Path_30030" data-name="Path 30030" d="M723.467,445.26h-8.3a3.115,3.115,0,0,1-3.111-3.111V408.271a3.115,3.115,0,0,1,3.111-3.111h8.3a3.115,3.115,0,0,1,3.111,3.111v33.877a3.115,3.115,0,0,1-3.111,3.111Z" transform="translate(-408.158 -293.158)" fill="#f2f2f2"/>
      <rect id="Rectangle_1421" data-name="Rectangle 1421" width="13.828" height="2.766" transform="translate(304.247 118.571)" fill="#ccc"/>
      <rect id="Rectangle_1422" data-name="Rectangle 1422" width="13.828" height="2.766" transform="translate(304.247 140.003)" fill="#ccc"/>
      <path id="Path_30031" data-name="Path 30031" d="M753.467,445.26h-8.3a3.115,3.115,0,0,1-3.111-3.111V408.271a3.115,3.115,0,0,1,3.111-3.111h8.3a3.115,3.115,0,0,1,3.111,3.111v33.877a3.115,3.115,0,0,1-3.111,3.111Z" transform="translate(-417.417 -293.158)" fill="#f2f2f2"/>
      <rect id="Rectangle_1423" data-name="Rectangle 1423" width="13.828" height="2.766" transform="translate(324.988 118.571)" fill="#ccc"/>
      <rect id="Rectangle_1424" data-name="Rectangle 1424" width="13.828" height="2.766" transform="translate(324.988 140.003)" fill="#ccc"/>
      <path id="Path_30032" data-name="Path 30032" d="M786.467,283.26h-8.3a3.115,3.115,0,0,1-3.111-3.111V246.271a3.115,3.115,0,0,1,3.111-3.111h8.3a3.115,3.115,0,0,1,3.111,3.111v33.877a3.115,3.115,0,0,1-3.111,3.111Z" transform="translate(-427.601 -243.16)" fill="#f2f2f2"/>
      <rect id="Rectangle_1425" data-name="Rectangle 1425" width="13.828" height="2.766" transform="translate(347.804 6.568)" fill="#ccc"/>
      <rect id="Rectangle_1426" data-name="Rectangle 1426" width="13.828" height="2.766" transform="translate(347.804 28)" fill="#ccc"/>
      <path id="Path_30033" data-name="Path 30033" d="M816.467,283.26h-8.3a3.115,3.115,0,0,1-3.111-3.111V246.271a3.115,3.115,0,0,1,3.111-3.111h8.3a3.115,3.115,0,0,1,3.111,3.111v33.877a3.115,3.115,0,0,1-3.111,3.111Z" transform="translate(-436.86 -243.16)" fill="#f2f2f2"/>
      <rect id="Rectangle_1427" data-name="Rectangle 1427" width="13.828" height="2.766" transform="translate(368.545 6.568)" fill="#ccc"/>
      <rect id="Rectangle_1428" data-name="Rectangle 1428" width="13.828" height="2.766" transform="translate(368.545 28)" fill="#ccc"/>
      <path id="Path_30034" data-name="Path 30034" d="M846.467,283.26h-8.3a3.115,3.115,0,0,1-3.111-3.111V246.271a3.115,3.115,0,0,1,3.111-3.111h8.3a3.115,3.115,0,0,1,3.111,3.111v33.877a3.115,3.115,0,0,1-3.111,3.111Z" transform="translate(-446.118 -243.16)" fill="#f2f2f2"/>
      <rect id="Rectangle_1429" data-name="Rectangle 1429" width="13.828" height="2.766" transform="translate(389.286 6.568)" fill="#ccc"/>
      <rect id="Rectangle_1430" data-name="Rectangle 1430" width="13.828" height="2.766" transform="translate(389.286 28)" fill="#ccc"/>
      <path id="Path_30035" data-name="Path 30035" d="M876.467,283.26h-8.3a3.115,3.115,0,0,1-3.111-3.111V246.271a3.115,3.115,0,0,1,3.111-3.111h8.3a3.115,3.115,0,0,1,3.111,3.111v33.877a3.115,3.115,0,0,1-3.111,3.111Z" transform="translate(-455.377 -243.16)" fill="#f2f2f2"/>
      <rect id="Rectangle_1431" data-name="Rectangle 1431" width="13.828" height="2.766" transform="translate(410.028 6.568)" fill="#ccc"/>
      <rect id="Rectangle_1432" data-name="Rectangle 1432" width="13.828" height="2.766" transform="translate(410.028 28)" fill="#ccc"/>
      <path id="Path_30036" data-name="Path 30036" d="M838.234,302.043H641.191a.691.691,0,0,1,0-1.383H838.234a.691.691,0,0,1,0,1.383Z" transform="translate(-386.073 -260.906)" fill="#ccc"/>
      <path id="Path_30037" data-name="Path 30037" d="M838.234,383.043H641.191a.691.691,0,0,1,0-1.383H838.234a.691.691,0,0,1,0,1.383Z" transform="translate(-386.073 -285.905)" fill="#ccc"/>
      <path id="Path_30038" data-name="Path 30038" d="M838.234,464.043H641.191a.691.691,0,0,1,0-1.383H838.234a.691.691,0,0,1,0,1.383Z" transform="translate(-386.073 -310.903)" fill="#ccc"/>
      <path id="Path_30039" data-name="Path 30039" d="M853.6,438.283a84.373,84.373,0,0,1,6.983-26.63q1.576-3.521,3.469-6.887a.514.514,0,0,0-.887-.519,85.543,85.543,0,0,0-9.519,26.26q-.715,3.86-1.074,7.775C852.514,438.941,853.542,438.937,853.6,438.283Z" transform="translate(-451.524 -292.802)" fill="#e6e6e6"/>
      <ellipse id="Ellipse_634" data-name="Ellipse 634" cx="6.509" cy="6.509" rx="6.509" ry="6.509" transform="translate(408.512 100.595)" fill="#e6e6e6"/>
      <path id="Path_30040" data-name="Path 30040" d="M854.728,443.907a54.739,54.739,0,0,1,4.53-17.276q1.022-2.284,2.251-4.468a.334.334,0,0,0-.576-.337,55.494,55.494,0,0,0-6.175,17.036q-.464,2.5-.7,5.044C854.021,444.334,854.688,444.331,854.728,443.907Z" transform="translate(-451.982 -298.253)" fill="#e6e6e6"/>
      <ellipse id="Ellipse_635" data-name="Ellipse 635" cx="4.223" cy="4.223" rx="4.223" ry="4.223" transform="translate(406.919 116.534)" fill="#e6e6e6"/>
      <path id="Path_30041" data-name="Path 30041" d="M849.93,443.618a54.738,54.738,0,0,1-7.054-16.408q-.6-2.43-.973-4.907a.334.334,0,0,0-.661.089,55.5,55.5,0,0,0,5.609,17.231q1.175,2.26,2.553,4.406c.232.361.756-.051.526-.41Z" transform="translate(-448.026 -298.362)" fill="#e6e6e6"/>
      <ellipse id="Ellipse_636" data-name="Ellipse 636" cx="4.223" cy="4.223" rx="4.223" ry="4.223" transform="translate(388.988 116.238)" fill="#e6e6e6"/>
      <path id="Path_30042" data-name="Path 30042" d="M835.059,453.568v-8.3a3.115,3.115,0,0,1,3.111-3.111h19.359a3.115,3.115,0,0,1,3.111,3.111v8.3a3.115,3.115,0,0,1-3.111,3.111H838.17A3.115,3.115,0,0,1,835.059,453.568Z" transform="translate(-446.118 -304.577)" fill="#f2f2f2"/>
      <path id="Path_30043" data-name="Path 30043" d="M536.606,606.043H273.191a.691.691,0,0,1,0-1.383H536.606a.691.691,0,1,1,0,1.383Z" transform="translate(-272.5 -354.728)" fill="#3f3d56"/>
      <ellipse id="Ellipse_637" data-name="Ellipse 637" cx="18.667" cy="18.667" rx="18.667" ry="18.667" transform="translate(118.958 123.41)" fill="#2f2e41"/>
      <path id="Path_30044" data-name="Path 30044" d="M173.184,372.4l-.494-8.461,32.4-5.935.73,12.489Z" transform="translate(-53.296 -110.489)" fill="#ffb8b8"/>
      <path id="Path_30045" data-name="Path 30045" d="M10.293,0H26.639V10.292H0A10.292,10.292,0,0,1,10.293,0Z" transform="translate(120.855 236.989) rotate(86.655)" fill="#2f2e41"/>
      <path id="Path_30046" data-name="Path 30046" d="M178.969,369.447,173.586,376l-27.818-17.643,7.943-9.664Z" transform="translate(-44.987 -107.614)" fill="#ffb8b8"/>
      <path id="Path_30047" data-name="Path 30047" d="M10.293,0H26.639V10.292H0A10.292,10.292,0,0,1,10.293,0Z" transform="matrix(0.635, -0.773, 0.773, 0.635, 116.35, 279.47)" fill="#2f2e41"/>
      <path id="Path_30048" data-name="Path 30048" d="M442.218,576.852l-3.678,17.339a2.765,2.765,0,0,0,2.661,3.339l36.158.583a2.766,2.766,0,0,0,2.768-3.246l-3.163-17.922a2.766,2.766,0,0,0-2.723-2.285H444.924A2.766,2.766,0,0,0,442.218,576.852Z" transform="translate(-323.725 -345.469)" fill="#2f2e41"/>
      <path id="Path_30049" data-name="Path 30049" d="M432.869,580.495s-35.26-22.124-42.174-10.371c-3.457,5.877-1.728,11.581.864,15.815a23.943,23.943,0,0,0,9.958,8.913L430.1,608.841l10.371-11.062-6.914-6.222Z" transform="translate(-308.38 -343.007)" fill="#2f2e41"/>
      <path id="Path_30050" data-name="Path 30050" d="M474.238,580.114s45.631-13.136,36.643,11.753-42.865,15.21-42.865,15.21l-3.457-10.371,11.753-8.3Z" transform="translate(-331.774 -346.083)" fill="#2f2e41"/>
      <ellipse id="Ellipse_638" data-name="Ellipse 638" cx="16.981" cy="16.981" rx="16.981" ry="16.981" transform="translate(120.878 129.359)" fill="#ffb8b8"/>
      <path id="Path_30051" data-name="Path 30051" d="M459.355,555.143a91.25,91.25,0,0,1-20.919-2.756l-.2-.055-9.476-43.588a16.057,16.057,0,0,1,10.324-18.628,55.628,55.628,0,0,1,35.467-.708h0a16.226,16.226,0,0,1,10.81,19.2l-10.584,43.692-.149.071C470.227,554.449,464.727,555.143,459.355,555.143Z" transform="translate(-320.606 -318.368)" fill="#ccc"/>
      <path id="Path_30052" data-name="Path 30052" d="M454.582,581.657a6.952,6.952,0,0,1,10.008-3.673l18.658-16.2,1.688,12.727L466.96,587.944a6.99,6.99,0,0,1-12.377-6.287Z" transform="translate(-328.562 -341.497)" fill="#ffb8b8"/>
      <path id="Path_30053" data-name="Path 30053" d="M478.112,563.453a3.133,3.133,0,0,1-.9-.132,3.079,3.079,0,0,1-2.048-1.947l-2.252-6.38a3.092,3.092,0,0,1,.9-3.389l25.421-15.262-10.021-44.705.255-.061c.1-.026,10.371-2.362,14.578,8.857,2.946,7.858,13.849,24.943,13.08,36.488a10.291,10.291,0,0,1-8.519,9.491l-28.615,16.395A3.08,3.08,0,0,1,478.112,563.453Z" transform="translate(-334.297 -319.76)" fill="#ccc"/>
      <path id="Path_30054" data-name="Path 30054" d="M471.086,579.464a6.952,6.952,0,0,0-10.008-3.673l-18.658-16.2-1.688,12.727,17.977,13.428a6.99,6.99,0,0,0,12.377-6.287Z" transform="translate(-324.42 -340.82)" fill="#ffb8b8"/>
      <path id="Path_30055" data-name="Path 30055" d="M443.249,563.453a3.081,3.081,0,0,1-1.883-.646L410.676,547.8a10.291,10.291,0,0,1-8.519-9.491c-.769-11.545,12.208-30.013,15.154-37.871,4.207-11.219,14.474-8.883,14.578-8.857l.255.061-12.1,46.088,27.5,13.879a3.092,3.092,0,0,1,.9,3.389l-2.252,6.38a3.079,3.079,0,0,1-2.048,1.947A3.139,3.139,0,0,1,443.249,563.453Z" transform="translate(-312.505 -319.76)" fill="#ccc"/>
      <path id="Path_30056" data-name="Path 30056" d="M484.931,586.217H423.4a4.845,4.845,0,0,1-4.84-4.84V547.5a4.845,4.845,0,0,1,4.84-4.84h61.533a4.845,4.845,0,0,1,4.84,4.84v33.877A4.845,4.845,0,0,1,484.931,586.217Z" transform="translate(-317.577 -335.593)" fill="#69cc41"/>
      <ellipse id="Ellipse_639" data-name="Ellipse 639" cx="4.148" cy="4.148" rx="4.148" ry="4.148" transform="translate(132.44 224.697)" fill="#fff"/>
      <path id="Path_30057" data-name="Path 30057" d="M446.957,445.482c-1.006-2.553.645-5.595,3.094-6.831s5.405-1,8.026-.186c2.2.685,4.266,1.746,6.414,2.585a14.354,14.354,0,0,0,6.743,1.2,6.791,6.791,0,0,0,5.51-3.65,6.694,6.694,0,0,0-1.186-6.712,13,13,0,0,0-5.954-3.827c-5.052-1.78-10.888-1.832-15.578.755s-7.878,8.1-6.908,13.364" transform="translate(-326.249 -299.833)" fill="#2f2e41"/>
      <path id="Path_30058" data-name="Path 30058" d="M304.7,579.679a84.378,84.378,0,0,1,6.984-26.63q1.576-3.521,3.469-6.887a.514.514,0,0,0-.887-.519,85.545,85.545,0,0,0-9.519,26.26q-.715,3.86-1.074,7.775c-.061.658.967.654,1.028,0Z" transform="translate(-282.12 -336.44)" fill="#e6e6e6"/>
      <ellipse id="Ellipse_640" data-name="Ellipse 640" cx="6.509" cy="6.509" rx="6.509" ry="6.509" transform="translate(29.015 198.352)" fill="#69cc41"/>
      <path id="Path_30059" data-name="Path 30059" d="M305.827,585.3a54.741,54.741,0,0,1,4.53-17.276q1.023-2.284,2.251-4.468a.334.334,0,0,0-.576-.337,55.5,55.5,0,0,0-6.175,17.036q-.464,2.5-.7,5.044C305.12,585.73,305.787,585.727,305.827,585.3Z" transform="translate(-282.579 -341.892)" fill="#e6e6e6"/>
      <ellipse id="Ellipse_641" data-name="Ellipse 641" cx="4.223" cy="4.223" rx="4.223" ry="4.223" transform="translate(27.421 214.292)" fill="#69cc41"/>
      <path id="Path_30060" data-name="Path 30060" d="M301.029,585.013a54.741,54.741,0,0,1-7.054-16.408q-.6-2.43-.973-4.907a.334.334,0,0,0-.661.089,55.5,55.5,0,0,0,5.609,17.231q1.175,2.26,2.553,4.406C300.735,585.784,301.259,585.372,301.029,585.013Z" transform="translate(-278.623 -342)" fill="#e6e6e6"/>
      <ellipse id="Ellipse_642" data-name="Ellipse 642" cx="4.223" cy="4.223" rx="4.223" ry="4.223" transform="translate(9.491 213.995)" fill="#69cc41"/>
      <path id="Path_30061" data-name="Path 30061" d="M286.159,594.964v-8.3a3.115,3.115,0,0,1,3.111-3.111h19.359a3.115,3.115,0,0,1,3.111,3.111v8.3a3.115,3.115,0,0,1-3.111,3.111H289.27a3.115,3.115,0,0,1-3.111-3.111Z" transform="translate(-276.715 -348.215)" fill="#f2f2f2"/>
      <path id="Path_30062" data-name="Path 30062" d="M579.558,610.178c0,4.547-3.686,6.614-8.233,6.614s-8.233-2.067-8.233-6.614,1.83-9.853,8.233-8.023C577.728,599.411,579.558,605.631,579.558,610.178Z" transform="translate(-362.183 -353.747)" fill="#ff6584"/>
      <path id="Path_30063" data-name="Path 30063" d="M572.73,600.524a1.316,1.316,0,0,1-1.307-1.147,55.221,55.221,0,0,0-2.409-8.517h0a1.178,1.178,0,0,1,.152-1.083,1.235,1.235,0,0,1,1.841-.133,1.179,1.179,0,0,1,.324.882c-.124,2.317,1.565,6.06,2.582,8.085a1.319,1.319,0,0,1-1.044,1.905A1.24,1.24,0,0,1,572.73,600.524Z" transform="translate(-363.99 -349.985)" fill="#3f3d56"/>
      <path id="Path_30064" data-name="Path 30064" d="M580.2,595.323c2.858-2.339.616-7.126-2.961-6.207a2.889,2.889,0,0,0-1.289.687c-2.194,2.073-2.534,7.376-2.534,7.376A9.712,9.712,0,0,0,580.2,595.323Z" transform="translate(-365.37 -349.895)" fill="#3f3d56"/>
    </g>
  </g>
</svg>
