<svg xmlns="http://www.w3.org/2000/svg" width="22" height="24.834" viewBox="0 0 22 24.834">
  <g id="vedio_provider" transform="translate(-3.142)">
    <path id="Path_29417" data-name="Path 29417" d="M23.855,9.572H6.481a1.51,1.51,0,0,0-.155-.545L23.375,5.491a1.287,1.287,0,0,0,1-1.522l-.61-2.943A1.292,1.292,0,0,0,22.5,0a1.322,1.322,0,0,0-.262.027L4.17,3.774a1.288,1.288,0,0,0-1,1.522L3.781,8.24c.027.131.329,2.733.329,2.733V23.546A1.289,1.289,0,0,0,5.4,24.834H23.855a1.289,1.289,0,0,0,1.288-1.288V10.86A1.288,1.288,0,0,0,23.855,9.572Zm0,.859a.43.43,0,0,1,.43.429v.092H23.118l-1.793,4.244a.442.442,0,0,0,.407.673h2.553v2.144H4.969V15.6l2.47-4.785H6.012a1.493,1.493,0,0,0,.295-.39Zm.43,4.864H21.9L23.5,11.523h.787S24.285,15.295,24.285,15.295ZM4.969,18.461H10.7v2.053H4.969Zm6.186,0h6.257v2.053H11.154V18.461Zm6.708,0h6.423v2.053H17.862ZM4.969,14.356V11.393H6.5ZM22.417.867A.416.416,0,0,1,22.5.858a.431.431,0,0,1,.42.342l.61,2.943a.429.429,0,0,1-.334.507l-.153.032.044-.042-3.17-3.255Zm-3.16.655,3.2,3.283-2.6.54-3.2-3.282ZM15.99,2.2l3.2,3.282-2.41.5L13.58,2.7Zm-3.075.637,3.2,3.282-2.655.551-3.137-3.3ZM9.66,3.512l3.138,3.3-2.509.52-3.138-3.3ZM4.031,4.881A.438.438,0,0,1,4.072,4.8a.425.425,0,0,1,.272-.184l2.147-.445,3.138,3.3-2.62.544Zm.13.967,2.188,2.3-.781.162a1.52,1.52,0,0,0-.6-.123,1.481,1.481,0,0,0-.284.029.423.423,0,0,1-.063-.148ZM23.855,23.975H5.4a.43.43,0,0,1-.43-.429V20.965H24.285v2.581A.43.43,0,0,1,23.855,23.975ZM8.474,15.807h2.433a.833.833,0,0,0,.686-.407l2.253-4.58H10.3L8.088,15.13a.43.43,0,0,0,.386.678Zm2.175-4.415h2.278L11.088,15.13a.273.273,0,0,1-.181.105H8.676Zm4.265,4.475H17.56a.826.826,0,0,0,.686-.415l2.126-4.569H16.715L14.524,15.19a.433.433,0,0,0,.389.678Zm2.153-4.411h2.409l-1.737,3.735a.267.267,0,0,1-.178.1H15.112Z"/>
  </g>
</svg>
