<svg xmlns="http://www.w3.org/2000/svg" width="22" height="19.467" viewBox="0 0 22 19.467">
  <g id="victory_black" transform="translate(0 -29.47)">
    <g id="Group_1041" data-name="Group 1041" transform="translate(0 29.47)">
      <path id="Path_29838" data-name="Path 29838" d="M21.7,42.145a1.133,1.133,0,0,0-.57-.334A1.153,1.153,0,0,0,20.073,40.3h-.028a1.151,1.151,0,0,0-1.1-1.206,1.153,1.153,0,0,0-1.933-.946l-.153.142a1.389,1.389,0,0,0-.77-.261,1.454,1.454,0,0,0-.41.046l-.625-.747a.628.628,0,0,0-.883-.079l-.163.136-6.543-7.8A.322.322,0,0,0,6.974,30l.012.014L.17,35.7a.472.472,0,0,0,.038.754L2.8,38.206l1.369,3a.469.469,0,0,0,.325.265.475.475,0,0,0,.106.012.469.469,0,0,0,.3-.11l6.823-5.711L13.516,37.8l-.226.189a.627.627,0,0,0-.079.884l.635.759a1.856,1.856,0,0,0-.206.418l-1.267,3.116L6.282,47.848a.607.607,0,0,0,.37,1.089h6.7a.611.611,0,0,0,.435-.184L15.6,46.887l1.914-.138.035,0a2.3,2.3,0,0,0,1.142-.57l.8-.73.019-.014L20.033,45a1.133,1.133,0,0,0,.579-.288l1.025-.952A1.142,1.142,0,0,0,21.7,42.145ZM4.658,40.732,3.363,37.894a.472.472,0,0,0-.165-.2L.759,36.053,7.4,30.507l3.908,4.66Zm14.007-.088a1.013,1.013,0,0,0-.214-.68l.1-.09a.508.508,0,0,1,.73.706l-.033.029-1.006.935-.043.042a.5.5,0,0,1-.26.1,1.063,1.063,0,0,0,.2-.148l.187-.173A1.052,1.052,0,0,0,18.665,40.644Zm-1.211-2.023a.509.509,0,0,1,.719.027.509.509,0,0,1-.027.719l-.132.123-.693-.744Zm-3.738-.15.857-.716.525.628-.048.043-.768.723ZM18.258,45.7a1.659,1.659,0,0,1-.807.409l-2.018.145a.322.322,0,0,0-.208.1l-1.893,1.943H6.761l6.075-4.671.013-.011.009-.007a.316.316,0,0,0,.029-.03l0-.006a.324.324,0,0,0,.022-.031l0-.006a.319.319,0,0,0,.02-.04v0l1.3-3.205.007-.019a1.22,1.22,0,0,1,.32-.5l.926-.871a.8.8,0,0,1,.578-.221.744.744,0,0,1,.524.236l.034.037h0l1.132,1.216h0l.16.172a.373.373,0,0,1,.1.275.411.411,0,0,1-.133.282l-.187.173a.4.4,0,0,1-.455.07l-.011-.005a.366.366,0,0,1-.091-.071l-.47-.505a.917.917,0,0,0-.646-.293.949.949,0,0,0-.687.261.322.322,0,0,0-.1.255,1.808,1.808,0,0,1-.01.346c0,.006,0,.012,0,.017a1.555,1.555,0,0,1-.319.751.322.322,0,1,0,.51.393,2.285,2.285,0,0,0,.27-.447l2.939,3.514,0,0Zm.854-.776-3.228-3.859c0-.046.005-.092.006-.139a.3.3,0,0,1,.117-.019.277.277,0,0,1,.2.088l.47.505a1.01,1.01,0,0,0,.156.137,1.151,1.151,0,0,0,1.016.7h.028a1.152,1.152,0,0,0,.882,1.176,1.143,1.143,0,0,0,.46,1.321ZM19.005,42.9a.508.508,0,0,1-.365-.842l.033-.029,1.006-.935.043-.042a.509.509,0,0,1,.654.777L20.191,42a1.162,1.162,0,0,0-.107.088l-.787.731A.5.5,0,0,1,19.005,42.9Zm2.193.389-1.025.952a.491.491,0,0,1-.3.131h-.058a.5.5,0,0,1-.319-.859l.2-.189a1.172,1.172,0,0,0,.108-.088l.786-.73a.5.5,0,0,1,.6.783Z" transform="translate(0 -29.47)"/>
    </g>
  </g>
</svg>
