<svg xmlns="http://www.w3.org/2000/svg" width="22" height="13.703" viewBox="0 0 22 13.703">
  <g id="view_order_dashbored" transform="translate(-16.721 -108.931)">
    <path id="Path_30699" data-name="Path 30699" d="M35.483,112.284a16.452,16.452,0,0,0-3.467-2.3,9.918,9.918,0,0,0-4.294-1.055,9.918,9.918,0,0,0-4.294,1.055,16.453,16.453,0,0,0-3.468,2.3,21.4,21.4,0,0,0-3.186,3.335.276.276,0,0,0,0,.326,21.411,21.411,0,0,0,3.185,3.335,16.451,16.451,0,0,0,3.468,2.3,9.918,9.918,0,0,0,4.294,1.055,9.918,9.918,0,0,0,4.294-1.055,16.45,16.45,0,0,0,3.467-2.3,21.412,21.412,0,0,0,3.185-3.335.276.276,0,0,0,0-.326A21.4,21.4,0,0,0,35.483,112.284Zm-.357,6.575c-3.144,2.663-5.762,3.222-7.4,3.222s-4.254-.558-7.394-3.214a21.845,21.845,0,0,1-2.981-3.085,21.813,21.813,0,0,1,2.972-3.076c3.144-2.663,5.762-3.222,7.4-3.222s4.254.558,7.394,3.214a21.851,21.851,0,0,1,2.981,3.085,21.813,21.813,0,0,1-2.972,3.076Z"/>
    <path id="Path_30700" data-name="Path 30700" d="M127.943,123.952a6.159,6.159,0,1,0,6.159,6.159,6.166,6.166,0,0,0-6.159-6.159Zm0,11.765a5.606,5.606,0,1,1,5.606-5.606A5.606,5.606,0,0,1,127.943,135.717Z" transform="translate(-100.222 -14.329)"/>
    <path id="Path_30701" data-name="Path 30701" d="M204.1,203.789a2.48,2.48,0,1,0,2.48,2.48A2.48,2.48,0,0,0,204.1,203.789Zm0,4.408a1.928,1.928,0,1,1,1.928-1.928A1.928,1.928,0,0,1,204.1,208.2Z" transform="translate(-176.381 -90.487)"/>
    <path id="Path_30702" data-name="Path 30702" d="M216.3,154.815a4.3,4.3,0,0,1,.479-.127l-.111-.542a4.85,4.85,0,0,0-.541.144c-.1.034-.2.071-.3.112l.207.513C216.12,154.878,216.211,154.845,216.3,154.815Z" transform="translate(-189.929 -43.132)"/>
    <path id="Path_30703" data-name="Path 30703" d="M152.584,166.04l-.272-.482c-.093.053-.186.118-.276.176a4.857,4.857,0,0,0-2.2,4.083h.553a4.3,4.3,0,0,1,1.954-3.62C152.419,166.145,152.5,166.086,152.584,166.04Z" transform="translate(-126.978 -54.018)"/>
  </g>
</svg>
